<?xml version="1.0" encoding="UTF-8"?><svg id="Layer_2" xmlns="http://www.w3.org/2000/svg" viewBox="0 0 935.83 486.1"><defs><style>.cls-1,.cls-2{stroke-width:0px;}.cls-2{fill:#fff;}</style></defs><path class="cls-2" d="m518.23,338.62c-.14,2.59-1.15,4.6-2.44,6.38-2.89,4.03-6.27,7.64-10.11,10.8-1.37,1.12-2.77,2.23-4.25,3.17-2.73,1.74-5.51,3.41-8.32,5.02-2.87,1.63-5.87,3.03-8.7,4.7-3.39,2.02-6.73,4.13-9.95,6.4-2.16,1.51-4.16,3.29-6.06,5.11-1.6,1.54-1.39,2.29-.02,4.01,3.4,4.29,7.32,8.08,11.02,12.08,2.24,2.42,4.1,5.21,6.16,7.8.55.71,1.17,1.39,1.86,1.94,2.49,1.99,3.81,4.87,5.69,7.32.78,1.03,1.87,1.82,2.64,2.85,3.12,4.15,6.17,8.35,9.25,12.52,2.15,2.91,4.31,5.8,6.42,8.73.74,1.02,1.35,2.12,2,3.2,1.86,3.08,4.49,5.6,5.8,9.08.62,1.66,2.15,2.97,3.29,4.43.12.14.34.23.42.39,1.28,2.5,2.5,5.05,3.85,7.52,1.3,2.37,2.77,4.64,4.1,7,1.76,3.12,3.44,6.27,5.16,9.41-.13.16-.27.33-.4.49-1.01-.45-2.13-.75-3-1.38-3.89-2.83-8.15-4.98-12.44-7.11-4.81-2.39-9.83-4.4-14.43-7.11-3.57-2.1-7.53-3.2-11.12-5.24-2.5-1.43-5.49-1.98-8.22-3.07-2.05-.82-3.98-1.97-6.03-2.8-4.07-1.65-8.18-3.17-12.27-4.73-.37-.14-.78-.17-1.13-.33-2.39-1.09-4.72-2.35-7.17-3.26-4.08-1.51-8.16-3-12.15-4.78-3.64-1.62-7.55-2.63-11.36-3.88-2.77-.91-5.63-1.58-8.09-3.28-.69-.48-1.6-.66-2.43-.95-3.59-1.27-7.18-2.52-10.76-3.78-2.82-1-5.6-2.09-8.35-3.29-2.21-.97-4.67-1.39-7.06-1.93-2.95-.68-5.98-1.04-8.88-1.9-3.13-.93-6.39-1.1-9.48-1.92-2.07-.54-4.42-.09-6.03-.99-2.82-1.58-5.95-.3-8.67-1.66-.58-.29-1.38-.14-2.07-.19-2.35-.15-4.72.38-7.02-.86-.94-.51-2.37-.06-3.57-.16-14.78-1.19-29.6-.75-44.41-.75-2.46,0-4.91.59-7.38.73-2.4.14-4.98-.49-7.18.18-3.06.94-6.07.68-9.11.88-2.67.17-5.6-.08-7.9.98-2.53,1.16-5.34.27-7.65,1.85-.49.34-1.37.16-2.07.15-2.4-.04-4.65.64-6.87,1.45-.45.17-.95.35-1.42.34-3.53-.11-6.68,1.49-10.01,2.24-1.8.4-3.7.68-5.33,1.48-2.2,1.09-4.93,1.23-6.52,3.35,1.5,2.5,2.94,4.9,4.38,7.32.15.25.17.63.38.78,3.9,2.91,6.21,7.51,10.68,9.84,1.54.8,2.7,2.3,4.15,3.29,3.46,2.35,6.98,4.64,10.51,6.89,3.03,1.95,6.11,3.84,9.49,5.95-1.07,1.75-2.03,3.4-3.08,5.01-2.41,3.7-4.58,7.56-8.22,10.29-2.35,1.76-4.45,3.98-7.02,5.27-1.66.83-3.63,1.31-5.42,2.09-4.22,1.83-8.67,2.13-13.23,2.14-4.8,0-9.56-.23-14.28-.94-1.66-.25-3.27-.97-4.96-1.36-3.89-.89-7.72-2.12-11.49-3.45-3.2-1.13-6.28-2.62-9.42-3.92-2.17-.9-4.35-1.77-6.54-2.59-2.27-.85-4.58-1.6-6.86-2.45-1.71-.64-3.22-.67-4.66.74-.89.87-2.02,1.51-3.12,2.14-2.47,1.4-4.91,2.89-7.5,4.02-2.68,1.18-5.51,2.04-8.32,2.88-2.53.75-5.16,1.13-7.67,1.92-2,.63-4.31.38-5.99,1.13-3.42,1.53-6.82.68-10.19,1.05-1.26.14-2.55.86-3.75.71-4.46-.55-8.99-.33-13.37-.92-3.64-.49-7.08-2.45-10.59-3.82-2.59-1.01-3.52-3.47-2.06-6.42,1.04-2.09,1.39-4.5,2.94-6.36.24-.29.27-.77.53-1.02,3-2.86,6.07-5.65,9.01-8.56.7-.7.97-1.82,1.52-2.69.66-1.06,0-1.65-.43-2.59-1.34-2.97-3.95-4.49-6.47-5.89-4.96-2.76-10.17-5.07-15.24-7.64-1.09-.55-1.96-1.57-3.04-2.15-4.19-2.28-7.33-5.71-10.5-9.16-2.17-2.37-1.49-4.99-.54-7.47.79-2.06,2.7-3.06,4.86-3.4.59-.1,1.21-.11,1.8-.03,4.66.65,9.1-.47,13.13-2.47,2.39-1.18,4.19-3.6,6.16-5.56.28-.28.17-1.18-.03-1.68-.48-1.19-.97-2.42-1.71-3.44-1.3-1.82-2.68-3.6-4.23-5.21-4.07-4.23-8.18-8.4-12.39-12.48-1.39-1.35-3.11-2.35-4.69-3.5-.62-.45-1.29-.83-1.9-1.3-3.38-2.56-6.39-5.58-10.34-7.39-1.62-.74-2.82-2.35-4.27-3.49-1.7-1.31-3.47-2.55-5.21-3.82-3.09-2.27-6.09-4.66-9.26-6.77-4.55-3.02-8.26-7-12.52-10.31-2.59-2-4.72-4.4-7.14-6.54-1.73-1.53-2.9-3.65-4.43-5.43-.71-.81-1.7-1.37-2.44-2.15-.93-.99-1.91-1.89-2.35-3.34-.36-1.16-1.35-2.14-2.08-3.17-.34-.49-.84-.88-1.12-1.41-2.55-4.81-5.15-9.6-7.56-14.48-1.45-2.93-2.82-5.94-3.8-9.04-.97-3.06-1.12-6.39-2.14-9.42-.73-2.15-.05-4.6-1.57-6.54-.16-.2-.1-.58-.12-.88-.28-5.17-.55-10.33-.81-15.51-.02-.5-.02-1,0-1.51.27-6.47.48-12.93.86-19.39.07-1.19.89-2.33,1.33-3.5,1.35-3.46,2.69-6.89,4-10.36.54-1.45.95-2.96,1.51-4.39.77-1.97,1.73-3.87,2.46-5.86,1.31-3.58,2.33-7.29,3.85-10.78,1.35-3.12,3.18-6.02,4.8-9.01-2.91-4.73-6-9.19-10.18-12.43-3.03-2.35-6.22-5.07-10.76-5.22.11-.78.01-1.53.33-2.02,1.3-2.02,2.65-4.01,4.1-5.92,3.06-4.02,6.32-7.89,9.22-12.02,1.14-1.62,2.01-3.75,2.12-5.69.08-1.57-.92-3.4-1.91-4.8-1.83-2.58-4.73-3.75-7.62-4.83-2.52-.92-5.01-1.82-7.26-3.4-1.41-.99-3.15-1.63-4.84-2.01-1.65-.38-2.42-1.54-3.51-2.53.51-1.88,1.38-3.35,2.78-4.59,1.48-1.31,2.67-2.95,4.2-4.18,3.2-2.58,6.33-5.31,10.48-6.37.74-.19,1.35-.84,2.08-1,1.8-.38,3.4-1.34,5.4-1.28,2.74.07,4.63-1.95,5.87-4.05,1.8-3.03,3.97-5.72,6.03-8.54,1.2-1.66,2.03-3.58,3.78-4.81,2.13-1.51,4.16-3.2,6.41-4.49,1.76-1,3.77-1.61,5.73-2.21,3.25-1.01,6.49-2.11,9.83-2.74,3.2-.6,6.5-.66,9.77-.93,1.45-.12,2.91.19,4.28-.9.64-.52,1.93-.22,2.93-.31,2.23-.2,4.58.59,6.68-.92.4-.29,1.18-.09,1.78-.09,3.21,0,6.44-.17,9.63.05,2.12.15,4.2.81,6.29,1.3,1.03.24,2.01.62,3.03.86,1.15.27,2.35.36,3.46.71,2.87.91,5.9,1.18,8.65,2.68,1.93,1.05,4.25,1.38,6.41,2.03.28.08.68.03.86.2,2.55,2.42,6.16,2.74,9.01,4.61,1.54,1.02,3.26,1.77,4.92,2.64.17.09.43.11.52.25,2.36,3.32,6.36,4.75,8.98,7.65,2.18,2.42,4.62,4.64,6.61,7.2,2.08,2.68,3.63,5.75,5.38,8.69,1.09,1.83,2.12,3.7,3.15,5.57.23.42.36.9.45,1.38.07.39-.12.89.06,1.19,1.83,3.02,1.61,6.75,3.44,9.77.19.32.31.76.3,1.13-.24,5.18,1.69,10.21,1.07,15.43-.21,1.79.02,3.61-.05,5.42-.07,1.85.37,3.72-.83,5.5-.48.7-.28,1.98-.13,2.95.49,3.32-.54,6.44-1.64,9.41-.72,1.94-.07,3.37.66,4.74,1.41,2.65,3.17,5.12,4.8,7.67.1.16.25.31.4.45,2.67,2.66,5.34,5.33,8.05,7.96.4.39.98.6,1.56.93,0,4.25.42,8.52-.13,12.66-.44,3.27-.12,6.61-.8,9.75-.87,4.08-.72,8.3-1.83,12.24-1.01,3.58-1.44,7.26-2.39,10.85-1.1,4.08-2.42,8.26-2.33,12.65.04,1.89-.74,3.78-.89,5.69-.17,2.09.04,4.22-.09,6.32-.07,1.16-.84,2.34-.69,3.43.55,4.08.14,8.29,1.61,12.24.16.45.05,1,.13,1.49.25,1.56.29,3.19.82,4.64,1.86,5.07,3.04,10.33,5.42,15.28,2.19,4.54,3.9,9.33,6.35,13.78-.54,1.98,1.41,2.9,1.94,4.45.56,1.63,1.7,3.05,2.43,4.63.74,1.59,1.34,3.25,1.88,4.92.96,3.04,1.92,6.08,2.69,9.17.49,2,.93,4.1.89,6.14-.07,3.12.07,6.25,1.19,9.06,1.57,3.92,2.81,7.96,5.27,11.62,2.83,4.2,6.63,7.17,10.37,10.26,1.65,1.36,4.04,1.85,6.12,2.67,4.21,1.66,8.63,1.03,12.97.97,1.7-.02,3.45-.66,5.07-1.3,4.72-1.87,8.44-4.74,10.39-9.75,2.11-5.46,4.86-10.67,6.91-16.14,1.04-2.78,2.47-5.21,4.02-7.68,1.36-2.18,2.07-4.77,3.07-7.18,1.4-3.37,3.49-6.27,5.61-9.23,3.05-4.28,7.13-7.47,10.49-11.39.91-1.07,1.61-2.32,2.24-3.61,1.85-1.06,3.28-2.52,4.48-4.44,1.28-2.07,3.15-3.76,4.44-5.83,1.63-2.64,3.25-5.37,4.29-8.27.88-2.47,2.24-4.62,3.64-6.7,1.01-1.5,1.39-3.17,2.23-4.68.99-1.8,2.01-3.58,3-5.37,2.67-4.86,4.72-9.97,6.71-15.14.87-2.23,2.12-4.32,2.94-6.57.77-2.09,1.19-4.31,1.77-6.48,2.51-9.36,1.78-18.93,1.76-28.45-.02-3.53-.93-6.98-2.14-10.34-.62-1.73-.97-3.55-1.44-5.32-.08-.29-.03-.63-.17-.87-1.68-2.96-3.26-5.97-5.09-8.83-1.84-2.88-3.76-5.7-6.14-8.23-1.21-1.28-2.01-2.97-4.32-3.86,1.17-1.02,1.78-1.79,2.56-2.18,3.13-1.57,6.41-2.77,9.76-3.79.84-.26,1.69-.62,2.42-1.1,3.11-2.06,6.71-3,10.07-4.47,2.95-1.3,5.84-2.7,8.92-3.64,1.43-2.56,4.46-2.14,6.6-3.46,2.01-1.25,4.77-1.27,6.83-2.45,2.01-1.16,4.39-1.38,6.27-2.98,1.42-1.21,3.5-2.03,5.37-2.23,2.76-.29,4.95-1.81,7.47-2.56,3.81-1.13,7.54-2.47,11.37-3.56,3.25-.93,6.38-1.89,9.8-1.83,1.66.02,3.32-.4,4.98-.57.25-.02.52.19,1.01.37-1.55,2.64-1.94,5.7-4.33,7.92-1.3,1.21-2.14,3.05-2.82,4.75-1.56,3.87-4.45,6.99-6.13,10.72-1.42,3.14-3.53,5.74-5.3,8.6-1.79,2.9-3.71,5.71-5.41,8.65-1.47,2.55-2.7,5.22-4.06,7.83-.66,1.28-1.33,2.55-2.09,3.99,2.36,1.31,4.5,2.53,7.21,2.57,2.66.04,5.32.7,7.98.68,3.46-.04,6.94-.42,10.39-.8,1.44-.15,2.82-.74,4.25-1.01,1.64-.31,3.31-.46,4.96-.74,1.14-.19,2.26-.6,3.4-.72,1.86-.2,3.74-.24,5.59-.34-.08,4.16-2.05,7.33-3.56,10.71-1.56,3.47-2.8,7.09-4.39,10.55-1.16,2.55-2.56,4.99-4.02,7.38-1.53,2.49-3.23,4.87-4.92,7.27-1.4,2-2.8,3.99-4.32,5.89-3.34,4.2-6.42,8.61-10.35,12.32-1.36,1.29-2.56,2.76-3.96,4.01-1.3,1.17-2.84,2.07-4.17,3.22-3.35,2.9-6.63,5.87-9.95,8.8-1.63,1.44-3.17,3.03-4.99,4.18-1.58,1-3.09,1.99-4.44,3.3-1.59,1.54-1.9,3.26-1.05,5.16,1.63,3.66,2.63,7.61,5.08,10.92,1.6,2.17,2.97,4.54,4.26,6.92,2.13,3.9,5.61,6.61,8.67,9.6,2.32,2.26,5.51,3.63,8.33,5.39.72.45,1.46.89,2.22,1.28,1.88.96,3.74,1.94,5.65,2.8.79.36,1.71.44,2.55.71,4.19,1.31,8.31,2.79,12.81,3.07,1.89.12,4.13.05,5.83,1.6.41.37,1.34.25,2.03.25,10.74.01,21.48.02,32.22-.02.82,0,1.63-.43,2.44-.69.46-.14.89-.43,1.35-.46,4.36-.3,8.75-.44,13.09-.85,2.72-.26,5.39-.91,8.09-1.39.48-.09.97-.37,1.44-.34,4.4.29,8.6-.89,12.84-1.79.39-.08.8-.07,1.19-.05,4.01.29,7.79-.91,11.64-1.68.68-.13,1.41-.17,2.09-.11,3.71.26,7.15-.81,10.54-2.08.28-.1.59-.13.89-.14,3.58-.08,7.15.15,10.7-.74,1.48-.37,3.11.11,4.58-.92.6-.42,1.73-.07,3.05-.07l-.04-.03ZM64.08,148.18c-.06.22-.13.43-.19.64.33.36.61.78.99,1.09,6.46,5.06,19.28,2.02,22.78-5.4,1.14-2.43,1.22-4.8-.3-7.13-2.26-3.49-8.5-5.28-12.7-3.53.46.56.89,1.08,1.33,1.62,2.65,3.32,2.46,8.24-1.81,10.91-1.92,1.21-4.01,1.78-6.25,1.8-1.28.02-2.56,0-3.84,0h0Z"/><path class="cls-2" d="m238.16,269.59c-1.26.82-2.67,1.71-4.04,2.63-.33.22-.74.47-.87.8-1.45,3.7-3.65,7.18-2.9,11.52.3,1.71.62,3.29,1.7,4.65.3.39.78.72.9,1.15.89,3.15,3.59,3.82,6.19,4.14,2.6.31,4.86-.72,6.87-2.66,2.46-2.37,3.95-4.92,4.34-8.39.17-1.53.59-2.75-.03-4.37-.84-2.2.09-2.92,2.39-4.55,3.31-2.33,7.21-3.43,10.53-5.73,1.22-.84,2.89-1.19,4.4-1.47,3.54-.65,5.63-4.51,3.94-7.61-.3-.55-1-.88-1.44-1.24-3.76,1.42-5.9,4.51-8.61,6.9-3.74,3.32-7.79,6.2-12.44,8.04-1.97-1.43-3.82-2.77-5.24-3.8.29-1.88.52-3.18.7-4.5.13-.95-.23-1.94.81-2.73.4-.3.37-1.29.37-1.97.04-3.61.18-7.23-.05-10.83-.13-1.97-.92-3.9-1.41-5.85-1.05-4.16-2.7-8.15-3.43-12.42-.48-2.76-1.69-5.38-2.42-8.11-.62-2.32-1.06-4.7-1.48-7.08-.36-2.03-.37-4.14-.96-6.1-.39-1.29,0-1.69.92-2.33,2.24-1.57,4.39-3.28,6.56-4.95,3-2.3,6-4.61,9.25-7.13,2.02,2.17,3.83,4.16,5.71,6.09,2.83,2.9,6.24,5.04,9.64,7.18.5.32,1.15.52,1.48.97,1.91,2.62,4.77,4,7.33,5.75.33.23.7.42.98.69,3.26,3.33,6.73,6.48,9.69,10.06,2.64,3.18,4.69,6.85,6.74,10.49,2.07,3.67,3.03,7.7,4.58,11.52.93,2.29.83,5.05.96,7.61.15,2.7.14,5.43,0,8.12-.17,3.67-.36,7.35-.86,10.97-.25,1.86-1.3,3.58-1.8,5.42-.46,1.7-.42,3.56-1.86,4.88,1.41,2.73-1.52,3.98-2.13,6.04-.62,2.13-1.5,4.32-2.83,6.04-.98,1.28-2.06,2.26-2.14,4.01-.02.46-.71.92-1.12,1.34-4.77,4.78-9.53,9.57-14.31,14.33-.55.55-1.19,1.16-1.89,1.39-2.8.89-4.61,2.76-6.02,5.26-.85,1.52-2.02,2.86-3.05,4.28-1.59,2.19-3.26,4.32-4.72,6.59-1.46,2.28-2.86,4.64-4.01,7.09-1.47,3.15-2.81,6.38-3.91,9.66-1.36,4.05-2.1,8.32-4.64,11.92-.26.36-.25.95-.26,1.44-.02.93-.1,1.62-1.25,2.04-.53.19-1.94.91-1.12,2.27.1.16-.22.64-.43.91-1.39,1.86-2.56,3.91-3.9,5.75-1.7,2.31-4.11,4.61-6.72,5.62-3.18,1.23-6.63.31-9.33-2.31-2.42-2.35-4.22-4.89-5.46-8.19-1.56-4.12-2.68-8.25-3.52-12.55-.66-3.42-1.89-6.73-2.71-10.12-.95-3.88-2.14-7.66-3.81-11.29-1.34-2.92-2.59-5.87-4.02-8.75-2.18-4.4-4.57-8.69-6.69-13.13-1.38-2.89-2.61-5.87-3.59-8.91-.96-2.97-1.31-6.09-1.89-9.15-1.23-6.48-.71-12.97-.54-19.42.09-3.32.19-6.82,1.46-10.13.72-1.88.64-4.06,1-6.09.38-2.18.78-4.36,1.3-6.51.48-2,1.19-3.93,1.71-5.92.65-2.44,1.22-4.89,1.79-7.35.39-1.71.84-3.43,1.03-5.18.36-3.45.56-6.92.81-10.37.06-.9-.08-1.82.05-2.71.19-1.26.8-2.14,2.29-2.24,2.77-.2,5.53-.51,8.28-.79.49-.05.99-.13,1.45-.31,2.27-.85,4.48-2.33,6.79-2.47,4.18-.28,7.41-2.55,10.91-4.24,1.52-.74,2.06-.45,2.9.65,1.68,2.19,2.06,4.99,3.52,7.28.05.08.11.18.12.28.39,2.51.8,5.01,1.14,7.53,1.13,8.34.74,16.73.81,25.1,0,.2-.06.45.03.59,2.17,3.81.78,7.96,1.18,11.93.08.88.19,1.76.33,2.97l-.04.03Zm33.7-43.35c.33-3.36-3.28-8.53-6.88-9.95-2.47-.97-5.75.02-6.33,2.26-.48,1.85-.65,4.13.02,5.84,1.54,3.98,4.77,6.27,9.05,6.89.46.06.98-.11,1.43-.28,2.17-.84,2.76-2.62,2.71-4.74h0Zm-69.35,27.49c3.06,1.06,5.43-.27,6.86-2.7,1.26-2.12,2.41-4.6.33-7.15-1.1-1.36-3.64-1.97-5-.8-3.01,2.59-5.24,6.68-2.2,10.65h0Zm82.32-2.07c-.63,2.14.57,3.97,2.51,5.49,2.15,1.68,4.59.66,5.48-1.88,1.08-3.08-.31-5.45-1.56-7.95-.72-1.44-2.22-1.6-3.4-1.6-1.65,0-2.92,1.73-3.02,3.4-.04.7,0,1.41,0,2.56h0Zm-73.45,76.95c-.04,3.27.11,3.66,1.88,4.93,1.41,1.02,3.32.59,4.05-.91.78-1.62-.36-6.76-1.75-7.81-1.51-1.14-3.85-.22-4.16,1.69-.11.68-.02,1.39-.02,2.09h0Zm28.88,10.11c-1.62,1.87-1.47,3.88-1.38,5.86.08,1.93.91,2.74,2.7,2.77,1.91.04,2.88-.87,2.99-2.85.04-.69.01-1.4,0-2.09-.02-3.59-.57-4.06-4.31-3.7h0Zm-12.67,30.59c.73-.81,1.63-1.35,1.8-2.07.27-1.13.19-2.4,0-3.57-.18-1.06-2.35-2.65-3.08-2.41-1.49.5-1.65,1.71-1.74,3.11-.16,2.22,1.16,3.41,3.02,4.94Zm-26.29-81.81c.17-3.43-.17-4.25-1.77-4.58-1.85-.37-3.36.16-3.85,1.36-.7,1.7-.04,2.84,2.65,4.58.93-.43,1.88-.87,2.97-1.36h0Zm61.31,19.22c-.4,3.26-.11,4.22,1.39,4.64,1.42.4,3.6-.18,4.02-1.23.97-2.39-1.17-3.17-2.2-4.39-1.23.37-2.23.68-3.2.98h0Z"/><path class="cls-2" d="m404.52,182.87c.22-.86.21-1.64.59-2.11,2.03-2.53,2.79-5.8,5.13-8.23,1.45-1.51,2.38-3.72,3.04-5.76,1.1-3.38,3.33-5.46,6.36-7.03,3.92-2.01,7.72-4.25,11.63-6.3,2.68-1.41,5.45-2.65,8.19-3.94,2.65-1.25,5.6-2,7.58-4.42.22-.26.7-.32,1.07-.43,4.01-1.31,7.49-3.76,11.31-5.48,3.74-1.69,7.46-3.49,10.98-5.57,1.89-1.11,4.06-1.66,5.74-3.31,1.19-1.17,3.05-1.66,4.63-2.44,7.38-3.63,14.8-7.18,22.14-10.89,3.41-1.71,6.61-3.83,10.02-5.55,6.19-3.13,12.55-5.95,18.67-9.2,3.91-2.08,7.24-5.06,10.27-8.34,1.14-1.24,2.39-2.38,3.52-3.63,2.39-2.64,4.74-5.3,7.1-7.97,2.54-2.88,5.09-5.75,7.59-8.66,1.27-1.5,2.51-3.03,3.65-4.63,3.43-4.77,7.58-8.98,10.45-14.16.75-1.36,1.85-2.53,2.9-3.69,1.01-1.12,1.07-2.24.51-3.61-1.93.57-3.71.8-5.24,2.47-1.13,1.23-3.34,1.44-5.02,2.21-2.29,1.04-4.58,2.1-6.79,3.29-1.77.95-3.35,2.26-5.16,3.11-2.36,1.11-4.87,1.92-7.3,2.9-.45.18-.8.57-1.21.84-2.77,1.81-5.74,3.2-8.79,4.52-4.17,1.8-8.1,4.16-12.13,6.29-3.37,1.79-6.6,3.89-10.12,5.29-3.91,1.56-7.54,3.62-11.31,5.39-3.96,1.86-7.73,4.1-11.83,5.69-2.85,1.12-5.36,3.12-8.2,4.25-3.28,1.29-5.89,3.91-9.53,4.44-.92.13-1.91.64-2.61,1.25-2.64,2.29-5.93,3.25-8.98,4.74-3.81,1.86-7.93,3.17-11.31,5.97-1.28,1.08-3.22,1.34-4.8,2.11-4.32,2.09-8.61,4.22-12.88,6.39-3.31,1.66-6.43,3.84-9.9,4.98-3.31,1.1-6.33,2.52-9.26,4.32-1.23.75-2.76.98-4.08,1.62-1.03.49-1.94,1.25-2.9,1.89-.4.27-.78.63-1.22.77-4.78,1.53-9.11,3.94-13.47,6.35-2.58,1.42-5.29,2.57-7.92,3.88-5.52,2.76-10.94,5.72-16.56,8.26-5.95,2.69-11.68,5.86-17.7,8.31-6.45,2.62-12.7,5.66-18.75,8.98-5.7,3.12-11.55,6.01-17.07,9.49-2.97,1.87-6.07,3.53-9.05,5.39-3.21,2.01-6.2,4.45-9.55,6.17-3.38,1.75-6.42,3.99-9.74,5.8-.5.28-1.13.33-1.3.37-5.39-3.42-9.78-7.44-13.69-12.29.33-.44.57-1.07,1.03-1.32,2.88-1.63,6.04-2.84,8.66-4.81,3.85-2.9,8.17-4.97,12.12-7.63,3.66-2.46,7.37-4.69,11.36-6.56,1.57-.74,2.87-2.04,4.39-2.9,5.09-2.89,10.39-5.46,15.27-8.66,2.12-1.39,4.44-1.97,6.58-3.11,3.53-1.88,7.21-3.52,10.83-5.25,4.05-1.94,8.1-3.87,12.17-5.75,1.94-.9,3.94-1.63,5.87-2.55,2.35-1.12,4.64-2.36,6.98-3.52,3.34-1.65,6.7-3.26,10.04-4.9,5.19-2.55,10.37-5.12,15.56-7.66,2.6-1.27,5.23-2.5,7.85-3.76,3.7-1.77,7.39-3.55,11.08-5.34,4.83-2.35,9.66-4.7,14.46-7.09,3.68-1.83,7.3-3.76,10.98-5.59,6.3-3.13,12.64-6.19,18.93-9.33,3.5-1.74,6.91-3.7,10.47-5.31,3.63-1.64,6.83-4.06,10.81-5.1,2.38-.63,4.34-2.76,6.71-3.6,3.43-1.21,5.98-4.01,9.54-4.88,2.96-.72,5.08-3.33,8.29-3.57.78-.06,1.51-.86,2.24-1.36.96-.67,1.79-1.62,2.85-2.03,8.21-3.2,15.6-8.05,23.67-11.59,3.52-1.54,7.02-3.19,10.53-4.82,3.08-1.42,5.87-3.44,8.91-4.98,3.21-1.62,6.32-3.5,9.89-4.41.86-.22,1.45-1.35,2.31-1.76,3.53-1.67,7.14-3.17,10.66-4.84,1.76-.83,3.4-1.87,5.08-2.85,1.01-.6,1.95-1.35,3-1.83,2.65-1.21,5.42-2.14,7.95-3.65,1.71-1.03,3.59-1.76,5.35-2.8,1.59-.94,3.53-1.44,5.23-2.49,1.69-1.05,3.8-1.39,5.61-2.29,1.28-.63,2.28-1.82,3.55-2.5,3.2-1.71,6.39-3.52,9.77-4.8,2.91-1.11,5.16-3.2,7.88-4.51,1.56-.75,3.11-1.82,5.16-.89.05,2.18-1.54,3.63-2.58,5.14-2.44,3.56-4.83,7.12-6.74,11.01-1.14,2.32-3.01,4.27-4.35,6.5-3.14,5.21-6.96,9.95-9.87,15.32-1.8,3.32-4.49,6.16-6.32,9.47-1.76,3.17-4.66,5.46-6.09,8.87-.63,1.49-1.98,2.67-3,4-2.09,2.72-4.51,5.25-6.16,8.22-1.98,3.55-5.15,6.12-7.09,9.69-1.18,2.19-3.36,3.82-4.96,5.81-2.27,2.82-4.37,5.78-6.65,8.6-1,1.23-2.23,2.26-3.35,3.38-3.56,3.55-6.55,7.6-10.04,11.23-3.75,3.89-8,6.97-12.65,9.53-4.27,2.35-8.69,4.46-13.11,6.52-4.77,2.23-9.65,4.22-14.43,6.44-3.47,1.61-6.81,3.47-10.25,5.12-1.49.71-3.32.86-4.62,1.78-4.91,3.47-10.66,5.2-15.89,8-3.36,1.8-6.81,3.43-10.24,5.12-.69.34-1.42.59-2.14.86-.83.31-1.9.37-2.46.94-2.24,2.26-5.31,2.74-7.98,4.1-2.61,1.33-5.27,2.58-7.9,3.9-2.17,1.09-4.29,2.26-6.48,3.31-3.26,1.55-6.58,2.99-9.83,4.55-4.58,2.2-9.19,4.33-13.66,6.74-2.9,1.57-6.03,2.61-8.85,4.46-2.71,1.77-6.09,2.53-9.64,3.92h.02Z"/><path class="cls-2" d="m409.78,259.06c2.56-4.28,5.02-8.41,7.49-12.52.49-.83,1.17-1.57,1.52-2.45.68-1.69,2.03-2.24,3.66-2.47,1.16-.17,2.32-.41,3.49-.58,2.81-.42,5.71-.54,8.43-1.3,2.86-.8,5.97.01,8.66-1.59.31-.19.78-.09,1.18-.14,5.62-.74,11.16-1.75,16.63-3.24.94-.26,1.93-.35,2.89-.55,1.13-.24,2.26-.52,3.38-.77.39-.09.77-.2,1.16-.24,3.06-.28,6.13-.44,9.18-.84,2.03-.25,4.01-.9,6.02-1.23,3.18-.5,6.24-1.94,9.54-1.53,2.15.27,3.65-1.34,5.59-1.54,3.01-.31,5.84-1.65,8.95-1.52,2.59.11,5.08-.44,7.46-1.53.43-.2.97-.24,1.45-.25,4.36-.09,8.52-1.23,12.68-2.35.76-.2,1.58-.18,2.37-.24,1.54-.13,2.99.04,4.54-.93,1.46-.92,3.55-.47,5.4-1.14,2.35-.85,5.07-.62,7.62-.95,2.62-.35,5.21-.86,7.82-1.24,4.64-.69,9.06-2.52,13.89-2.47,2.21.02,4.46-.87,6.64-1.77,1.95-.8,4.23-.81,6.38-1.13,2.91-.42,5.83-.79,8.73-1.21,1.27-.18,2.53-.37,3.78-.62.84-.17,1.69-.37,2.51-.66,1.39-.49,2.68-.83,4.1,1.59-2.91,2.57-5.92,5.04-8.7,7.74-2.68,2.62-5.04,5.57-7.69,8.23-2.36,2.38-5,4.49-7.39,6.83-3.41,3.35-6.53,6.99-10.1,10.15-2.11,1.86-4.56,3.37-6.54,5.45-2.74,2.89-5.27,6.13-8.49,8.36-2.99,2.07-4.96,5.33-8.4,6.77-.18.08-.33.22-.48.35-2.97,2.61-5.78,5.4-8.94,7.74-2.17,1.61-3.78,3.85-6.42,5.01-1.61.7-2.73,2.49-4.75,2.76-.93.12-1.82.62-2.76.74-1.54.2-3.17-.3-4.6.87-.45.36-1.36.18-2.06.18-3.41.01-6.83-.08-10.24.02-6.47.2-13.06-.15-19.39.97-5.6.99-11.16.06-16.61.93-6.89,1.1-13.77.37-20.64.68-.3.02-.65-.07-.9.05-3.5,1.8-7.27.51-10.88,1.01-7.17.98-14.36.67-21.54.76-5.53,2-11.27.58-16.88,1.04-.94.07-1.85.48-2.77.71-.66.17-1.31.4-1.98.45-1.08.08-2.17.02-3.74.02,1.11,1.51,2.12,2.08,3.42,2.14,1.01.04,2.01-.03,3.01.02,1.56.08,3.17-.37,4.6.81.44.36,1.35.2,2.04.21,2.31.02,4.67-.31,6.91.07,5.16.86,10.35.47,15.51.8,2.6.16,5.13,1.19,7.73,1.55,2.07.28,4.2.07,6.3.19,2.34.14,4.69-.41,7.01.84,1.1.59,2.76.16,4.16.17,2.31.01,4.62-.03,6.92.02,1.15.02,2.42-.34,3.34.84.19.25.73.29,1.12.31,4.36.28,8.73.54,13.1.81,1.36.08,2.74-.27,4.01.75.52.41,1.54.26,2.33.27,3.31.02,6.63-.07,9.93.04,2.14.07,4.33.27,6.07,2.46-1.5,1.19-2.82,2.47-4.35,3.41-3,1.84-6.21,3.34-9.14,5.27-3.94,2.58-8.23,4.61-12.11,7.17-3.05,2.01-6.39,3.35-9.42,5.29-2.96,1.9-6.16,3.44-9.29,5.07-4.3,2.23-8.48,4.81-12.98,6.5-5.76,2.16-11.09,5.51-17.31,6.45-.52.08-.96.61-1.12.71-2.34-.57-4.39-1.12-6.46-1.58-2.96-.66-6.12-.81-8.83-2.01-2.28-1.01-4.65-.64-6.89-1.54-3.03-1.22-6.55-1-9.43-2.89-.37-.24-.97-.22-1.47-.2-4.26.14-7.89-2.13-11.86-3.1-1.01-.24-1.94-1.44-2.59-2.4-2.85-4.19-5.6-8.45-7.59-13.15-.14-.35-.31-.72-.36-1.1-.03-.27.12-.55.18-.81,1.61.14,3.17.23,4.7.44,1.15.16,2.26.53,3.4.74.87.15,1.79.11,2.66.3,2.18.45,4.35,1.01,6.53,1.47,1.63.35,3.28.63,4.94.9,2.6.42,5.29.56,7.8,1.3,2.82.83,5.72.6,8.58,1.68,5.58,2.1,11.58,2.45,17.56,2.02.59-.04,1.18-.2,1.71-.43,3.28-1.45,6.54-2.92,9.79-4.43,1.06-.49,1.86-1.21,1.28-2.99-1.19-.27-2.67-.43-3.99-.94-2.74-1.07-5.86-.37-8.46-1.93-.33-.19-.77-.23-1.15-.25-2.88-.11-5.73-.33-8.6-.65-3.45-.38-6.74-1.23-10.11-1.84-1.56-.27-3.21-.26-4.8-.1-3.34.36-6.37-1.12-9.58-1.48-.68-.08-1.35-.3-2.03-.35-1.47-.1-3.01.28-4.27-.87-.19-.17-.57-.13-.87-.15-3.76-.27-7.53-.49-11.29-.83-.81-.07-1.57-.54-2.38-.77-.9-.25-1.84-.44-3.09-.73.86-.9,1.52-1.76,2.33-2.42,2.94-2.42,5.95-4.76,8.91-7.17,3.65-2.97,7.31-5.94,10.86-9.02,1.87-1.62,3.52-3.49,5.27-5.25.71-.71,1.39-1.44,2.11-2.14,2.49-2.41,5.34-3.34,8.94-3.61,4.47-.33,9.03.02,13.38-.75,5.68-1.01,11.44-.95,17.03-1.86,5.29-.86,10.59-.05,15.69-1.01,2.97-.56,6.1.08,9.02-1.43,1.44-.74,3.56-.02,5.35-.22,5.45-.58,10.92-.92,16.41-.76,3.03-1.71,6.53-.47,9.53-1.36,3.68-1.1,7.35-.28,10.91-.95,3.58-.68,7.15-.4,10.71-.75,2.79-.28,5.54-1.07,8.29-1.73.82-.21,1.67-.62,2.32-1.16,2.41-2.03,4.69-4.2,7.12-6.22,1.27-1.06,2.82-1.79,4.08-2.85,1.13-.97,1.96-2.26,3.05-3.26,1.08-.98,2.42-1.67,3.49-2.67,2.15-2.03,4.2-4.17,6.25-6.31.19-.21.02-.75.02-1.24-1.57-.46-2.94-.67-4.37.24-.53.34-1.32.4-1.99.4-2.99-.02-5.9.31-8.63,1.68-.49.24-1.18.13-1.79.14-2.08.07-4.1.17-6.19.63-3.54.76-7.23.8-10.85,1.21-.84.1-1.66.43-2.49.69-.37.11-.69.4-1.06.45-2.45.3-5.05.16-7.35.91-4.21,1.38-8.66.45-12.83,1.75-4.27,1.34-8.67,1.63-13.12,1.83-2.32.1-4.6.84-6.92,1.26-1.06.19-2.14.37-3.21.47-1.73.16-3.36.05-5.13.95-2,1.01-4.6.75-6.86,1.35-3.64.95-7.46.22-11.07,1.62-1.97.76-4.28.6-6.43.92-2.13.31-4.23.81-6.36,1-2.17.19-4.31.08-6.49.7-2.52.72-5.25.63-7.81,1.22-1.65.38-3.1,1.69-5.17.84h0Z"/><path class="cls-2" d="m421.42,238.09c1.02-3.58,2.65-6.18,3.76-8.99,1.09-2.8,1.68-5.8,2.59-9.08,2.56-.63,5.68-.9,8.34-2.17,3.59-1.71,7.55-2.03,11.1-3.52,3.05-1.28,6.15-2.25,9.28-3.26,2.96-.95,5.86-2.1,8.81-3.06,1.03-.33,2.2-.2,3.21-.54,2.94-.99,5.78-2.33,8.78-3.12,3.03-.79,5.93-1.93,8.88-2.84,2.39-.73,4.87-1.41,7.3-2.12,2.38-.7,4.7-1.63,7.07-2.39,1.57-.51,3.21-.84,4.78-1.35,2.59-.84,5.13-1.82,7.73-2.61,1.12-.34,2.41-.17,3.52-.55,3.84-1.34,7.56-3.14,11.48-4.17,3.55-.93,5.91-3.11,8.32-5.6,3.86-4,7.95-7.79,11.91-11.69,1.98-1.94,3.94-3.89,5.83-5.92.78-.84,1.25-1.97,2.03-2.8,1.62-1.74,3.41-3.32,5-5.08,1.3-1.45,2.95-2.53,3.7-4.57.47-1.27,2-2.15,3-3.25.35-.39.52-.92.86-1.54-1.59-.62-2.96-.72-4.26-.17-4.66,2-9.49,3.53-14.27,5.21-3.55,1.24-6.89,3.04-10.39,4.45-2.63,1.06-5.36,1.88-8.04,2.8-1.56.53-3.16.98-4.68,1.62-3.96,1.65-7.9,3.34-12.08,4.45-1.91.5-3.58,1.83-5.43,2.62-2.34,1.01-4.7,2.03-7.14,2.74-4.78,1.4-9.28,3.51-13.93,5.22-4.19,1.55-8.47,2.88-12.68,4.36-1.83.65-3.61,1.48-5.4,2.23-2.67,1.12-5.33,2.25-8,3.33-1.98.81-4,1.56-6,2.3-.54.21-1.12.32-1.66.52-1.63.63-3.24,1.3-4.86,1.92-1.45.55-2.93,1.03-4.37,1.59-4.01,1.54-7.98,3.15-12.01,4.65-4.81,1.79-9.68,3.41-14.48,5.24-3.37,1.28-6.63,2.83-10,4.15-2.26.89-4.6,1.57-6.91,2.32-.55.18-1.15.25-1.69.48-2.33.98-4.64,2.04-6.98,3.02-2.39,1-4.8,1.98-7.21,2.9-.51.2-1.12.15-1.77.23.5-2.29,1.13-4.19,2.94-5.69.98-.82,1.31-2.39,2.02-3.58,2.06-3.43,4.16-6.83,6.24-10.26.35-.57.57-1.22.94-1.79,1.51-2.36,2.91-4.35,6.06-5.39,4.93-1.63,10.04-3.02,14.55-5.93,1.82-1.17,4.24-1.38,6.38-2.07,1.21-.39,2.38-.85,3.56-1.31,1.01-.4,2.01-1.19,3-1.18,2.62.03,4.95-1.24,6.9-2.38,3.64-2.12,7.79-2.52,11.47-4.35,1.82-.92,3.75-1.69,5.71-2.27,3.43-1.01,6.41-3.09,10.02-3.75,2.45-.45,4.68-1.98,7.09-2.74,2.59-.81,4.75-2.74,7.63-2.8.51,0,.98-.61,1.53-.84,3.48-1.51,7.06-2.77,10.74-3.73.19-.05.4-.08.57-.18,4.46-2.65,9.53-3.83,14.25-5.85,2.77-1.19,5.69-2.06,8.53-3.09.98-.36,1.93-.83,2.91-1.21,1.18-.46,2.37-.84,3.55-1.3,2.64-1.03,5.19-2.41,7.91-3.04,5.15-1.21,9.55-4.27,14.69-5.48,2.52-.59,4.72-2.53,7.24-3.03,3.72-.74,6.98-2.49,10.42-3.84,3.99-1.57,8.12-2.71,12.03-4.55,3.64-1.71,7.63-2.67,11.42-4.09,3.74-1.41,7.34-3.25,11.15-4.4,3.75-1.14,6.96-3.6,10.95-4.13,1.19-.16,2.27-1.12,3.46-1.59,4.12-1.63,8.25-3.25,12.41-4.78.69-.25,1.56-.04,2.8-.04-.21.91-.24,1.65-.54,2.26-.83,1.64-1.44,3.57-2.73,4.74-1.98,1.83-3.38,4.04-4.98,6.1-3.87,4.99-7.66,10.05-11.5,15.07-.22.3-.54.54-.84.77-2.69,2.09-4.13,5.22-6.33,7.73-1.1,1.25-2.19,2.53-3.22,3.85-1.88,2.4-3.95,4.63-5.92,6.93-2.44,2.84-5.16,5.46-7.36,8.42-1.96,2.65-4.35,4.84-6.42,7.35-2.26,2.72-4.58,5.39-6.97,7.98-4.01,4.33-8.25,8.45-12.09,12.91-2.37,2.76-5.7,4.24-8.06,6.93-1.24,1.41-2.61,2.7-3.96,4.02-2.97,2.91-6.48,4.63-10.69,5.05-1.48.15-2.88,1.12-4.36,1.57-1.76.54-3.58.9-5.37,1.36-1.6.42-3.45.48-4.76,1.34-2.89,1.92-6.35,1.79-9.44,3.05-2.4.98-5.12,1.61-7.75,2.21-4.08.93-8.23,1.68-12.21,2.94-3.38,1.07-6.75,2-10.23,2.59-.28.05-.59.19-.78.4-1.96,2.03-4.77,1.62-7.15,2.45-3.12,1.09-6.32,1.94-9.52,2.78-2.74.72-5.53,1.24-8.28,1.93-1.09.28-2.09.89-3.17,1.17-3.6.95-7.23,1.76-10.82,2.73-1.69.46-3.35,1.08-4.98,1.73-1.57.62-3.11,1.21-4.84,1-.37-.04-.88.01-1.15.24-2.03,1.73-4.73,1.57-7.61,3.11h-.03Z"/><path class="cls-1" d="m64.08,148.18c1.28,0,2.56.02,3.84,0,2.25-.02,4.33-.6,6.25-1.8,4.27-2.67,4.46-7.59,1.81-10.91-.43-.53-.86-1.06-1.33-1.62,4.2-1.75,10.44.05,12.7,3.53,1.51,2.33,1.44,4.7.3,7.13-3.49,7.41-16.32,10.46-22.78,5.4-.38-.3-.66-.72-.99-1.09.07-.21.13-.42.19-.64h0Z"/><path class="cls-1" d="m271.87,226.24c.04,2.12-.55,3.9-2.72,4.75-.45.17-.97.35-1.43.28-4.28-.63-7.51-2.91-9.05-6.89-.66-1.71-.5-3.99-.02-5.84.58-2.23,3.86-3.23,6.33-2.26,3.61,1.42,7.2,6.59,6.88,9.96h0Z"/><path class="cls-1" d="m202.51,253.73c-3.05-3.96-.81-8.05,2.2-10.65,1.36-1.18,3.9-.56,5,.8,2.07,2.55.92,5.03-.33,7.15-1.44,2.44-3.81,3.76-6.86,2.7h0Z"/><path class="cls-1" d="m284.82,251.65c0-1.15-.04-1.86,0-2.56.1-1.67,1.36-3.39,3.02-3.4,1.18,0,2.68.17,3.4,1.6,1.25,2.5,2.64,4.87,1.56,7.95-.89,2.55-3.33,3.56-5.48,1.88-1.94-1.52-3.14-3.34-2.51-5.49h0Z"/><path class="cls-1" d="m211.38,328.61c0-.69-.09-1.41.02-2.09.31-1.9,2.65-2.83,4.16-1.69,1.38,1.05,2.53,6.18,1.75,7.81-.73,1.5-2.64,1.93-4.05.91-1.77-1.28-1.92-1.66-1.88-4.93h-.01Z"/><path class="cls-1" d="m240.26,338.72c3.75-.36,4.29.11,4.31,3.7,0,.69.02,1.4,0,2.09-.1,1.97-1.07,2.88-2.99,2.85-1.79-.03-2.62-.84-2.7-2.77-.08-1.98-.24-3.99,1.38-5.86h0Z"/><path class="cls-1" d="m227.58,369.3c-1.85-1.53-3.17-2.72-3.02-4.94.1-1.4.25-2.61,1.74-3.11.72-.25,2.9,1.34,3.08,2.41.19,1.17.27,2.44,0,3.57-.17.72-1.07,1.27-1.81,2.07Z"/><path class="cls-1" d="m201.29,287.49c-1.09.49-2.04.93-2.97,1.36-2.69-1.74-3.35-2.88-2.65-4.58.49-1.2,2-1.74,3.85-1.36,1.6.32,1.94,1.15,1.77,4.58h0Z"/><path class="cls-1" d="m262.6,306.71c.98-.3,1.98-.6,3.2-.98,1.03,1.21,3.16,1.99,2.2,4.39-.42,1.05-2.6,1.63-4.02,1.23-1.5-.42-1.79-1.38-1.39-4.64h0Z"/><path class="cls-2" d="m626.16,353.41c0-2.22-1.25-4.26-3.76-6.13-2.5-1.85-5.59-3.74-9.29-5.67-3.8-1.94-7.88-4.08-12.23-6.39-4.44-2.32-8.56-5-12.35-8.06-3.8-2.96-6.94-6.47-9.43-10.54-2.5-3.99-3.74-8.71-3.74-14.16,0-2.68.69-5.74,2.07-9.17,1.38-3.33,3.55-6.47,6.51-9.43,2.96-2.96,6.76-5.46,11.39-7.5,4.54-1.94,9.99-2.92,16.38-2.92,8.52,0,16.25,1.63,23.19,4.87,6.95,3.33,13.75,8.98,20.41,16.94l-11.94,12.06c-1.29-1.94-2.91-4.07-4.85-6.37-1.95-2.22-4.13-4.3-6.54-6.25-2.4-1.85-4.99-3.43-7.77-4.73-2.87-1.3-5.83-1.95-8.88-1.95-3.62,0-6.36.75-8.2,2.24-1.85,1.48-2.77,3.15-2.77,4.99,0,2.22,1.25,4.26,3.76,6.1,2.49,1.85,5.63,3.75,9.43,5.69,3.79,1.95,7.91,4.07,12.35,6.37,4.34,2.32,8.41,4.96,12.21,7.91,3.79,3.06,6.95,6.58,9.46,10.57,2.49,4.07,3.74,8.83,3.74,14.28,0,2.69-.69,5.69-2.07,9.02-1.4,3.43-3.58,6.62-6.54,9.58-2.96,2.98-6.71,5.43-11.24,7.36-4.63,2.04-10.15,3.06-16.53,3.06-4.25,0-8.27-.37-12.06-1.11-3.9-.74-7.6-1.98-11.12-3.74-3.51-1.77-6.92-4.04-10.25-6.8-3.43-2.68-6.8-6.06-10.13-10.13l11.92-12.09c1.3,1.95,2.93,4.03,4.87,6.25,1.94,2.32,4.11,4.4,6.51,6.25,2.41,1.95,5.05,3.56,7.91,4.85,2.78,1.3,5.7,1.95,8.76,1.95,3.6,0,6.33-.74,8.18-2.22,1.77-1.48,2.65-3.14,2.65-4.99Z"/><path class="cls-2" d="m710.14,270.1c7.78,0,14.58,1.53,20.41,4.58,5.74,3.15,10.55,7.27,14.43,12.35,3.89,5.1,6.81,10.88,8.76,17.35,1.94,6.48,2.92,13.1,2.92,19.86s-.98,13.52-2.92,20c-1.95,6.48-4.87,12.27-8.76,17.35-3.88,5.1-8.69,9.17-14.43,12.21-5.83,3.15-12.63,4.73-20.41,4.73s-14.52-1.58-20.27-4.73c-5.83-3.04-10.68-7.11-14.57-12.21-3.9-5.08-6.82-10.86-8.76-17.35-1.93-6.48-2.9-13.15-2.9-20s.97-13.37,2.9-19.86c1.94-6.47,4.86-12.24,8.76-17.35,3.89-5.08,8.75-9.2,14.57-12.35,5.74-3.05,12.5-4.58,20.27-4.58Zm0,92.89c1.94,0,3.84-.74,5.69-2.22,1.85-1.48,3.51-3.79,4.99-6.95,1.48-3.15,2.68-7.18,3.62-12.09.83-4.81,1.25-10.64,1.25-17.49s-.42-12.58-1.25-17.49c-.93-4.9-2.14-8.93-3.62-12.06-1.48-3.15-3.15-5.46-4.99-6.95-1.85-1.48-3.75-2.22-5.69-2.22s-3.85.74-5.69,2.22c-1.85,1.48-3.52,3.8-4.99,6.95-1.48,3.14-2.64,7.16-3.47,12.06-.92,4.91-1.38,10.74-1.38,17.49s.46,12.68,1.38,17.49c.83,4.91,1.99,8.94,3.47,12.09,1.48,3.15,3.14,5.47,4.99,6.95,1.85,1.48,3.75,2.22,5.69,2.22Z"/><path class="cls-2" d="m815.8,360.62c2.67,0,5.16-.55,7.48-1.66,2.22-1.11,4.11-2.36,5.69-3.76,1.85-1.56,3.51-3.36,4.99-5.4l10.98,10.83c-2.32,2.77-5.05,5.22-8.2,7.36-2.67,1.85-6.05,3.52-10.13,4.99-4.17,1.48-8.98,2.22-14.43,2.22-7.87,0-14.76-1.48-20.68-4.44-5.94-2.88-10.85-6.67-14.72-11.39-3.99-4.71-6.96-10.12-8.9-16.24-1.93-6.01-2.9-12.21-2.9-18.6s1.01-12.63,3.04-18.75c1.94-6.11,4.9-11.57,8.88-16.38,3.89-4.81,8.79-8.69,14.72-11.65,5.84-2.88,12.69-4.32,20.56-4.32,5.45,0,10.26.74,14.43,2.22,4.08,1.58,7.46,3.29,10.13,5.14,3.15,2.14,5.89,4.55,8.2,7.21l-10.98,10.83c-1.48-1.94-3.15-3.75-4.99-5.4-1.58-1.3-3.47-2.55-5.69-3.74-2.32-1.12-4.81-1.69-7.48-1.69-3.62,0-6.77,1.03-9.46,3.06-2.77,2.12-5.04,4.9-6.8,8.32-1.85,3.43-3.23,7.27-4.15,11.53-.93,4.34-1.4,8.78-1.4,13.32s.46,8.99,1.4,13.34c.92,4.34,2.3,8.23,4.15,11.65,1.77,3.43,4.04,6.15,6.8,8.18,2.68,2.14,5.84,3.21,9.46,3.21Z"/><path class="cls-2" d="m904.1,353.41c0-2.22-1.25-4.26-3.76-6.13-2.5-1.85-5.59-3.74-9.29-5.67-3.8-1.94-7.88-4.08-12.23-6.39-4.44-2.32-8.56-5-12.35-8.06-3.8-2.96-6.94-6.47-9.43-10.54-2.5-3.99-3.74-8.71-3.74-14.16,0-2.68.69-5.74,2.07-9.17,1.38-3.33,3.55-6.47,6.51-9.43,2.96-2.96,6.76-5.46,11.39-7.5,4.54-1.94,9.99-2.92,16.38-2.92,8.52,0,16.25,1.63,23.19,4.87,6.95,3.33,13.75,8.98,20.41,16.94l-11.94,12.06c-1.29-1.94-2.91-4.07-4.85-6.37-1.95-2.22-4.13-4.3-6.54-6.25-2.4-1.85-4.99-3.43-7.77-4.73-2.87-1.3-5.83-1.95-8.88-1.95-3.62,0-6.36.75-8.2,2.24-1.85,1.48-2.77,3.15-2.77,4.99,0,2.22,1.25,4.26,3.76,6.1,2.49,1.85,5.63,3.75,9.43,5.69,3.79,1.95,7.91,4.07,12.35,6.37,4.34,2.32,8.41,4.96,12.21,7.91,3.79,3.06,6.95,6.58,9.46,10.57,2.49,4.07,3.74,8.83,3.74,14.28,0,2.69-.69,5.69-2.07,9.02-1.4,3.43-3.58,6.62-6.54,9.58-2.96,2.98-6.71,5.43-11.24,7.36-4.63,2.04-10.15,3.06-16.53,3.06-4.25,0-8.27-.37-12.06-1.11-3.9-.74-7.6-1.98-11.12-3.74-3.51-1.77-6.92-4.04-10.25-6.8-3.43-2.68-6.8-6.06-10.13-10.13l11.92-12.09c1.3,1.95,2.93,4.03,4.87,6.25,1.94,2.32,4.11,4.4,6.51,6.25,2.41,1.95,5.05,3.56,7.91,4.85,2.78,1.3,5.7,1.95,8.76,1.95,3.6,0,6.33-.74,8.18-2.22,1.77-1.48,2.65-3.14,2.65-4.99Z"/><path class="cls-2" d="m602.42,454.99c1.53,0,2.95-.31,4.27-.94,1.25-.64,2.33-1.36,3.23-2.15,1.04-.88,1.98-1.91,2.82-3.06l6.22,6.15c-1.3,1.58-2.85,2.97-4.63,4.17-1.53,1.05-3.45,2-5.77,2.85-2.36.84-5.1,1.25-8.2,1.25-4.48,0-8.39-.84-11.75-2.53-3.37-1.62-6.15-3.78-8.35-6.47-2.27-2.67-3.95-5.74-5.04-9.22-1.11-3.41-1.66-6.93-1.66-10.57s.58-7.17,1.74-10.64c1.11-3.47,2.79-6.57,5.04-9.31,2.2-2.73,4.98-4.93,8.35-6.61,3.31-1.62,7.2-2.44,11.68-2.44,3.1,0,5.84.42,8.2,1.25,2.32.89,4.23,1.86,5.77,2.92,1.79,1.21,3.33,2.58,4.63,4.1l-6.22,6.15c-.84-1.11-1.78-2.14-2.82-3.09-.9-.74-1.98-1.45-3.23-2.12-1.32-.63-2.74-.94-4.27-.94-2.04,0-3.83.58-5.36,1.74-1.58,1.21-2.87,2.79-3.86,4.73-1.06,1.95-1.85,4.13-2.36,6.54-.53,2.48-.8,5.01-.8,7.58s.27,5.09.8,7.55c.51,2.48,1.3,4.69,2.36,6.63,1,1.95,2.28,3.5,3.86,4.66,1.53,1.21,3.31,1.81,5.36,1.81Z"/><path class="cls-2" d="m650.12,403.58c4.4,0,8.26.87,11.58,2.61,3.26,1.79,6,4.13,8.2,7.02,2.2,2.9,3.86,6.18,4.97,9.84,1.11,3.69,1.66,7.45,1.66,11.29s-.55,7.66-1.66,11.34c-1.11,3.69-2.77,6.97-4.97,9.87-2.21,2.88-4.94,5.19-8.2,6.92-3.32,1.79-7.18,2.68-11.58,2.68s-8.26-.89-11.51-2.68c-3.32-1.74-6.07-4.04-8.28-6.92-2.22-2.9-3.88-6.18-4.97-9.87-1.11-3.68-1.66-7.46-1.66-11.34s.55-7.61,1.66-11.29c1.09-3.67,2.75-6.95,4.97-9.84,2.2-2.9,4.96-5.24,8.28-7.02,3.25-1.74,7.08-2.61,11.51-2.61Zm0,52.74c1.09,0,2.17-.42,3.23-1.25,1.04-.83,1.98-2.15,2.82-3.93.85-1.79,1.53-4.08,2.05-6.88.48-2.73.72-6.04.72-9.92s-.24-7.15-.72-9.94c-.52-2.78-1.2-5.07-2.05-6.85-.84-1.8-1.78-3.12-2.82-3.96-1.06-.83-2.14-1.25-3.23-1.25s-2.19.42-3.23,1.25c-1.06.84-2.01,2.16-2.85,3.96-.84,1.79-1.5,4.07-1.98,6.85-.52,2.79-.77,6.1-.77,9.94s.25,7.18.77,9.92c.48,2.8,1.14,5.09,1.98,6.88.83,1.79,1.79,3.1,2.85,3.93,1.04.84,2.12,1.25,3.23,1.25Z"/><path class="cls-2" d="m682.82,405.48h18.63l18.53,34.67v-34.67h12.38v57.78h-18.53l-18.63-34.69v34.69h-12.38v-57.78Z"/><path class="cls-2" d="m740.21,405.48h18.63l18.53,34.67v-34.67h12.38v57.78h-18.53l-18.63-34.69v34.69h-12.38v-57.78Z"/><path class="cls-2" d="m834.76,450.89l-2.05,12.38h-35.1v-57.78h33.05l2.05,12.38h-18.63v10.33h16.58v12.38h-16.58v10.33h20.68Z"/><path class="cls-2" d="m869.91,454.99c1.53,0,2.95-.31,4.27-.94,1.25-.64,2.33-1.36,3.23-2.15,1.04-.88,1.98-1.91,2.82-3.06l6.22,6.15c-1.3,1.58-2.85,2.97-4.63,4.17-1.53,1.05-3.45,2-5.77,2.85-2.36.84-5.1,1.25-8.2,1.25-4.48,0-8.39-.84-11.75-2.53-3.37-1.62-6.15-3.78-8.35-6.47-2.27-2.67-3.95-5.74-5.04-9.22-1.11-3.41-1.66-6.93-1.66-10.57s.58-7.17,1.74-10.64c1.11-3.47,2.79-6.57,5.04-9.31,2.2-2.73,4.98-4.93,8.35-6.61,3.31-1.62,7.2-2.44,11.68-2.44,3.1,0,5.84.42,8.2,1.25,2.32.89,4.23,1.86,5.77,2.92,1.79,1.21,3.33,2.58,4.63,4.1l-6.22,6.15c-.84-1.11-1.78-2.14-2.82-3.09-.9-.74-1.98-1.45-3.23-2.12-1.32-.63-2.74-.94-4.27-.94-2.04,0-3.83.58-5.36,1.74-1.58,1.21-2.87,2.79-3.86,4.73-1.06,1.95-1.85,4.13-2.36,6.54-.53,2.48-.8,5.01-.8,7.58s.27,5.09.8,7.55c.51,2.48,1.3,4.69,2.36,6.63,1,1.95,2.28,3.5,3.86,4.66,1.53,1.21,3.31,1.81,5.36,1.81Z"/><path class="cls-2" d="m921.4,417.86v45.41h-16.58v-45.41h-14.43l2.05-12.38h41.33l2.05,12.38h-14.43Z"/></svg>