<svg xmlns="http://www.w3.org/2000/svg" xmlns:xlink="http://www.w3.org/1999/xlink" width="1080" zoomAndPan="magnify" viewBox="0 0 810 809.999993" height="1080" preserveAspectRatio="xMidYMid meet" version="1.0"><defs><clipPath id="4b12697740"><path d="M 71.5 127 L 556 127 L 556 478 L 71.5 478 Z M 71.5 127 " clip-rule="nonzero"/></clipPath><clipPath id="8365ab1892"><path d="M 259 226 L 756.25 226 L 756.25 781.722656 L 259 781.722656 Z M 259 226 " clip-rule="nonzero"/></clipPath><clipPath id="4a980431de"><path d="M 53.667969 119 L 538 119 L 538 470 L 53.667969 470 Z M 53.667969 119 " clip-rule="nonzero"/></clipPath><clipPath id="b0581ee621"><path d="M 241 218 L 738.417969 218 L 738.417969 773 L 241 773 Z M 241 218 " clip-rule="nonzero"/></clipPath><clipPath id="69dd0861d1"><path d="M 299 28.648438 L 627 28.648438 L 627 206 L 299 206 Z M 299 28.648438 " clip-rule="nonzero"/></clipPath></defs><g clip-path="url(#4b12697740)"><path fill="#cd2222" d="M 78.789062 209.109375 C 81.546875 205.269531 84.011719 201.878906 86.441406 198.464844 C 88.582031 195.445312 91.027344 192.574219 92.722656 189.320312 C 94.859375 185.207031 93.070312 181.230469 88.304688 178.917969 C 84.222656 176.933594 80.015625 175.179688 75.796875 173.511719 C 70.542969 171.4375 70.257812 169.535156 74.121094 165.554688 C 79.773438 159.734375 86.078125 155.488281 94.316406 154.136719 C 96.203125 153.828125 98.355469 151.738281 99.359375 149.90625 C 107.441406 135.023438 120.886719 130.105469 136.671875 129.09375 C 141.347656 128.792969 145.976562 127.453125 150.636719 127.410156 C 169.285156 127.265625 186.203125 132.609375 201.226562 143.863281 C 209.324219 149.933594 215.621094 157.359375 219.800781 166.574219 C 222.996094 173.625 225.195312 181.058594 225.0625 188.734375 C 224.917969 197.550781 223.617188 206.351562 222.996094 215.167969 C 222.898438 216.59375 223.308594 218.363281 224.144531 219.480469 C 227.585938 224.035156 231.375 228.328125 234.824219 232.882812 C 235.921875 234.332031 237.003906 236.25 237.019531 237.964844 C 237.15625 251.757812 235.042969 265.316406 231.789062 278.65625 C 226.925781 298.582031 228.828125 317.582031 237.769531 336.101562 C 242.769531 346.46875 248.601562 356.570312 250.203125 368.332031 C 250.910156 373.511719 251.773438 378.816406 253.59375 383.679688 C 259.183594 398.578125 276.261719 407.324219 291.113281 398.585938 C 292.871094 397.554688 294.585938 395.855469 295.457031 394.050781 C 298.382812 387.980469 300.597656 381.546875 303.6875 375.570312 C 308.550781 366.144531 312.472656 356.1875 320.539062 348.585938 C 328.289062 341.28125 334.714844 332.902344 339.035156 322.875 C 343.570312 312.335938 349.460938 302.378906 353.949219 291.824219 C 356.25 286.421875 357.414062 280.332031 357.992188 274.441406 C 359.8125 255.828125 355.542969 239 341.847656 225.375 C 341.570312 225.097656 341.5 224.609375 341.125 223.757812 C 342.554688 222.9375 343.921875 221.945312 345.441406 221.316406 C 359.285156 215.609375 373.113281 209.867188 387.035156 204.34375 C 395.714844 200.894531 404.464844 197.59375 413.332031 194.671875 C 416.988281 193.46875 421.046875 193.445312 426.195312 192.703125 C 416.4375 209.34375 407.320312 224.894531 397.894531 240.957031 C 411.222656 247.765625 424.105469 240.699219 438.113281 240.878906 C 436.332031 245.570312 434.816406 249.976562 433.003906 254.265625 C 426.613281 269.367188 416.875 282.203125 405.179688 293.492188 C 399.332031 299.136719 392.730469 304 386.394531 309.132812 C 383.585938 311.410156 382.320312 313.304688 384.035156 317.453125 C 389.628906 330.976562 397.886719 341.859375 411.65625 347.59375 C 416.707031 349.699219 422.269531 350.511719 427.507812 352.21875 C 438.046875 355.660156 448.898438 354.3125 459.566406 354.027344 C 468.914062 353.78125 478.207031 351.878906 487.527344 350.714844 C 496.597656 349.578125 505.664062 348.488281 514.726562 347.308594 C 522.054688 346.347656 529.375 345.28125 536.695312 344.265625 C 537.792969 344.113281 538.890625 343.957031 540.949219 344.6875 C 538.929688 347.761719 537.441406 351.449219 534.78125 353.773438 C 529 358.824219 522.769531 363.410156 516.433594 367.761719 C 510.308594 371.976562 503.789062 375.601562 497.515625 379.605469 C 494.757812 381.363281 493.441406 383.125 496.5 386.347656 C 502.492188 392.660156 508.351562 399.171875 513.621094 406.101562 C 523.03125 418.472656 532.15625 431.0625 540.996094 443.839844 C 545.679688 450.617188 549.550781 457.953125 553.726562 465.078125 C 554.683594 466.71875 555.359375 468.539062 555.449219 470.859375 C 552.050781 468.898438 548.796875 466.636719 545.242188 465.027344 C 528.503906 457.464844 511.78125 449.84375 494.855469 442.710938 C 484.136719 438.1875 473.066406 434.496094 462.152344 430.421875 C 452.785156 426.921875 443.625 422.589844 433.988281 420.109375 C 422.324219 417.105469 410.328125 414.910156 398.339844 413.757812 C 383.929688 412.375 369.363281 411.859375 354.878906 412.054688 C 334.269531 412.332031 313.894531 415.082031 294.015625 420.847656 C 291.722656 421.515625 289.558594 422.613281 287.113281 423.605469 C 290.738281 432.804688 297.808594 438.414062 305.144531 443.667969 C 310.023438 447.160156 315.308594 450.078125 320.269531 453.453125 C 321.109375 454.023438 321.953125 456.023438 321.578125 456.707031 C 315.546875 467.761719 306.964844 475.84375 294.007812 477.472656 C 284.835938 478.625 275.707031 477.128906 266.964844 474.070312 C 258.882812 471.234375 250.894531 468.117188 242.882812 465.058594 C 240.085938 463.996094 237.996094 463.976562 235.074219 465.898438 C 227.128906 471.121094 218.183594 474.4375 208.667969 475.453125 C 200.792969 476.292969 192.832031 476.878906 184.933594 476.617188 C 180.679688 476.480469 176.386719 474.617188 172.320312 473.015625 C 169.496094 471.910156 169.253906 469.0625 170.773438 466.800781 C 173.757812 462.335938 176.90625 457.933594 180.445312 453.894531 C 184.023438 449.800781 184.5625 448.46875 179.917969 444.734375 C 176.851562 442.277344 173.191406 440.425781 169.570312 438.824219 C 162.933594 435.886719 156.949219 432.195312 151.988281 426.792969 C 149.792969 424.402344 148.367188 421.734375 150.484375 419.164062 C 151.972656 417.351562 154.777344 415.625 157.003906 415.609375 C 164.03125 415.5625 169.90625 413.625 174.558594 407.703125 C 169.109375 398.050781 160.984375 390.84375 152.304688 384.109375 C 137.753906 372.820312 122.390625 362.394531 108.929688 349.925781 C 90.65625 332.992188 81.570312 311.222656 81.765625 285.992188 C 81.8125 279.363281 81.375 272.621094 82.433594 266.140625 C 83.335938 260.609375 85.921875 255.3125 88.003906 250.019531 C 91.039062 242.324219 94.347656 234.746094 97.382812 227.058594 C 97.761719 226.089844 97.585938 224.523438 97.03125 223.609375 C 92.933594 216.859375 87.574219 211.515625 78.789062 209.117188 Z M 139.292969 157.742188 C 143.375 167.238281 142.707031 168.207031 130.019531 172.476562 C 135.761719 177.039062 145.617188 175.4375 149.652344 169.289062 C 152.351562 165.175781 151.238281 160.878906 146.683594 159.082031 C 144.527344 158.238281 142.058594 158.210938 139.292969 157.742188 Z M 139.292969 157.742188 " fill-opacity="1" fill-rule="nonzero"/></g><g clip-path="url(#8365ab1892)"><path fill="#cd2222" d="M 504.65625 575.875 C 505.355469 584.082031 505.859375 592.101562 506.910156 600.046875 C 507.046875 601.121094 509.796875 602.234375 511.496094 602.648438 C 519.433594 604.558594 527.746094 605.382812 535.320312 608.21875 C 542.453125 610.894531 549.105469 615.199219 555.425781 619.574219 C 558.367188 621.613281 560.019531 625.527344 563.039062 629.652344 C 570.0625 630.136719 578.660156 630.871094 587.265625 631.292969 C 601.667969 632 616.097656 632.316406 630.492188 633.125 C 656 634.5625 681.324219 637.289062 705.238281 647.089844 C 722.082031 653.992188 737.671875 662.949219 748.125 678.554688 C 760.949219 697.71875 758.355469 727.589844 742.871094 743.027344 C 740.046875 745.839844 735.933594 747.539062 735.199219 752.273438 C 735.054688 753.234375 733.109375 754.175781 731.816406 754.65625 C 714.859375 760.9375 697.984375 767.46875 680.847656 773.210938 C 670.964844 776.527344 660.75 779.195312 650.46875 780.871094 C 644.882812 781.789062 638.609375 780.886719 633.0625 779.324219 C 615.324219 774.324219 610.519531 757.863281 622.191406 743.523438 C 629.867188 734.097656 640.15625 728.402344 651.003906 723.53125 C 666.09375 716.757812 681.832031 712.984375 698.414062 714.59375 C 712.664062 715.976562 724.210938 722.320312 731.605469 735.472656 C 737.867188 731.136719 740.992188 724.90625 742.367188 718.148438 C 745.9375 700.570312 742.160156 685.476562 726.878906 674.164062 C 710.3125 661.898438 691.460938 656.058594 671.542969 652.636719 C 644.207031 647.933594 616.5625 646.679688 588.964844 644.738281 C 577.472656 643.933594 566.015625 642.613281 554.539062 641.640625 C 553.050781 641.507812 551.269531 641.621094 550.015625 642.332031 C 540.167969 647.84375 529.234375 649 518.371094 650.007812 C 492.539062 652.390625 466.832031 650.128906 441.105469 647.714844 C 421.429688 645.859375 401.902344 643.378906 382.886719 637.875 C 379.535156 636.90625 376.195312 635.140625 373.453125 632.984375 C 369.078125 629.527344 368.996094 625.136719 372.792969 621.011719 C 380.269531 612.90625 390.019531 608.773438 400.554688 607.300781 C 413.777344 605.453125 427.164062 604.804688 440.480469 603.648438 C 441.601562 603.550781 442.722656 603.476562 444.398438 603.355469 C 444.398438 593.140625 444.480469 583.089844 444.253906 573.035156 C 444.234375 572.183594 442.1875 570.75 440.984375 570.636719 C 427.214844 569.292969 413.429688 568.1875 399.648438 566.945312 C 378.84375 565.058594 358.066406 562.828125 337.238281 561.285156 C 322.449219 560.183594 307.589844 560.0625 292.773438 559.332031 C 286.617188 559.03125 280.320312 558.964844 274.367188 557.605469 C 264.6875 555.394531 259.734375 549.132812 259.53125 537.972656 C 259.28125 524.007812 260.167969 510.027344 260.582031 496.054688 C 260.589844 495.65625 260.875 495.273438 261.167969 494.511719 C 264.175781 495.289062 267.308594 495.769531 270.097656 497.023438 C 271.066406 497.460938 271.585938 499.804688 271.609375 501.292969 C 271.765625 511.085938 271.894531 520.886719 271.714844 530.679688 C 271.503906 542.066406 279.011719 545.839844 288.210938 546.464844 C 293.667969 546.839844 299.1875 546.238281 304.648438 546.554688 C 319.75 547.417969 334.84375 548.410156 349.933594 549.570312 C 364.726562 550.710938 379.503906 552.125 394.28125 553.425781 C 409.5 554.769531 424.714844 556.136719 439.933594 557.460938 C 454.574219 558.738281 469.222656 559.988281 483.867188 561.21875 C 500.09375 562.585938 516.328125 563.949219 532.5625 565.253906 C 548.511719 566.539062 564.460938 567.796875 580.417969 568.976562 C 598.246094 570.292969 616.066406 571.773438 633.910156 572.667969 C 642.5 573.101562 651.144531 572.34375 660.390625 572.109375 C 660.035156 566.707031 659.820312 562.007812 659.398438 557.332031 C 654.738281 506.058594 657.660156 454.65625 656.910156 403.3125 C 656.472656 373.300781 657.339844 343.265625 656.578125 313.261719 C 656.226562 299.421875 656.683594 286.050781 660.984375 272.808594 C 662.382812 268.503906 662.699219 263.738281 662.824219 259.167969 C 663.058594 250.515625 659.5625 247 650.84375 247.472656 C 640.636719 248.019531 630.460938 249.898438 620.277344 249.855469 C 613.367188 249.824219 606.679688 250.546875 599.914062 251.433594 C 598.765625 251.589844 597.464844 250.523438 595.78125 249.839844 C 589.308594 255.933594 582.5 262.699219 575.292969 269.027344 C 566.820312 276.46875 558.238281 283.851562 549.1875 290.5625 C 546.398438 292.636719 541.957031 292.976562 538.214844 293.199219 C 524.460938 294.019531 510.691406 294.386719 496.929688 295.050781 C 480.902344 295.824219 464.878906 296.671875 448.855469 297.605469 C 441.054688 298.0625 433.265625 298.792969 425.472656 299.394531 C 425.441406 299.875 425.417969 300.355469 425.382812 300.828125 C 457.386719 303.535156 489.390625 306.242188 521.394531 308.953125 C 521.507812 309.5625 521.632812 310.179688 521.746094 310.789062 C 519.25 312.449219 516.785156 314.15625 514.238281 315.742188 C 496.042969 327.105469 477.355469 337.449219 457.347656 345.371094 C 451.6875 347.617188 446.757812 345.28125 441.691406 344.199219 C 433.09375 342.363281 424.75 339.257812 416.113281 337.703125 C 409.847656 336.570312 408.449219 331.425781 405.457031 327.550781 C 404.058594 325.738281 403.570312 323.21875 402.21875 319.933594 C 409.710938 321.28125 416.242188 322.535156 422.796875 323.632812 C 432.46875 325.257812 442.113281 327.488281 451.855469 328.03125 C 456.347656 328.285156 461.023438 325.144531 465.609375 323.550781 C 465.535156 322.769531 465.464844 321.996094 465.398438 321.21875 C 444.15625 318.214844 422.902344 315.222656 400.519531 312.058594 C 405.035156 308.246094 408.515625 305.355469 411.929688 302.398438 C 416.234375 298.679688 421.105469 295.402344 424.609375 291.035156 C 429.484375 284.960938 435.980469 284.730469 442.59375 284.089844 C 457.226562 282.664062 471.855469 281.257812 486.496094 279.898438 C 490.636719 279.519531 494.800781 279.386719 498.949219 279.023438 C 512.449219 277.851562 525.949219 276.664062 539.433594 275.378906 C 540.792969 275.25 542.363281 274.71875 543.371094 273.839844 C 550.464844 267.699219 557.441406 261.421875 564.4375 255.167969 C 564.695312 254.929688 564.730469 254.433594 565.128906 253.363281 C 523.882812 259.65625 483.089844 265.878906 441.765625 272.183594 C 444.855469 266.960938 447.375 261.992188 450.644531 257.574219 C 451.734375 256.101562 454.703125 255.800781 456.898438 255.394531 C 468.9375 253.175781 481 251.09375 493.042969 248.945312 C 504.089844 246.976562 515.132812 245.007812 526.167969 242.976562 C 545.445312 239.4375 564.703125 235.820312 583.988281 232.296875 C 594.058594 230.457031 604.160156 228.734375 614.25 227.011719 C 614.878906 226.90625 615.578125 227.238281 617.328125 227.570312 C 613.398438 231.769531 609.988281 235.421875 605.621094 240.082031 C 612.257812 239.210938 617.675781 238.398438 623.109375 237.820312 C 633.535156 236.707031 643.980469 235.730469 654.414062 234.695312 C 654.558594 234.679688 654.707031 234.671875 654.84375 234.703125 C 662.570312 236.582031 670.46875 237.941406 677.957031 240.496094 C 685.78125 243.164062 688.898438 250.378906 691.144531 257.65625 C 695.054688 270.359375 695.804688 283.550781 694.746094 296.621094 C 692.957031 318.574219 690.132812 340.433594 687.929688 362.347656 C 687.253906 369.082031 686.734375 375.886719 686.90625 382.648438 C 687.824219 418.253906 688.972656 453.859375 690.078125 489.460938 C 690.695312 509.5 691.460938 529.539062 691.957031 549.578125 C 692.054688 553.425781 691.550781 557.378906 690.703125 561.144531 C 687.378906 575.972656 677.632812 584.957031 662.398438 585.757812 C 651.242188 586.339844 639.992188 585.414062 628.792969 584.84375 C 617.285156 584.269531 605.792969 583.339844 594.300781 582.511719 C 575.75 581.167969 557.207031 579.777344 538.664062 578.394531 C 527.488281 577.566406 516.320312 576.726562 504.675781 575.859375 Z M 720.714844 743.480469 C 717.460938 734.398438 707.914062 727.875 696.910156 727.144531 C 677.84375 725.875 660.546875 731.347656 644.523438 741.195312 C 638.285156 745.027344 633.535156 750.484375 631.09375 757.570312 C 629.355469 762.613281 631.09375 766.132812 636.300781 766.621094 C 641.230469 767.085938 646.53125 767.214844 651.234375 765.914062 C 665.449219 761.992188 679.488281 757.421875 693.527344 752.890625 C 702.652344 749.949219 711.65625 746.621094 720.722656 743.472656 Z M 386.546875 626.324219 C 389.328125 627.089844 390.898438 627.683594 392.515625 627.941406 C 405.15625 629.976562 417.738281 632.921875 430.457031 633.726562 C 458.925781 635.53125 487.449219 636.6875 515.960938 637.164062 C 524.542969 637.3125 533.203125 634.472656 541.769531 632.726562 C 543.347656 632.398438 544.648438 630.707031 546.078125 629.640625 C 544.761719 628.300781 543.695312 626.382812 542.09375 625.707031 C 535.109375 622.746094 528.066406 619.859375 520.859375 617.515625 C 516.742188 616.183594 512.277344 615.929688 507.941406 615.183594 C 507.089844 623.582031 506.746094 623.972656 498.875 626.070312 C 497.207031 626.519531 495.554688 627.039062 493.863281 627.339844 C 480.175781 629.8125 467.035156 629.722656 455.160156 620.753906 C 450.667969 617.363281 445.246094 615.75 439.300781 616.253906 C 429.980469 617.042969 420.601562 617.191406 411.304688 618.148438 C 403.015625 619.011719 394.941406 621.019531 386.546875 626.316406 Z M 677.820312 259.582031 C 677.511719 259.664062 677.203125 259.753906 676.902344 259.835938 C 676.203125 263.339844 675.671875 266.886719 674.769531 270.34375 C 671.039062 284.625 669.117188 299.101562 669.484375 313.890625 C 669.851562 328.59375 670.167969 343.304688 670.28125 358.019531 C 670.800781 422.597656 667.34375 487.230469 672.957031 551.734375 C 673.324219 555.898438 673.625 560.070312 674.039062 565.195312 C 679.429688 557.65625 679.59375 550.011719 679.292969 542.414062 C 677.949219 508.847656 677.195312 475.234375 674.804688 441.734375 C 672.078125 403.410156 675.105469 365.46875 678.578125 327.398438 C 680.195312 309.644531 679.910156 291.703125 680.066406 273.839844 C 680.105469 269.097656 678.617188 264.339844 677.828125 259.59375 Z M 491.578125 574.589844 C 480.519531 573.71875 470.058594 572.816406 459.582031 572.222656 C 458.589844 572.164062 456.605469 574.035156 456.574219 575.0625 C 456.234375 585.332031 457.183594 595.492188 460.421875 605.324219 C 461.976562 610.042969 465.097656 613.285156 470.109375 614.15625 C 478.234375 615.570312 486.359375 615.394531 494.9375 613.824219 C 493.824219 600.792969 492.734375 588.050781 491.578125 574.589844 Z M 491.578125 574.589844 " fill-opacity="1" fill-rule="nonzero"/></g><path fill="#cd2222" d="M 545.28125 755.878906 C 535.855469 754.445312 527.046875 753.121094 518.246094 751.761719 C 487.691406 747.042969 457.207031 741.773438 426.554688 737.773438 C 403.71875 734.796875 380.667969 733.535156 357.714844 731.40625 C 331.183594 728.941406 304.613281 726.808594 278.15625 723.703125 C 248 720.164062 217.972656 715.570312 187.847656 711.722656 C 175.417969 710.136719 162.933594 709.023438 151.183594 704.355469 C 144.878906 701.855469 138.59375 699.171875 136.191406 691.820312 C 134.800781 687.566406 136.101562 684.152344 140.398438 682.972656 C 169.742188 674.917969 197.347656 662.28125 225.558594 651.210938 C 241.957031 644.777344 258.972656 639.890625 275.71875 634.34375 C 276.644531 634.035156 277.71875 633.894531 278.6875 634.003906 C 293.382812 635.675781 308.085938 637.273438 322.75 639.167969 C 340.441406 641.460938 358.074219 644.242188 375.78125 646.414062 C 395.640625 648.851562 415.519531 651.21875 435.445312 652.929688 C 459.859375 655.027344 484.339844 656.253906 508.773438 658.140625 C 528.730469 659.6875 548.707031 661.207031 568.585938 663.523438 C 589.867188 666.007812 611.105469 669.070312 632.257812 672.519531 C 649.695312 675.359375 666.980469 679.171875 684.351562 682.441406 C 687.777344 683.085938 690.140625 684.703125 691.613281 687.84375 C 693.460938 691.796875 692.550781 694.277344 688.507812 696.179688 C 664.839844 707.324219 641.203125 718.546875 617.503906 729.617188 C 595.722656 739.789062 573.472656 748.753906 550.1875 754.925781 C 548.398438 755.398438 546.542969 755.625 545.273438 755.851562 Z M 645.523438 688.039062 C 642.199219 690.542969 640.132812 692.902344 637.535156 693.917969 C 628.476562 697.480469 619.253906 700.628906 610.054688 703.839844 C 595.414062 708.957031 580.214844 712.558594 566.589844 720.425781 C 560.613281 723.875 554.417969 726.972656 548.195312 729.964844 C 546.21875 730.917969 543.769531 731.617188 541.628906 731.414062 C 530.179688 730.324219 518.703125 729.234375 507.324219 727.550781 C 479.421875 723.417969 451.644531 718.292969 423.324219 717.496094 C 420.65625 717.421875 417.714844 716.023438 415.460938 714.445312 C 411.296875 711.535156 411.808594 706.640625 416.40625 704.453125 C 420.8125 702.351562 425.359375 700.492188 429.996094 698.96875 C 448.472656 692.902344 466.601562 686.136719 482.632812 674.78125 C 484.535156 673.429688 486.40625 672.023438 488.285156 670.640625 C 484.558594 669.65625 480.902344 668.761719 477.980469 669.851562 C 472.839844 671.773438 468.300781 675.261719 463.234375 677.464844 C 440.804688 687.226562 418.453125 697.097656 398.585938 711.730469 C 396.851562 713 393.605469 713.242188 391.394531 712.675781 C 363.089844 705.433594 334.128906 702.945312 305.183594 700.230469 C 292.570312 699.050781 279.980469 697.59375 267.378906 696.21875 C 256.074219 694.992188 244.769531 693.730469 233.472656 692.429688 C 221.175781 691.015625 208.179688 691.550781 196.792969 687.542969 C 184.242188 683.125 173.605469 684.355469 162.398438 689.535156 C 160.527344 690.398438 158.550781 691.023438 155.695312 692.113281 C 157.304688 692.617188 157.8125 692.84375 158.332031 692.933594 C 166.5625 694.234375 174.800781 695.511719 183.03125 696.824219 C 205.609375 700.394531 228.136719 704.378906 250.789062 707.445312 C 272.332031 710.363281 293.992188 712.542969 315.632812 714.675781 C 337.855469 716.871094 360.132812 718.480469 382.359375 720.597656 C 402.722656 722.539062 423.140625 724.207031 443.382812 727.085938 C 472.5625 731.242188 501.597656 736.488281 530.722656 741.035156 C 536.457031 741.929688 542.703125 743.179688 548.105469 741.824219 C 560.175781 738.796875 572.21875 735.046875 583.636719 730.121094 C 607.515625 719.824219 630.980469 708.582031 654.609375 697.699219 C 658.210938 696.042969 661.757812 694.246094 666.425781 691.984375 C 658.164062 690.421875 651.152344 689.097656 645.515625 688.039062 Z M 546.894531 690.089844 C 554.59375 691.640625 561.589844 693.128906 568.617188 694.449219 C 578.359375 696.277344 587.890625 699.179688 597.96875 694.707031 C 606.386719 690.976562 615.414062 688.625 625.386719 685.25 C 623.359375 684.445312 622.652344 683.996094 621.90625 683.890625 C 603.523438 681.304688 585.136719 678.726562 566.738281 676.261719 C 565.46875 676.089844 563.792969 676.464844 562.800781 677.222656 C 557.6875 681.167969 552.734375 685.320312 546.886719 690.082031 Z M 564.003906 707.582031 C 563.90625 707.167969 563.808594 706.753906 563.710938 706.332031 C 555.824219 704.875 547.933594 703.378906 540.027344 701.972656 C 536.644531 701.367188 532.539062 699.523438 529.96875 700.75 C 522.421875 704.355469 515.472656 709.21875 507.941406 713.796875 C 509 714.445312 509.34375 714.8125 509.722656 714.871094 C 519.84375 716.226562 529.96875 717.5625 540.09375 718.863281 C 540.785156 718.953125 541.613281 718.929688 542.207031 718.628906 C 549.496094 714.984375 556.75 711.273438 564.011719 707.582031 Z M 509.984375 696.945312 C 499.207031 695.699219 489.269531 694.496094 479.316406 693.457031 C 477.988281 693.316406 476.484375 693.796875 475.222656 694.351562 C 467.878906 697.585938 460.582031 700.929688 453.28125 704.257812 C 452.410156 704.65625 451.605469 705.191406 450.164062 706.011719 C 463.195312 707.898438 475.257812 709.664062 487.324219 711.378906 C 488.089844 711.488281 489.082031 711.519531 489.660156 711.128906 C 496.148438 706.679688 502.582031 702.140625 509.984375 696.953125 Z M 200.851562 675.253906 C 200.917969 675.5625 200.972656 675.871094 201.039062 676.1875 C 203.257812 676.554688 205.460938 677.097656 207.691406 677.253906 C 217.027344 677.898438 226.363281 678.464844 235.710938 678.960938 C 239.238281 679.148438 243.242188 680.148438 246.21875 678.878906 C 251.351562 676.691406 255.855469 673.015625 261.539062 669.375 C 259.042969 669.265625 257.660156 669.285156 256.296875 669.128906 C 248.738281 668.285156 241.175781 667.503906 233.652344 666.460938 C 231.644531 666.183594 229.359375 663.980469 227.871094 664.515625 C 218.753906 667.796875 209.839844 671.617188 200.851562 675.253906 Z M 495.847656 682.117188 C 505.707031 683.605469 515.785156 685.160156 525.875 686.625 C 526.789062 686.753906 527.96875 686.625 528.707031 686.136719 C 534.214844 682.558594 539.636719 678.855469 545.753906 674.75 C 544.003906 674.15625 543.128906 673.667969 542.222656 673.585938 C 531.171875 672.652344 520.109375 671.746094 509.050781 670.925781 C 508 670.84375 506.542969 670.976562 505.886719 671.625 C 502.476562 674.96875 499.265625 678.515625 495.855469 682.125 Z M 396.183594 660.792969 C 381.261719 658.855469 367.890625 657.125 355.878906 655.570312 C 351.707031 659.394531 348.386719 662.445312 344.824219 665.703125 C 346.019531 666.0625 347.046875 666.535156 348.109375 666.65625 C 357.121094 667.632812 366.140625 668.566406 375.167969 669.445312 C 378.292969 669.746094 381.96875 670.960938 384.464844 669.789062 C 388.457031 667.910156 391.679688 664.378906 396.183594 660.792969 Z M 367.867188 681.742188 C 355.292969 680.304688 343.621094 678.960938 331.949219 677.660156 C 330.980469 677.554688 329.703125 677.367188 329.039062 677.855469 C 324.710938 681.019531 320.515625 684.355469 315.820312 687.988281 C 327.777344 689.390625 338.878906 690.730469 349.988281 691.925781 C 351.460938 692.082031 353.292969 691.878906 354.488281 691.113281 C 358.820312 688.332031 362.953125 685.234375 367.867188 681.75 Z M 402.820312 672.585938 C 411.054688 674.464844 419.144531 676.328125 427.253906 678.132812 C 428.207031 678.34375 429.375 678.53125 430.214844 678.171875 C 437.738281 674.945312 445.203125 671.59375 453.53125 667.910156 C 451.953125 667.324219 451.449219 667.015625 450.914062 666.957031 C 438.632812 665.640625 426.359375 664.304688 414.0625 663.125 C 412.964844 663.019531 411.476562 663.582031 410.671875 664.355469 C 407.988281 666.917969 405.53125 669.714844 402.832031 672.601562 Z M 295.644531 686.589844 C 301.628906 682.273438 306.550781 678.710938 312.535156 674.382812 C 305.941406 673.332031 300.605469 672.4375 295.253906 671.667969 C 291.578125 671.136719 287.25 669.339844 284.320312 670.625 C 277.921875 673.441406 272.226562 677.855469 266.242188 681.613281 C 266.339844 682.0625 266.4375 682.515625 266.542969 682.964844 C 276.585938 684.214844 286.632812 685.46875 295.636719 686.589844 Z M 411.5 687.792969 C 405.960938 686.753906 401.652344 685.851562 397.316406 685.160156 C 394.078125 684.648438 390.175781 683.109375 387.652344 684.3125 C 382.140625 686.941406 377.316406 691.023438 371.589844 694.925781 C 378.886719 696.601562 385.148438 698.082031 391.425781 699.449219 C 392.3125 699.644531 393.519531 699.554688 394.25 699.089844 C 399.667969 695.652344 404.992188 692.082031 411.5 687.792969 Z M 302.289062 659.597656 C 309.527344 660.867188 316.292969 662.144531 323.101562 663.175781 C 324.523438 663.394531 326.394531 663.191406 327.5 662.402344 C 331.097656 659.855469 334.429688 656.945312 338.863281 653.367188 C 329.980469 652.464844 322.199219 651.660156 314.398438 650.910156 C 313.894531 650.863281 313.242188 651.066406 312.828125 651.375 C 309.445312 653.960938 306.109375 656.597656 302.28125 659.597656 Z M 253.976562 655.554688 C 254.019531 656.066406 254.050781 656.570312 254.089844 657.082031 C 260.851562 657.082031 267.679688 656.449219 274.34375 657.253906 C 282.101562 658.191406 286.597656 653.113281 292.8125 649.84375 C 278.289062 645.113281 266.300781 651.324219 253.984375 655.5625 Z M 253.976562 655.554688 " fill-opacity="1" fill-rule="nonzero"/><path fill="#cd2222" d="M 276.53125 498.957031 C 281.125 499.226562 285.226562 499.472656 289.496094 499.722656 L 289.496094 529.417969 C 295.9375 529.855469 302.246094 530.28125 308.550781 530.710938 C 330.550781 532.230469 352.566406 533.621094 374.550781 535.324219 C 393.519531 536.785156 412.460938 538.625 431.410156 540.265625 C 449.066406 541.796875 466.734375 543.285156 484.390625 544.789062 C 503.769531 546.441406 523.152344 548.195312 542.550781 549.703125 C 556.78125 550.808594 571.023438 551.757812 585.28125 552.484375 C 602.5625 553.363281 619.863281 553.929688 637.164062 554.628906 C 638.292969 554.679688 639.425781 554.628906 640.816406 554.628906 C 640.96875 553.460938 641.253906 552.507812 641.203125 551.5625 C 638.023438 483.042969 639.902344 414.488281 639.863281 345.941406 C 639.863281 332.960938 639.34375 319.980469 638.832031 307.007812 C 638.375 295.378906 639.089844 283.976562 643.492188 273.027344 C 644.394531 270.78125 644.898438 268.382812 645.757812 265.464844 C 630.851562 267.5625 616.449219 269.578125 600.328125 271.847656 C 601.289062 268.765625 601.515625 266.75 602.476562 265.171875 C 606.109375 259.203125 611.558594 256.777344 618.5625 256.242188 C 626.859375 255.597656 635.054688 253.824219 643.304688 252.605469 C 645.433594 252.289062 647.589844 252.125 649.746094 252.011719 C 657.1875 251.636719 659.546875 253.851562 659.148438 261.1875 C 659.007812 263.730469 658.5625 266.390625 657.625 268.75 C 651.746094 283.625 651.957031 299.183594 652.175781 314.757812 C 652.4375 333.082031 652.859375 351.40625 652.828125 369.722656 C 652.753906 406.671875 652.070312 443.621094 652.289062 480.5625 C 652.445312 506.953125 653.632812 533.347656 654.421875 559.730469 C 654.585938 565.234375 652.40625 567.953125 646.847656 567.757812 C 627.964844 567.089844 609.078125 566.398438 590.203125 565.390625 C 571.195312 564.375 552.203125 563.113281 533.222656 561.699219 C 513.53125 560.234375 493.863281 558.492188 474.199219 556.792969 C 457.117188 555.320312 440.046875 553.695312 422.960938 552.207031 C 404.148438 550.570312 385.34375 548.914062 366.515625 547.457031 C 347.972656 546.027344 329.410156 544.8125 310.859375 543.542969 C 301.507812 542.910156 292.121094 542.640625 282.816406 541.601562 C 280.652344 541.355469 277.261719 538.859375 276.992188 537.023438 C 275.132812 524.449219 275.585938 511.792969 276.523438 498.933594 Z M 276.53125 498.957031 " fill-opacity="1" fill-rule="nonzero"/><path fill="#cd2222" d="M 280.703125 230.433594 C 281.898438 234.167969 283.792969 238.601562 284.679688 243.226562 C 285.535156 247.691406 285.402344 252.351562 285.632812 256.941406 C 285.996094 264.382812 286.378906 271.816406 286.574219 279.265625 C 286.609375 280.40625 285.964844 281.941406 285.101562 282.648438 C 279.199219 287.519531 277.585938 294.964844 282.832031 301.394531 C 286.144531 305.453125 293 304.292969 296.074219 298.785156 C 297.269531 296.648438 298.449219 293.636719 297.855469 291.523438 C 296.667969 287.253906 298.960938 285.667969 301.875 284.269531 C 305.964844 282.308594 310.28125 280.804688 314.300781 278.703125 C 315.644531 278.003906 316.960938 276.160156 317.171875 274.679688 C 317.511719 272.289062 316.488281 270.410156 313.722656 272.660156 C 310.183594 275.539062 306.898438 278.761719 303.191406 281.398438 C 301.109375 282.867188 298.214844 284.535156 296.007812 284.171875 C 292.917969 283.648438 290.8125 281.085938 292.300781 277.183594 C 295.335938 269.214844 293.089844 261.535156 290.910156 253.808594 C 288.902344 246.667969 287.574219 239.316406 285.332031 232.25 C 283.835938 227.539062 285.65625 224.839844 289.097656 222.308594 C 291.746094 220.367188 294.269531 218.242188 296.855469 216.210938 C 298.691406 214.761719 300.050781 214.898438 302.011719 216.609375 C 308.136719 221.945312 314.542969 226.945312 320.90625 231.996094 C 337.238281 244.960938 345.273438 261.1875 342.359375 282.535156 C 340.960938 292.792969 337.503906 302.203125 331.8125 310.335938 C 327.492188 316.492188 320.710938 320.898438 315.097656 326.167969 C 313.339844 327.820312 311.769531 329.691406 310.242188 331.570312 C 303.65625 339.648438 299.027344 348.648438 295.789062 358.652344 C 293.601562 365.402344 289.796875 371.722656 286.078125 377.847656 C 284.085938 381.132812 280.492188 384.371094 276.335938 382.566406 C 272.945312 381.09375 269.363281 378.253906 267.679688 375.066406 C 265.21875 370.398438 263.988281 364.957031 262.898438 359.710938 C 260.523438 348.316406 256.035156 337.800781 250.367188 327.753906 C 242.800781 314.359375 240.386719 300.09375 242.964844 285.066406 C 244.769531 274.546875 247.265625 264.144531 249.242188 253.65625 C 250.023438 249.53125 250.421875 245.316406 250.625 241.121094 C 250.757812 238.445312 251.636719 237.730469 254.351562 237.152344 C 262.746094 235.378906 271 232.957031 280.6875 230.425781 Z M 305.167969 238.175781 C 304.613281 242.324219 309.453125 246.382812 313.617188 246.488281 C 314.8125 246.523438 316.863281 243.871094 317.148438 242.210938 C 317.757812 238.65625 312.496094 232.636719 309.324219 232.703125 C 305.859375 232.777344 305.160156 235.175781 305.160156 238.175781 Z M 253.472656 264.511719 C 254.074219 265 255.171875 266.601562 256.523438 266.847656 C 259.117188 267.316406 262.257812 263.8125 261.726562 260.910156 C 261.460938 259.445312 259.972656 257.527344 258.621094 257.101562 C 256.261719 256.355469 253.523438 259.949219 253.472656 264.511719 Z M 328.273438 263.984375 C 328.835938 267.992188 330.210938 270.261719 333.355469 270.613281 C 336.414062 270.953125 336.730469 268.222656 336.570312 266.171875 C 336.351562 263.40625 335.757812 260.078125 332.054688 260.292969 C 330.730469 260.363281 329.527344 262.683594 328.273438 263.984375 Z M 269.21875 336.074219 C 267.390625 334.101562 266.09375 332.699219 264.792969 331.300781 C 264.078125 332.601562 262.613281 334.050781 262.824219 335.171875 C 263.125 336.757812 264.679688 338.101562 265.695312 339.550781 C 266.648438 338.613281 267.59375 337.679688 269.21875 336.074219 Z M 293.375 347.625 C 292.082031 346.113281 291.21875 345.105469 290.347656 344.09375 C 289.414062 345.414062 287.890625 346.671875 287.746094 348.082031 C 287.640625 349.164062 289.265625 350.421875 290.121094 351.601562 C 291.054688 350.457031 292 349.308594 293.375 347.625 Z M 277.613281 363.5 C 273.765625 365.835938 274.105469 367.925781 275.53125 369.917969 C 275.929688 370.472656 277.34375 370.292969 278.289062 370.453125 C 278.082031 368.398438 277.886719 366.347656 277.613281 363.507812 Z M 250.8125 292.132812 C 249.578125 293.90625 248.242188 295.035156 248.445312 295.71875 C 248.773438 296.824219 250.105469 297.640625 251.015625 298.574219 C 251.789062 297.71875 253.171875 296.867188 253.179688 295.996094 C 253.1875 294.980469 252.007812 293.953125 250.820312 292.125 Z M 314.960938 317.289062 C 313.203125 315.988281 312.234375 314.765625 311.113281 314.613281 C 310.300781 314.507812 309.300781 315.816406 308.378906 316.492188 C 309.378906 317.507812 310.234375 318.859375 311.445312 319.402344 C 312.015625 319.65625 313.285156 318.347656 314.953125 317.289062 Z M 314.960938 317.289062 " fill-opacity="1" fill-rule="nonzero"/><path fill="#cd2222" d="M 594.730469 81.257812 C 593.074219 81.257812 591.949219 80.921875 591.203125 81.304688 C 573.953125 90.046875 556.773438 98.945312 539.5 107.65625 C 530.472656 112.210938 521.226562 116.34375 512.1875 120.863281 C 501.703125 126.117188 491.390625 131.707031 480.902344 136.945312 C 471.191406 141.78125 461.324219 146.304688 451.5625 151.046875 C 431.222656 160.9375 411.070312 171.226562 390.542969 180.699219 C 371.402344 189.53125 353.363281 200.164062 335.699219 211.542969 C 330.136719 215.128906 328.304688 214.769531 321.472656 208.3125 C 319.855469 206.773438 318.570312 204.878906 316.902344 202.878906 C 322.515625 199.375 327.851562 195.933594 333.300781 192.679688 C 344.320312 186.101562 355.355469 179.527344 366.492188 173.144531 C 370.6875 170.738281 375.167969 168.816406 379.5625 166.761719 C 391.46875 161.171875 403.496094 155.828125 415.304688 150.03125 C 441.332031 137.261719 467.230469 124.238281 493.222656 111.40625 C 499.214844 108.445312 505.453125 105.988281 511.417969 102.972656 C 525.210938 95.992188 538.855469 88.707031 552.660156 81.742188 C 565.484375 75.277344 578.480469 69.152344 591.324219 62.703125 C 601.605469 57.539062 611.738281 52.082031 621.96875 46.820312 C 628.054688 43.695312 634.179688 40.664062 640.328125 37.671875 C 641.1875 37.253906 642.296875 37.34375 644.085938 37.078125 C 640.105469 43.746094 636.855469 49.730469 633.105469 55.382812 C 624.589844 68.242188 616.050781 81.09375 607.09375 93.644531 C 600.824219 102.441406 593.925781 110.8125 587.167969 119.253906 C 583.703125 123.574219 579.742188 127.5 576.320312 131.851562 C 569.429688 140.585938 559.539062 144.703125 550 149.371094 C 535.773438 156.332031 521.5 163.214844 507.210938 170.046875 C 495.019531 175.867188 482.746094 181.511719 470.554688 187.335938 C 461.136719 191.835938 451.800781 196.503906 442.414062 201.074219 C 440.804688 201.863281 439.128906 202.519531 436.410156 203.707031 C 438.113281 200.464844 439.308594 198.269531 440.429688 196.03125 C 442.074219 192.761719 443.4375 189.328125 445.367188 186.238281 C 446.34375 184.675781 448.125 183.417969 449.808594 182.53125 C 466.375 173.796875 482.984375 165.132812 499.621094 156.527344 C 516.742188 147.671875 534.214844 139.425781 550.917969 129.84375 C 558.074219 125.734375 564.273438 119.464844 569.859375 113.234375 C 577.839844 104.355469 584.859375 94.609375 592.257812 85.21875 C 593.105469 84.144531 593.714844 82.898438 594.714844 81.28125 Z M 594.730469 81.257812 " fill-opacity="1" fill-rule="nonzero"/><path fill="#cd2222" d="M 585.003906 170.542969 C 557.011719 179.699219 529.933594 191.410156 502.308594 201.570312 C 474.703125 211.71875 447.335938 222.503906 419.859375 233.019531 C 419.59375 232.679688 419.332031 232.347656 419.0625 232.003906 C 422.105469 226.9375 425.5625 222.066406 428.09375 216.746094 C 430.960938 210.695312 435.972656 208.425781 441.796875 206.3125 C 457.175781 200.714844 472.34375 194.535156 487.652344 188.71875 C 499.476562 184.222656 511.40625 180 523.242188 175.511719 C 538.050781 169.898438 552.789062 164.109375 567.582031 158.472656 C 582.644531 152.738281 597.75 147.125 612.8125 141.394531 C 619.976562 138.667969 627.078125 135.773438 634.234375 133.007812 C 635.097656 132.675781 636.097656 132.691406 638.351562 132.339844 C 636.707031 135.234375 635.828125 137.421875 634.414062 139.179688 C 624.5 151.492188 614.683594 163.898438 604.425781 175.917969 C 594.210938 187.898438 583.761719 199.691406 572.953125 211.144531 C 565.191406 219.363281 555.839844 224.8125 544.191406 226.660156 C 535.726562 228.003906 527.601562 231.417969 519.289062 233.769531 C 502.078125 238.640625 484.835938 243.40625 467.617188 248.253906 C 462.84375 249.597656 458.113281 251.066406 452.945312 252.605469 C 454.703125 247.277344 456.257812 242.21875 458.101562 237.273438 C 458.386719 236.5 459.925781 236.054688 460.964844 235.722656 C 471.480469 232.3125 482.007812 228.9375 492.539062 225.613281 C 506.007812 221.359375 519.484375 217.144531 532.960938 212.941406 C 535.554688 212.125 538.148438 211.265625 540.808594 210.71875 C 550.570312 208.695312 557.53125 202.585938 563.972656 195.46875 C 571.144531 187.546875 578.597656 179.886719 585.925781 172.101562 C 585.613281 171.582031 585.3125 171.070312 585.003906 170.550781 Z M 585.003906 170.542969 " fill-opacity="1" fill-rule="nonzero"/><g clip-path="url(#4a980431de)"><path fill="#ffffff" d="M 60.957031 200.78125 C 63.714844 196.945312 66.179688 193.550781 68.609375 190.136719 C 70.75 187.121094 73.195312 184.25 74.886719 180.996094 C 77.027344 176.878906 75.238281 172.902344 70.472656 170.59375 C 66.390625 168.609375 62.183594 166.851562 57.964844 165.183594 C 52.710938 163.109375 52.425781 161.207031 56.289062 157.230469 C 61.941406 151.40625 68.242188 147.160156 76.484375 145.8125 C 78.371094 145.503906 80.523438 143.410156 81.523438 141.582031 C 89.609375 126.699219 103.054688 121.777344 118.839844 120.769531 C 123.515625 120.46875 128.144531 119.125 132.804688 119.085938 C 151.453125 118.9375 168.371094 124.28125 183.394531 135.539062 C 191.492188 141.605469 197.789062 149.03125 201.96875 158.246094 C 205.164062 165.296875 207.359375 172.730469 207.230469 180.410156 C 207.085938 189.226562 205.785156 198.027344 205.164062 206.84375 C 205.066406 208.265625 205.472656 210.039062 206.3125 211.152344 C 209.753906 215.707031 213.542969 220 216.992188 224.554688 C 218.089844 226.003906 219.171875 227.921875 219.1875 229.640625 C 219.324219 243.433594 217.210938 256.992188 213.957031 270.328125 C 209.09375 290.257812 210.996094 309.253906 219.933594 327.773438 C 224.9375 338.144531 230.769531 348.246094 232.371094 360.007812 C 233.078125 365.1875 233.941406 370.488281 235.761719 375.351562 C 241.351562 390.253906 258.429688 398.996094 273.28125 390.261719 C 275.039062 389.226562 276.753906 387.527344 277.625 385.722656 C 280.550781 379.65625 282.765625 373.222656 285.855469 367.246094 C 290.71875 357.816406 294.636719 347.863281 302.707031 340.257812 C 310.457031 332.957031 316.882812 324.578125 321.199219 314.550781 C 325.738281 304.007812 331.628906 294.054688 336.117188 283.496094 C 338.417969 278.097656 339.582031 272.003906 340.160156 266.117188 C 341.980469 247.5 337.710938 230.671875 324.015625 217.050781 C 323.738281 216.773438 323.664062 216.285156 323.292969 215.429688 C 324.722656 214.609375 326.089844 213.617188 327.609375 212.992188 C 341.453125 207.28125 355.277344 201.539062 369.203125 196.015625 C 377.882812 192.570312 386.632812 189.265625 395.496094 186.347656 C 399.15625 185.144531 403.214844 185.117188 408.363281 184.378906 C 398.605469 201.019531 389.488281 216.570312 380.0625 232.632812 C 393.390625 239.441406 406.273438 232.371094 420.28125 232.550781 C 418.5 237.242188 416.984375 241.652344 415.171875 245.9375 C 408.777344 261.042969 399.042969 273.875 387.347656 285.164062 C 381.5 290.808594 374.894531 295.671875 368.558594 300.804688 C 365.753906 303.082031 364.484375 304.976562 366.203125 309.125 C 371.796875 322.652344 380.050781 333.53125 393.820312 339.265625 C 398.871094 341.371094 404.4375 342.1875 409.671875 343.894531 C 420.214844 347.335938 431.0625 345.984375 441.734375 345.699219 C 451.078125 345.457031 460.375 343.550781 469.695312 342.390625 C 478.765625 341.25 487.832031 340.160156 496.894531 338.980469 C 504.222656 338.023438 511.542969 336.957031 518.863281 335.941406 C 519.960938 335.785156 521.058594 335.632812 523.113281 336.363281 C 521.097656 339.4375 519.609375 343.121094 516.949219 345.449219 C 511.167969 350.5 504.9375 355.085938 498.601562 359.4375 C 492.476562 363.648438 485.953125 367.277344 479.683594 371.277344 C 476.925781 373.035156 475.609375 374.800781 478.667969 378.019531 C 484.660156 384.332031 490.515625 390.847656 495.789062 397.777344 C 505.199219 410.148438 514.324219 422.738281 523.164062 435.515625 C 527.847656 442.289062 531.71875 449.625 535.890625 456.75 C 536.851562 458.394531 537.527344 460.214844 537.617188 462.53125 C 534.214844 460.574219 530.964844 458.3125 527.410156 456.703125 C 510.671875 449.136719 493.949219 441.515625 477.023438 434.382812 C 466.304688 429.863281 455.234375 426.167969 444.320312 422.09375 C 434.953125 418.597656 425.792969 414.261719 416.15625 411.78125 C 404.492188 408.78125 392.496094 406.585938 380.507812 405.429688 C 366.097656 404.046875 351.53125 403.535156 337.042969 403.730469 C 316.433594 404.007812 296.0625 406.753906 276.183594 412.523438 C 273.890625 413.1875 271.726562 414.285156 269.277344 415.277344 C 272.90625 424.476562 279.972656 430.089844 287.308594 435.34375 C 292.191406 438.832031 297.476562 441.753906 302.4375 445.128906 C 303.277344 445.695312 304.121094 447.699219 303.746094 448.382812 C 297.710938 459.433594 289.132812 467.519531 276.175781 469.144531 C 267 470.300781 257.875 468.804688 249.132812 465.746094 C 241.046875 462.90625 233.0625 459.792969 225.050781 456.734375 C 222.253906 455.667969 220.164062 455.652344 217.242188 457.570312 C 209.296875 462.792969 200.351562 466.113281 190.835938 467.128906 C 182.960938 467.964844 175 468.550781 167.101562 468.292969 C 162.847656 468.152344 158.554688 466.289062 154.488281 464.6875 C 151.664062 463.582031 151.421875 460.734375 152.941406 458.472656 C 155.925781 454.007812 159.074219 449.609375 162.613281 445.566406 C 166.191406 441.476562 166.726562 440.140625 162.082031 436.410156 C 159.019531 433.953125 155.359375 432.097656 151.738281 430.496094 C 145.101562 427.558594 139.117188 423.867188 134.15625 418.46875 C 131.957031 416.078125 130.535156 413.410156 132.648438 410.839844 C 134.136719 409.023438 136.945312 407.300781 139.171875 407.285156 C 146.199219 407.234375 152.070312 405.300781 156.722656 399.378906 C 151.273438 389.726562 143.148438 382.519531 134.472656 375.785156 C 119.921875 364.496094 104.558594 354.070312 91.097656 341.601562 C 72.824219 324.667969 63.738281 302.894531 63.933594 277.667969 C 63.980469 271.039062 63.542969 264.296875 64.601562 257.8125 C 65.503906 252.28125 68.089844 246.988281 70.171875 241.691406 C 73.203125 234 76.515625 226.417969 79.546875 218.734375 C 79.929688 217.765625 79.753906 216.195312 79.199219 215.285156 C 75.101562 208.535156 69.738281 203.191406 60.957031 200.792969 Z M 121.457031 149.414062 C 125.542969 158.914062 124.875 159.882812 112.1875 164.152344 C 117.929688 168.714844 127.785156 167.113281 131.820312 160.964844 C 134.519531 156.847656 133.40625 152.554688 128.851562 150.757812 C 126.695312 149.910156 124.222656 149.886719 121.457031 149.414062 Z M 121.457031 149.414062 " fill-opacity="1" fill-rule="nonzero"/></g><g clip-path="url(#b0581ee621)"><path fill="#ffffff" d="M 486.824219 567.546875 C 487.523438 575.753906 488.027344 583.773438 489.078125 591.71875 C 489.214844 592.792969 491.964844 593.90625 493.664062 594.324219 C 501.601562 596.234375 509.914062 597.054688 517.488281 599.894531 C 524.621094 602.570312 531.273438 606.871094 537.59375 611.246094 C 540.535156 613.289062 542.1875 617.199219 545.203125 621.324219 C 552.230469 621.8125 560.828125 622.542969 569.433594 622.96875 C 583.835938 623.675781 598.265625 623.992188 612.660156 624.796875 C 638.167969 626.238281 663.492188 628.960938 687.40625 638.761719 C 704.25 645.667969 719.839844 654.621094 730.289062 670.230469 C 743.117188 689.390625 740.523438 719.265625 725.035156 734.699219 C 722.214844 737.515625 718.097656 739.214844 717.367188 743.949219 C 717.222656 744.90625 715.277344 745.851562 713.984375 746.332031 C 697.027344 752.609375 680.148438 759.140625 663.011719 764.882812 C 653.132812 768.203125 642.917969 770.867188 632.636719 772.542969 C 627.046875 773.464844 620.777344 772.5625 615.230469 771 C 597.492188 765.996094 592.6875 749.535156 604.355469 735.195312 C 612.035156 725.769531 622.324219 720.078125 633.171875 715.207031 C 648.261719 708.429688 663.996094 704.65625 680.582031 706.265625 C 694.832031 707.648438 706.378906 713.992188 713.773438 727.144531 C 720.035156 722.808594 723.160156 716.578125 724.53125 709.820312 C 728.101562 692.246094 724.328125 677.152344 709.046875 665.835938 C 692.480469 653.574219 673.628906 647.734375 653.710938 644.308594 C 626.375 639.609375 598.730469 638.355469 571.132812 636.410156 C 559.640625 635.605469 548.179688 634.289062 536.707031 633.3125 C 535.21875 633.183594 533.4375 633.296875 532.183594 634.003906 C 522.335938 639.519531 511.402344 640.671875 500.539062 641.683594 C 474.707031 644.066406 448.996094 641.804688 423.273438 639.386719 C 403.597656 637.535156 384.070312 635.054688 365.054688 629.546875 C 361.703125 628.578125 358.363281 626.8125 355.621094 624.660156 C 351.246094 621.203125 351.164062 616.808594 354.960938 612.6875 C 362.4375 604.578125 372.1875 600.445312 382.71875 598.972656 C 395.945312 597.128906 409.332031 596.476562 422.644531 595.324219 C 423.769531 595.226562 424.890625 595.152344 426.566406 595.03125 C 426.566406 584.816406 426.648438 574.761719 426.417969 564.710938 C 426.402344 563.855469 424.355469 562.425781 423.148438 562.308594 C 409.382812 560.96875 395.59375 559.863281 381.816406 558.617188 C 361.011719 556.730469 340.234375 554.503906 319.402344 552.957031 C 304.617188 551.859375 289.757812 551.738281 274.941406 551.003906 C 268.78125 550.703125 262.488281 550.640625 256.535156 549.28125 C 246.855469 547.070312 241.902344 540.804688 241.699219 529.648438 C 241.449219 515.683594 242.332031 501.703125 242.75 487.730469 C 242.757812 487.332031 243.042969 486.949219 243.335938 486.183594 C 246.34375 486.964844 249.476562 487.445312 252.265625 488.695312 C 253.230469 489.136719 253.753906 491.476562 253.777344 492.96875 C 253.933594 502.757812 254.0625 512.558594 253.882812 522.351562 C 253.671875 533.738281 261.179688 537.511719 270.378906 538.136719 C 275.835938 538.511719 281.355469 537.910156 286.8125 538.226562 C 301.917969 539.089844 317.011719 540.082031 332.097656 541.246094 C 346.894531 542.382812 361.671875 543.800781 376.449219 545.101562 C 391.667969 546.441406 406.882812 547.808594 422.101562 549.132812 C 436.742188 550.410156 451.386719 551.664062 466.035156 552.890625 C 482.261719 554.257812 498.496094 555.625 514.730469 556.925781 C 530.679688 558.210938 546.628906 559.472656 562.585938 560.652344 C 580.414062 561.96875 598.234375 563.449219 616.078125 564.34375 C 624.664062 564.773438 633.3125 564.019531 642.558594 563.78125 C 642.199219 558.382812 641.988281 553.679688 641.566406 549.003906 C 636.90625 497.734375 639.824219 446.332031 639.078125 394.988281 C 638.636719 364.976562 639.507812 334.941406 638.746094 304.9375 C 638.394531 291.09375 638.851562 277.722656 643.152344 264.480469 C 644.550781 260.179688 644.867188 255.414062 644.992188 250.84375 C 645.226562 242.1875 641.730469 238.675781 633.011719 239.148438 C 622.804688 239.691406 612.628906 241.570312 602.445312 241.53125 C 595.53125 241.496094 588.847656 242.222656 582.082031 243.109375 C 580.933594 243.261719 579.632812 242.195312 577.949219 241.515625 C 571.476562 247.605469 564.667969 254.371094 557.460938 260.699219 C 548.988281 268.140625 540.40625 275.527344 531.355469 282.238281 C 528.5625 284.3125 524.125 284.652344 520.382812 284.871094 C 506.628906 285.691406 492.859375 286.058594 479.097656 286.726562 C 463.066406 287.5 447.046875 288.34375 431.023438 289.28125 C 423.222656 289.734375 415.433594 290.46875 407.640625 291.070312 C 407.609375 291.550781 407.582031 292.027344 407.550781 292.5 C 439.554688 295.210938 471.558594 297.917969 503.5625 300.625 C 503.675781 301.234375 503.796875 301.855469 503.914062 302.464844 C 501.414062 304.125 498.953125 305.832031 496.40625 307.417969 C 478.210938 318.777344 459.523438 329.125 439.515625 337.046875 C 433.855469 339.289062 428.925781 336.957031 423.859375 335.875 C 415.261719 334.035156 406.917969 330.929688 398.277344 329.375 C 392.015625 328.246094 390.617188 323.097656 387.625 319.226562 C 386.226562 317.414062 385.738281 314.890625 384.386719 311.605469 C 391.878906 312.957031 398.410156 314.207031 404.964844 315.304688 C 414.636719 316.933594 424.28125 319.160156 434.023438 319.707031 C 438.515625 319.957031 443.191406 316.820312 447.777344 315.226562 C 447.703125 314.445312 447.632812 313.671875 447.566406 312.890625 C 426.324219 309.890625 405.070312 306.894531 382.6875 303.734375 C 387.203125 299.917969 390.683594 297.03125 394.097656 294.070312 C 398.402344 290.355469 403.273438 287.074219 406.777344 282.707031 C 411.648438 276.632812 418.148438 276.40625 424.761719 275.761719 C 439.390625 274.339844 454.023438 272.933594 468.664062 271.574219 C 472.804688 271.191406 476.96875 271.0625 481.117188 270.695312 C 494.617188 269.523438 508.117188 268.335938 521.601562 267.050781 C 522.960938 266.921875 524.53125 266.394531 525.539062 265.515625 C 532.632812 259.375 539.609375 253.09375 546.605469 246.839844 C 546.863281 246.605469 546.894531 246.109375 547.296875 245.035156 C 506.050781 251.332031 465.253906 257.550781 423.929688 263.855469 C 427.023438 258.632812 429.542969 253.664062 432.8125 249.25 C 433.902344 247.777344 436.871094 247.476562 439.066406 247.070312 C 451.105469 244.847656 463.164062 242.765625 475.210938 240.621094 C 486.253906 238.652344 497.300781 236.683594 508.335938 234.648438 C 527.613281 231.113281 546.871094 227.492188 566.15625 223.972656 C 576.226562 222.132812 586.324219 220.410156 596.417969 218.683594 C 597.046875 218.578125 597.746094 218.910156 599.492188 219.246094 C 595.566406 223.441406 592.15625 227.09375 587.789062 231.753906 C 594.425781 230.882812 599.84375 230.070312 605.277344 229.492188 C 615.703125 228.378906 626.144531 227.402344 636.582031 226.371094 C 636.726562 226.355469 636.875 226.34375 637.011719 226.378906 C 644.738281 228.257812 652.636719 229.613281 660.125 232.167969 C 667.949219 234.835938 671.066406 242.050781 673.308594 249.328125 C 677.222656 262.035156 677.96875 275.226562 676.914062 288.296875 C 675.125 310.246094 672.300781 332.109375 670.097656 354.019531 C 669.421875 360.753906 668.902344 367.5625 669.074219 374.320312 C 669.992188 409.925781 671.136719 445.535156 672.246094 481.132812 C 672.863281 501.171875 673.628906 521.214844 674.125 541.253906 C 674.222656 545.101562 673.71875 549.054688 672.871094 552.820312 C 669.542969 567.644531 659.800781 576.632812 644.566406 577.429688 C 633.410156 578.015625 622.160156 577.089844 610.960938 576.519531 C 599.453125 575.941406 587.960938 575.015625 576.46875 574.183594 C 557.917969 572.84375 539.375 571.453125 520.828125 570.070312 C 509.65625 569.238281 498.488281 568.402344 486.839844 567.53125 Z M 702.882812 735.15625 C 699.628906 726.070312 690.082031 719.546875 679.078125 718.816406 C 660.011719 717.546875 642.714844 723.019531 626.691406 732.871094 C 620.453125 736.703125 615.703125 742.160156 613.261719 749.242188 C 611.523438 754.285156 613.261719 757.808594 618.46875 758.296875 C 623.398438 758.757812 628.699219 758.890625 633.402344 757.585938 C 647.617188 753.667969 661.65625 749.097656 675.691406 744.566406 C 684.820312 741.621094 693.820312 738.296875 702.890625 735.148438 Z M 368.714844 617.996094 C 371.496094 618.761719 373.066406 619.355469 374.683594 619.617188 C 387.324219 621.648438 399.90625 624.59375 412.625 625.398438 C 441.09375 627.203125 469.613281 628.359375 498.128906 628.839844 C 506.710938 628.984375 515.371094 626.148438 523.9375 624.398438 C 525.515625 624.074219 526.816406 622.382812 528.246094 621.316406 C 526.929688 619.972656 525.863281 618.054688 524.261719 617.378906 C 517.273438 614.417969 510.230469 611.53125 503.027344 609.191406 C 498.910156 607.855469 494.445312 607.605469 490.109375 606.855469 C 489.257812 615.257812 488.914062 615.648438 481.042969 617.746094 C 479.375 618.191406 477.722656 618.714844 476.03125 619.015625 C 462.34375 621.488281 449.199219 621.398438 437.328125 612.425781 C 432.835938 609.035156 427.410156 607.425781 421.464844 607.929688 C 412.144531 608.71875 402.769531 608.863281 393.472656 609.824219 C 385.183594 610.6875 377.109375 612.695312 368.714844 617.988281 Z M 659.988281 251.257812 C 659.679688 251.339844 659.371094 251.429688 659.070312 251.507812 C 658.371094 255.015625 657.839844 258.5625 656.9375 262.019531 C 653.203125 276.300781 651.285156 290.777344 651.652344 305.5625 C 652.015625 320.265625 652.335938 334.980469 652.449219 349.691406 C 652.96875 414.269531 649.511719 478.90625 655.125 543.410156 C 655.492188 547.574219 655.792969 551.746094 656.207031 556.871094 C 661.597656 549.328125 661.761719 541.683594 661.460938 534.089844 C 660.117188 500.523438 659.363281 466.910156 656.96875 433.40625 C 654.246094 395.085938 657.269531 357.144531 660.746094 319.070312 C 662.363281 301.316406 662.078125 283.375 662.234375 265.515625 C 662.273438 260.773438 660.785156 256.015625 659.996094 251.265625 Z M 473.746094 566.261719 C 462.6875 565.394531 452.226562 564.488281 441.75 563.894531 C 440.757812 563.839844 438.773438 565.710938 438.742188 566.734375 C 438.398438 577.007812 439.351562 587.164062 442.589844 597 C 444.140625 601.714844 447.265625 604.960938 452.273438 605.832031 C 460.398438 607.246094 468.523438 607.066406 477.105469 605.496094 C 475.992188 592.46875 474.902344 579.722656 473.746094 566.261719 Z M 473.746094 566.261719 " fill-opacity="1" fill-rule="nonzero"/></g><path fill="#ffffff" d="M 527.449219 747.550781 C 518.023438 746.121094 509.214844 744.792969 500.414062 743.4375 C 469.859375 738.71875 439.375 733.449219 408.722656 729.445312 C 385.882812 726.46875 362.835938 725.210938 339.882812 723.078125 C 313.351562 720.613281 286.78125 718.484375 260.324219 715.375 C 230.167969 711.839844 200.140625 707.242188 170.015625 703.394531 C 157.585938 701.808594 145.101562 700.695312 133.347656 696.027344 C 127.046875 693.53125 120.757812 690.847656 118.359375 683.496094 C 116.96875 679.242188 118.269531 675.824219 122.566406 674.644531 C 151.910156 666.59375 179.511719 653.953125 207.726562 642.886719 C 224.125 636.453125 241.136719 631.5625 257.882812 626.015625 C 258.8125 625.707031 259.886719 625.570312 260.851562 625.675781 C 275.550781 627.351562 290.253906 628.945312 304.917969 630.839844 C 322.609375 633.132812 340.242188 635.914062 357.945312 638.085938 C 377.808594 640.527344 397.683594 642.894531 417.613281 644.601562 C 442.027344 646.699219 466.507812 647.929688 490.941406 649.816406 C 510.898438 651.359375 530.875 652.882812 550.75 655.199219 C 572.035156 657.679688 593.273438 660.746094 614.425781 664.195312 C 631.863281 667.03125 649.144531 670.847656 666.519531 674.117188 C 669.941406 674.757812 672.308594 676.378906 673.78125 679.515625 C 675.628906 683.46875 674.71875 685.949219 670.675781 687.855469 C 647.007812 698.996094 623.371094 710.21875 599.671875 721.289062 C 577.890625 731.464844 555.640625 740.425781 532.355469 746.597656 C 530.566406 747.070312 528.710938 747.300781 527.441406 747.527344 Z M 627.691406 679.710938 C 624.363281 682.21875 622.300781 684.574219 619.703125 685.59375 C 610.644531 689.15625 601.421875 692.300781 592.222656 695.515625 C 577.582031 700.632812 562.382812 704.234375 548.757812 712.097656 C 542.78125 715.546875 536.582031 718.644531 530.363281 721.640625 C 528.386719 722.589844 525.9375 723.289062 523.796875 723.085938 C 512.347656 721.996094 500.871094 720.90625 489.492188 719.222656 C 461.585938 715.089844 433.8125 709.96875 405.492188 709.171875 C 402.824219 709.097656 399.882812 707.699219 397.628906 706.121094 C 393.464844 703.210938 393.976562 698.3125 398.570312 696.125 C 402.980469 694.027344 407.527344 692.164062 412.164062 690.644531 C 430.640625 684.574219 448.769531 677.808594 464.800781 666.457031 C 466.703125 665.105469 468.574219 663.699219 470.453125 662.316406 C 466.726562 661.332031 463.066406 660.4375 460.148438 661.527344 C 455.007812 663.445312 450.46875 666.933594 445.402344 669.140625 C 422.972656 678.898438 400.621094 688.773438 380.753906 703.40625 C 379.019531 704.671875 375.773438 704.917969 373.5625 704.347656 C 345.257812 697.109375 316.296875 694.621094 287.351562 691.902344 C 274.738281 690.726562 262.144531 689.269531 249.546875 687.894531 C 238.242188 686.667969 226.9375 685.40625 215.640625 684.105469 C 203.34375 682.6875 190.347656 683.226562 178.960938 679.214844 C 166.410156 674.800781 155.773438 676.027344 144.566406 681.210938 C 142.695312 682.070312 140.71875 682.699219 137.863281 683.789062 C 139.472656 684.292969 139.976562 684.519531 140.5 684.609375 C 148.730469 685.910156 156.96875 687.1875 165.199219 688.496094 C 187.777344 692.066406 210.304688 696.050781 232.957031 699.117188 C 254.5 702.039062 276.160156 704.21875 297.800781 706.347656 C 320.023438 708.542969 342.296875 710.15625 364.527344 712.269531 C 384.890625 714.214844 405.304688 715.878906 425.550781 718.761719 C 454.730469 722.914062 483.765625 728.160156 512.890625 732.707031 C 518.625 733.601562 524.871094 734.855469 530.273438 733.496094 C 542.34375 730.472656 554.386719 726.722656 565.804688 721.792969 C 589.683594 711.496094 613.148438 700.257812 636.777344 689.375 C 640.378906 687.714844 643.925781 685.917969 648.59375 683.65625 C 640.332031 682.09375 633.320312 680.769531 627.683594 679.710938 Z M 529.058594 681.761719 C 536.761719 683.316406 543.757812 684.804688 550.785156 686.121094 C 560.527344 687.953125 570.058594 690.855469 580.136719 686.382812 C 588.554688 682.648438 597.582031 680.296875 607.554688 676.921875 C 605.527344 676.117188 604.820312 675.671875 604.074219 675.566406 C 585.691406 672.976562 567.300781 670.398438 548.90625 667.9375 C 547.636719 667.765625 545.960938 668.140625 544.96875 668.894531 C 539.851562 672.839844 534.898438 676.996094 529.050781 681.753906 Z M 546.171875 699.257812 C 546.074219 698.839844 545.976562 698.425781 545.878906 698.003906 C 537.992188 696.546875 530.101562 695.050781 522.195312 693.644531 C 518.8125 693.042969 514.707031 691.195312 512.136719 692.425781 C 504.585938 696.027344 497.640625 700.890625 490.109375 705.46875 C 491.167969 706.121094 491.507812 706.488281 491.890625 706.542969 C 502.007812 707.902344 512.136719 709.234375 522.261719 710.539062 C 522.953125 710.625 523.78125 710.601562 524.375 710.300781 C 531.664062 706.65625 538.917969 702.949219 546.179688 699.257812 Z M 492.152344 688.617188 C 481.375 687.375 471.4375 686.171875 461.480469 685.128906 C 460.15625 684.992188 458.652344 685.472656 457.390625 686.023438 C 450.046875 689.261719 442.75 692.605469 435.449219 695.929688 C 434.578125 696.328125 433.773438 696.867188 432.332031 697.6875 C 445.363281 699.574219 457.421875 701.339844 469.492188 703.054688 C 470.257812 703.160156 471.25 703.191406 471.828125 702.800781 C 478.316406 698.355469 484.75 693.816406 492.152344 688.625 Z M 183.019531 666.925781 C 183.082031 667.234375 183.140625 667.546875 183.207031 667.863281 C 185.425781 668.226562 187.628906 668.773438 189.859375 668.929688 C 199.195312 669.570312 208.53125 670.140625 217.878906 670.636719 C 221.40625 670.824219 225.410156 671.824219 228.386719 670.554688 C 233.515625 668.367188 238.023438 664.691406 243.707031 661.046875 C 241.210938 660.941406 239.828125 660.957031 238.460938 660.804688 C 230.90625 659.957031 223.34375 659.175781 215.820312 658.136719 C 213.8125 657.859375 211.527344 655.65625 210.035156 656.191406 C 200.917969 659.46875 192.007812 663.292969 183.019531 666.925781 Z M 478.015625 673.792969 C 487.875 675.28125 497.949219 676.832031 508.042969 678.296875 C 508.957031 678.425781 510.132812 678.296875 510.875 677.808594 C 516.378906 674.230469 521.804688 670.53125 527.921875 666.421875 C 526.171875 665.828125 525.292969 665.339844 524.390625 665.261719 C 513.339844 664.324219 502.277344 663.421875 491.214844 662.601562 C 490.167969 662.519531 488.710938 662.648438 488.054688 663.300781 C 484.644531 666.640625 481.433594 670.1875 478.023438 673.800781 Z M 378.351562 652.464844 C 363.429688 650.53125 350.058594 648.796875 338.042969 647.246094 C 333.871094 651.066406 330.554688 654.117188 326.992188 657.378906 C 328.1875 657.738281 329.210938 658.207031 330.277344 658.332031 C 339.289062 659.304688 348.308594 660.242188 357.335938 661.121094 C 360.460938 661.421875 364.136719 662.632812 366.632812 661.460938 C 370.625 659.582031 373.847656 656.054688 378.351562 652.464844 Z M 350.03125 673.417969 C 337.460938 671.976562 325.789062 670.636719 314.117188 669.335938 C 313.148438 669.230469 311.871094 669.042969 311.207031 669.53125 C 306.878906 672.695312 302.683594 676.027344 297.988281 679.664062 C 309.945312 681.0625 321.046875 682.40625 332.15625 683.601562 C 333.628906 683.753906 335.457031 683.550781 336.652344 682.785156 C 340.988281 680.003906 345.121094 676.90625 350.035156 673.425781 Z M 384.988281 664.257812 C 393.21875 666.136719 401.3125 668 409.421875 669.804688 C 410.375 670.019531 411.542969 670.203125 412.382812 669.847656 C 419.90625 666.617188 427.371094 663.265625 435.699219 659.582031 C 434.121094 658.996094 433.617188 658.6875 433.082031 658.632812 C 420.800781 657.3125 408.527344 655.980469 396.230469 654.800781 C 395.132812 654.695312 393.644531 655.257812 392.839844 656.027344 C 390.152344 658.589844 387.699219 661.386719 384.996094 664.277344 Z M 277.8125 678.265625 C 283.796875 673.945312 288.71875 670.382812 294.703125 666.058594 C 288.105469 665.007812 282.773438 664.113281 277.421875 663.339844 C 273.746094 662.8125 269.417969 661.015625 266.488281 662.300781 C 260.089844 665.113281 254.394531 669.53125 248.410156 673.289062 C 248.507812 673.734375 248.605469 674.191406 248.710938 674.636719 C 258.753906 675.890625 268.800781 677.140625 277.800781 678.265625 Z M 393.667969 679.46875 C 388.128906 678.425781 383.816406 677.523438 379.484375 676.832031 C 376.246094 676.320312 372.34375 674.785156 369.820312 675.988281 C 364.308594 678.613281 359.484375 682.699219 353.757812 686.601562 C 361.054688 688.277344 367.316406 689.757812 373.59375 691.125 C 374.480469 691.320312 375.683594 691.230469 376.417969 690.765625 C 381.832031 687.324219 387.160156 683.753906 393.667969 679.46875 Z M 284.457031 651.269531 C 291.695312 652.539062 298.460938 653.816406 305.269531 654.847656 C 306.691406 655.070312 308.5625 654.867188 309.667969 654.078125 C 313.261719 651.53125 316.597656 648.621094 321.03125 645.039062 C 312.148438 644.136719 304.367188 643.332031 296.566406 642.585938 C 296.0625 642.535156 295.410156 642.738281 294.996094 643.046875 C 291.613281 645.632812 288.277344 648.269531 284.449219 651.269531 Z M 236.144531 647.230469 C 236.183594 647.742188 236.21875 648.246094 236.257812 648.757812 C 243.015625 648.757812 249.847656 648.125 256.511719 648.929688 C 264.269531 649.863281 268.765625 644.789062 274.980469 641.519531 C 260.453125 636.785156 248.464844 643 236.152344 647.238281 Z M 236.144531 647.230469 " fill-opacity="1" fill-rule="nonzero"/><path fill="#ffffff" d="M 258.699219 490.632812 C 263.292969 490.902344 267.390625 491.144531 271.660156 491.398438 L 271.660156 521.089844 C 278.105469 521.53125 284.414062 521.953125 290.71875 522.382812 C 312.71875 523.90625 334.734375 525.296875 356.71875 526.996094 C 375.683594 528.460938 394.628906 530.296875 413.578125 531.941406 C 431.234375 533.46875 448.898438 534.957031 466.558594 536.464844 C 485.9375 538.113281 505.320312 539.871094 524.71875 541.375 C 538.949219 542.480469 553.191406 543.433594 567.449219 544.15625 C 584.730469 545.035156 602.03125 545.605469 619.332031 546.304688 C 620.460938 546.351562 621.589844 546.304688 622.980469 546.304688 C 623.136719 545.132812 623.421875 544.179688 623.371094 543.238281 C 620.191406 474.714844 622.070312 406.160156 622.03125 337.617188 C 622.03125 324.636719 621.511719 311.65625 620.996094 298.683594 C 620.542969 287.050781 621.257812 275.648438 625.65625 264.703125 C 626.558594 262.457031 627.066406 260.058594 627.925781 257.136719 C 613.019531 259.234375 598.613281 261.253906 582.496094 263.523438 C 583.453125 260.441406 583.683594 258.421875 584.640625 256.84375 C 588.277344 250.875 593.726562 248.453125 600.730469 247.914062 C 609.027344 247.273438 617.222656 245.5 625.472656 244.277344 C 627.601562 243.960938 629.757812 243.800781 631.914062 243.683594 C 639.355469 243.3125 641.710938 245.523438 641.3125 252.859375 C 641.175781 255.40625 640.730469 258.066406 639.792969 260.421875 C 633.914062 275.300781 634.125 290.859375 634.34375 306.433594 C 634.605469 324.757812 635.027344 343.082031 634.996094 361.398438 C 634.921875 398.34375 634.238281 435.292969 634.457031 472.234375 C 634.613281 498.628906 635.800781 525.019531 636.589844 551.402344 C 636.75 556.910156 634.570312 559.625 629.015625 559.429688 C 610.132812 558.765625 591.246094 558.074219 572.371094 557.0625 C 553.363281 556.046875 534.371094 554.785156 515.386719 553.371094 C 495.699219 551.90625 476.03125 550.167969 456.367188 548.46875 C 439.285156 546.996094 422.214844 545.367188 405.128906 543.878906 C 386.316406 542.246094 367.511719 540.585938 348.683594 539.128906 C 330.140625 537.699219 311.578125 536.488281 293.027344 535.21875 C 283.675781 534.585938 274.289062 534.316406 264.984375 533.273438 C 262.820312 533.03125 259.429688 530.535156 259.160156 528.695312 C 257.296875 516.121094 257.753906 503.464844 258.691406 490.609375 Z M 258.699219 490.632812 " fill-opacity="1" fill-rule="nonzero"/><path fill="#ffffff" d="M 262.871094 222.109375 C 264.066406 225.839844 265.960938 230.273438 266.847656 234.902344 C 267.703125 239.367188 267.570312 244.027344 267.796875 248.613281 C 268.164062 256.054688 268.546875 263.488281 268.742188 270.941406 C 268.773438 272.078125 268.132812 273.617188 267.269531 274.324219 C 261.367188 279.195312 259.753906 286.636719 265 293.070312 C 268.3125 297.128906 275.167969 295.964844 278.242188 290.460938 C 279.4375 288.320312 280.617188 285.3125 280.023438 283.195312 C 278.835938 278.925781 281.128906 277.339844 284.039062 275.941406 C 288.132812 273.980469 292.449219 272.476562 296.46875 270.378906 C 297.808594 269.679688 299.128906 267.832031 299.339844 266.351562 C 299.679688 263.960938 298.65625 262.082031 295.890625 264.335938 C 292.351562 267.214844 289.066406 270.433594 285.359375 273.070312 C 283.277344 274.542969 280.378906 276.210938 278.175781 275.84375 C 275.085938 275.324219 272.980469 272.761719 274.46875 268.859375 C 277.5 260.886719 275.257812 253.210938 273.078125 245.484375 C 271.070312 238.34375 269.742188 230.988281 267.496094 223.921875 C 266 219.210938 267.824219 216.511719 271.261719 213.984375 C 273.914062 212.039062 276.4375 209.917969 279.023438 207.882812 C 280.859375 206.4375 282.21875 206.574219 284.179688 208.28125 C 290.304688 213.617188 296.710938 218.617188 303.074219 223.667969 C 319.402344 236.632812 327.4375 252.859375 324.527344 274.210938 C 323.128906 284.464844 319.671875 293.875 313.980469 302.007812 C 309.660156 308.164062 302.878906 312.574219 297.265625 317.84375 C 295.507812 319.496094 293.9375 321.367188 292.410156 323.242188 C 285.820312 331.320312 281.195312 340.324219 277.957031 350.328125 C 275.769531 357.078125 271.964844 363.398438 268.246094 369.523438 C 266.253906 372.808594 262.660156 376.042969 258.503906 374.238281 C 255.109375 372.765625 251.53125 369.929688 249.847656 366.742188 C 247.382812 362.070312 246.15625 356.628906 245.066406 351.386719 C 242.691406 339.992188 238.203125 329.472656 232.535156 319.429688 C 224.96875 306.035156 222.554688 291.769531 225.132812 276.738281 C 226.9375 266.222656 229.433594 255.820312 231.410156 245.328125 C 232.191406 241.203125 232.589844 236.992188 232.792969 232.796875 C 232.925781 230.121094 233.800781 229.402344 236.519531 228.828125 C 244.914062 227.054688 253.167969 224.628906 262.855469 222.101562 Z M 287.335938 229.851562 C 286.78125 234 291.621094 238.058594 295.785156 238.164062 C 296.980469 238.195312 299.03125 235.542969 299.316406 233.886719 C 299.925781 230.332031 294.664062 224.3125 291.492188 224.378906 C 288.027344 224.449219 287.328125 226.851562 287.328125 229.851562 Z M 235.640625 256.1875 C 236.242188 256.675781 237.339844 258.277344 238.691406 258.519531 C 241.285156 258.992188 244.425781 255.488281 243.894531 252.582031 C 243.628906 251.121094 242.136719 249.199219 240.789062 248.777344 C 238.429688 248.027344 235.6875 251.625 235.640625 256.1875 Z M 310.441406 255.65625 C 311.003906 259.667969 312.375 261.9375 315.523438 262.285156 C 318.582031 262.628906 318.898438 259.894531 318.738281 257.84375 C 318.515625 255.082031 317.921875 251.753906 314.222656 251.964844 C 312.898438 252.039062 311.695312 254.355469 310.441406 255.65625 Z M 251.386719 327.75 C 249.554688 325.773438 248.261719 324.375 246.960938 322.976562 C 246.246094 324.277344 244.78125 325.726562 244.992188 326.847656 C 245.292969 328.433594 246.847656 329.773438 247.863281 331.222656 C 248.816406 330.289062 249.757812 329.351562 251.386719 327.75 Z M 275.542969 339.300781 C 274.25 337.785156 273.386719 336.777344 272.515625 335.769531 C 271.582031 337.085938 270.058594 338.347656 269.914062 339.753906 C 269.808594 340.835938 271.433594 342.097656 272.289062 343.277344 C 273.222656 342.128906 274.167969 340.984375 275.542969 339.300781 Z M 259.78125 355.175781 C 255.933594 357.507812 256.273438 359.597656 257.699219 361.59375 C 258.097656 362.144531 259.511719 361.964844 260.453125 362.128906 C 260.25 360.070312 260.054688 358.023438 259.78125 355.183594 Z M 232.980469 283.804688 C 231.746094 285.578125 230.410156 286.710938 230.613281 287.394531 C 230.9375 288.5 232.273438 289.3125 233.183594 290.246094 C 233.957031 289.394531 235.339844 288.539062 235.347656 287.667969 C 235.355469 286.652344 234.175781 285.628906 232.988281 283.796875 Z M 297.128906 308.960938 C 295.371094 307.660156 294.402344 306.441406 293.28125 306.285156 C 292.464844 306.179688 291.464844 307.488281 290.546875 308.164062 C 291.546875 309.183594 292.402344 310.53125 293.613281 311.078125 C 294.183594 311.328125 295.453125 310.019531 297.117188 308.960938 Z M 297.128906 308.960938 " fill-opacity="1" fill-rule="nonzero"/><g clip-path="url(#69dd0861d1)"><path fill="#ffffff" d="M 576.898438 72.929688 C 575.242188 72.929688 574.117188 72.597656 573.371094 72.980469 C 556.121094 81.722656 538.941406 90.621094 521.667969 99.328125 C 512.640625 103.882812 503.390625 108.015625 494.355469 112.539062 C 483.871094 117.792969 473.558594 123.378906 463.066406 128.617188 C 453.355469 133.457031 443.492188 137.980469 433.730469 142.71875 C 413.390625 152.609375 393.238281 162.898438 372.707031 172.375 C 353.570312 181.207031 335.53125 191.835938 317.867188 203.214844 C 312.304688 206.800781 310.472656 206.445312 303.640625 199.984375 C 302.023438 198.449219 300.738281 196.554688 299.070312 194.554688 C 304.683594 191.046875 310.019531 187.605469 315.46875 184.355469 C 326.488281 177.773438 337.523438 171.203125 348.660156 164.816406 C 352.855469 162.410156 357.335938 160.492188 361.730469 158.433594 C 373.636719 152.847656 385.664062 147.503906 397.472656 141.703125 C 423.5 128.933594 449.394531 115.914062 475.390625 103.078125 C 481.382812 100.117188 487.621094 97.664062 493.582031 94.644531 C 507.378906 87.667969 521.023438 80.378906 534.828125 73.417969 C 547.652344 66.953125 560.648438 60.828125 573.492188 54.378906 C 583.773438 49.214844 593.90625 43.757812 604.136719 38.492188 C 610.222656 35.371094 616.34375 32.335938 622.492188 29.34375 C 623.355469 28.929688 624.460938 29.019531 626.25 28.75 C 622.273438 35.417969 619.019531 41.40625 615.273438 47.058594 C 606.757812 59.917969 598.214844 72.765625 589.261719 85.316406 C 582.992188 94.117188 576.09375 102.484375 569.335938 110.929688 C 565.871094 115.246094 561.910156 119.175781 558.484375 123.527344 C 551.597656 132.261719 541.707031 136.375 532.167969 141.046875 C 517.941406 148.007812 503.667969 154.886719 489.378906 161.71875 C 477.1875 167.542969 464.914062 173.1875 452.722656 179.011719 C 443.304688 183.507812 433.96875 188.175781 424.582031 192.746094 C 422.972656 193.535156 421.296875 194.195312 418.578125 195.382812 C 420.28125 192.136719 421.476562 189.941406 422.597656 187.703125 C 424.238281 184.433594 425.605469 181.003906 427.535156 177.914062 C 428.511719 176.351562 430.292969 175.089844 431.976562 174.203125 C 448.542969 165.46875 465.148438 156.808594 481.789062 148.203125 C 498.910156 139.34375 516.378906 131.097656 533.085938 121.515625 C 540.242188 117.410156 546.441406 111.140625 552.027344 104.910156 C 560.007812 96.027344 567.027344 86.285156 574.425781 76.890625 C 575.273438 75.816406 575.882812 74.574219 576.882812 72.953125 Z M 576.898438 72.929688 " fill-opacity="1" fill-rule="nonzero"/></g><path fill="#ffffff" d="M 567.171875 162.214844 C 539.179688 171.375 512.101562 183.085938 484.472656 193.242188 C 456.871094 203.394531 429.503906 214.179688 402.027344 224.695312 C 401.761719 224.351562 401.5 224.019531 401.230469 223.679688 C 404.273438 218.609375 407.730469 213.738281 410.257812 208.421875 C 413.128906 202.367188 418.140625 200.101562 423.964844 197.984375 C 439.34375 192.390625 454.511719 186.207031 469.820312 180.394531 C 481.644531 175.894531 493.574219 171.675781 505.410156 167.183594 C 520.21875 161.574219 534.957031 155.78125 549.75 150.144531 C 564.8125 144.414062 579.917969 138.800781 594.980469 133.066406 C 602.144531 130.339844 609.246094 127.445312 616.402344 124.679688 C 617.265625 124.347656 618.265625 124.363281 620.519531 124.015625 C 618.875 126.910156 617.996094 129.097656 616.582031 130.855469 C 606.667969 143.167969 596.851562 155.570312 586.59375 167.589844 C 576.378906 179.570312 565.929688 191.363281 555.117188 202.816406 C 547.359375 211.039062 538.007812 216.488281 526.359375 218.335938 C 517.894531 219.675781 509.769531 223.09375 501.457031 225.441406 C 484.246094 230.316406 467.003906 235.082031 449.785156 239.929688 C 445.011719 241.269531 440.277344 242.742188 435.113281 244.277344 C 436.871094 238.953125 438.425781 233.894531 440.269531 228.949219 C 440.554688 228.175781 442.09375 227.726562 443.132812 227.394531 C 453.648438 223.988281 464.175781 220.613281 474.707031 217.285156 C 488.175781 213.03125 501.652344 208.820312 515.128906 204.613281 C 517.722656 203.800781 520.316406 202.9375 522.976562 202.394531 C 532.738281 200.367188 539.699219 194.261719 546.140625 187.144531 C 553.3125 179.222656 560.761719 171.5625 568.089844 163.777344 C 567.78125 163.257812 567.480469 162.746094 567.171875 162.222656 Z M 567.171875 162.214844 " fill-opacity="1" fill-rule="nonzero"/></svg>