<?xml version="1.0" encoding="utf-8"?>
<!-- Generator: Adobe Illustrator 28.0.0, SVG Export Plug-In . SVG Version: 6.00 Build 0)  -->
<svg version="1.1" xmlns="http://www.w3.org/2000/svg" xmlns:xlink="http://www.w3.org/1999/xlink" x="0px" y="0px"
	 viewBox="0 0 1920 1080" style="enable-background:new 0 0 1920 1080;" xml:space="preserve">
<style type="text/css">
	.st0{display:none;}
	.st1{fill:#CD2222;}
	.st2{fill:#FFFFFF;}
	.st3{fill:none;stroke:#FFFFFF;stroke-width:22.1538;stroke-miterlimit:8.1486;}
</style>
<g id="Layer_1" class="st0">
</g>
<g id="Layer_2">
	<path class="st1" d="M509.4,592.8c-0.1,1.9-0.8,3.4-1.8,4.7c-2.1,3-4.6,5.6-7.4,7.9c-1,0.8-2,1.6-3.1,2.3c-2,1.3-4,2.5-6.1,3.7
		c-2.1,1.2-4.3,2.2-6.4,3.5c-2.5,1.5-4.9,3-7.3,4.7c-1.6,1.1-3.1,2.4-4.4,3.8c-1.2,1.1-1,1.7,0,2.9c2.5,3.1,5.4,5.9,8.1,8.9
		c1.6,1.8,3,3.8,4.5,5.7c0.4,0.5,0.9,1,1.4,1.4c1.8,1.5,2.8,3.6,4.2,5.4c0.6,0.8,1.4,1.3,1.9,2.1c2.3,3,4.5,6.1,6.8,9.2
		c1.6,2.1,3.2,4.2,4.7,6.4c0.5,0.7,1,1.6,1.5,2.3c1.4,2.2,3.3,4.1,4.2,6.7c0.5,1.2,1.6,2.2,2.4,3.2c0.1,0.1,0.2,0.2,0.3,0.3
		c0.9,1.8,1.8,3.7,2.8,5.5c0.9,1.7,2,3.4,3,5.1c1.3,2.3,2.5,4.6,3.8,6.9c-0.1,0.1-0.2,0.2-0.3,0.4c-0.7-0.3-1.6-0.5-2.2-1
		c-2.9-2.1-6-3.7-9.1-5.2c-3.5-1.8-7.2-3.2-10.6-5.2c-2.6-1.5-5.5-2.3-8.1-3.8c-1.8-1-4-1.5-6-2.2c-1.5-0.6-2.9-1.4-4.4-2.1
		c-3-1.2-6-2.3-9-3.5c-0.3-0.1-0.6-0.1-0.8-0.2c-1.8-0.8-3.5-1.7-5.3-2.4c-3-1.1-6-2.2-8.9-3.5c-2.7-1.2-5.5-1.9-8.3-2.8
		c-2-0.7-4.1-1.2-5.9-2.4c-0.5-0.4-1.2-0.5-1.8-0.7c-2.6-0.9-5.3-1.8-7.9-2.8c-2.1-0.7-4.1-1.5-6.1-2.4c-1.6-0.7-3.4-1-5.2-1.4
		c-2.2-0.5-4.4-0.8-6.5-1.4c-2.3-0.7-4.7-0.8-7-1.4c-1.5-0.4-3.2-0.1-4.4-0.7c-2.1-1.2-4.4-0.2-6.4-1.2c-0.4-0.2-1-0.1-1.5-0.1
		c-1.7-0.1-3.5,0.3-5.2-0.6c-0.7-0.4-1.7,0-2.6-0.1c-10.8-0.9-21.7-0.6-32.6-0.6c-1.8,0-3.6,0.4-5.4,0.5c-1.8,0.1-3.7-0.4-5.3,0.1
		c-2.2,0.7-4.5,0.5-6.7,0.6c-2,0.1-4.1-0.1-5.8,0.7c-1.8,0.9-3.9,0.2-5.6,1.4c-0.4,0.2-1,0.1-1.5,0.1c-1.8,0-3.4,0.5-5,1.1
		c-0.3,0.1-0.7,0.3-1,0.2c-2.6-0.1-4.9,1.1-7.3,1.6c-1.3,0.3-2.7,0.5-3.9,1.1c-1.6,0.8-3.6,0.9-4.8,2.5c1.1,1.8,2.2,3.6,3.2,5.4
		c0.1,0.2,0.1,0.5,0.3,0.6c2.9,2.1,4.6,5.5,7.8,7.2c1.1,0.6,2,1.7,3,2.4c2.5,1.7,5.1,3.4,7.7,5.1c2.2,1.4,4.5,2.8,7,4.4
		c-0.8,1.3-1.5,2.5-2.3,3.7c-1.8,2.7-3.4,5.5-6,7.5c-1.7,1.3-3.3,2.9-5.1,3.9c-1.2,0.6-2.7,1-4,1.5c-3.1,1.3-6.4,1.6-9.7,1.6
		c-3.5,0-7-0.2-10.5-0.7c-1.2-0.2-2.4-0.7-3.6-1c-2.9-0.7-5.7-1.6-8.4-2.5c-2.3-0.8-4.6-1.9-6.9-2.9c-1.6-0.7-3.2-1.3-4.8-1.9
		c-1.7-0.6-3.4-1.2-5-1.8c-1.3-0.5-2.4-0.5-3.4,0.5c-0.7,0.6-1.5,1.1-2.3,1.6c-1.8,1-3.6,2.1-5.5,2.9c-2,0.9-4,1.5-6.1,2.1
		c-1.9,0.5-3.8,0.8-5.6,1.4c-1.5,0.5-3.2,0.3-4.4,0.8c-2.5,1.1-5,0.5-7.5,0.8c-0.9,0.1-1.9,0.6-2.8,0.5c-3.3-0.4-6.6-0.2-9.8-0.7
		c-2.7-0.4-5.2-1.8-7.8-2.8c-1.9-0.7-2.6-2.5-1.5-4.7c0.8-1.5,1-3.3,2.2-4.7c0.2-0.2,0.2-0.6,0.4-0.7c2.2-2.1,4.5-4.1,6.6-6.3
		c0.5-0.5,0.7-1.3,1.1-2c0.5-0.8,0-1.2-0.3-1.9c-1-2.2-2.9-3.3-4.7-4.3c-3.6-2-7.5-3.7-11.2-5.6c-0.8-0.4-1.4-1.1-2.2-1.6
		c-3.1-1.7-5.4-4.2-7.7-6.7c-1.6-1.7-1.1-3.7-0.4-5.5c0.6-1.5,2-2.2,3.6-2.5c0.4-0.1,0.9-0.1,1.3,0c3.4,0.5,6.7-0.3,9.6-1.8
		c1.8-0.9,3.1-2.6,4.5-4.1c0.2-0.2,0.1-0.9,0-1.2c-0.3-0.9-0.7-1.8-1.3-2.5c-1-1.3-2-2.6-3.1-3.8c-3-3.1-6-6.2-9.1-9.1
		c-1-1-2.3-1.7-3.4-2.6c-0.5-0.3-0.9-0.6-1.4-0.9c-2.5-1.9-4.7-4.1-7.6-5.4c-1.2-0.5-2.1-1.7-3.1-2.6c-1.2-1-2.5-1.9-3.8-2.8
		c-2.3-1.7-4.5-3.4-6.8-5c-3.3-2.2-6.1-5.1-9.2-7.6c-1.9-1.5-3.5-3.2-5.2-4.8c-1.3-1.1-2.1-2.7-3.2-4c-0.5-0.6-1.2-1-1.8-1.6
		c-0.7-0.7-1.4-1.4-1.7-2.4c-0.3-0.8-1-1.6-1.5-2.3c-0.2-0.4-0.6-0.6-0.8-1c-1.9-3.5-3.8-7-5.5-10.6c-1.1-2.1-2.1-4.4-2.8-6.6
		c-0.7-2.2-0.8-4.7-1.6-6.9c-0.5-1.6,0-3.4-1.1-4.8c-0.1-0.1-0.1-0.4-0.1-0.6c-0.2-3.8-0.4-7.6-0.6-11.4c0-0.4,0-0.7,0-1.1
		c0.2-4.7,0.3-9.5,0.6-14.2c0.1-0.9,0.6-1.7,1-2.6c1-2.5,2-5.1,2.9-7.6c0.4-1.1,0.7-2.2,1.1-3.2c0.6-1.4,1.3-2.8,1.8-4.3
		c1-2.6,1.7-5.3,2.8-7.9c1-2.3,2.3-4.4,3.5-6.6c-2.1-3.5-4.4-6.7-7.5-9.1c-2.2-1.7-4.6-3.7-7.9-3.8c0.1-0.6,0-1.1,0.2-1.5
		c0.9-1.5,1.9-2.9,3-4.3c2.2-2.9,4.6-5.8,6.8-8.8c0.8-1.2,1.5-2.8,1.6-4.2c0.1-1.2-0.7-2.5-1.4-3.5c-1.3-1.9-3.5-2.8-5.6-3.5
		c-1.8-0.7-3.7-1.3-5.3-2.5c-1-0.7-2.3-1.2-3.5-1.5c-1.2-0.3-1.8-1.1-2.6-1.9c0.4-1.4,1-2.4,2-3.4c1.1-1,2-2.2,3.1-3.1
		c2.3-1.9,4.6-3.9,7.7-4.7c0.5-0.1,1-0.6,1.5-0.7c1.3-0.3,2.5-1,4-0.9c2,0.1,3.4-1.4,4.3-3c1.3-2.2,2.9-4.2,4.4-6.3
		c0.9-1.2,1.5-2.6,2.8-3.5c1.6-1.1,3-2.3,4.7-3.3c1.3-0.7,2.8-1.2,4.2-1.6c2.4-0.7,4.8-1.5,7.2-2c2.3-0.4,4.8-0.5,7.2-0.7
		c1.1-0.1,2.1,0.1,3.1-0.7c0.5-0.4,1.4-0.2,2.1-0.2c1.6-0.1,3.4,0.4,4.9-0.7c0.3-0.2,0.9-0.1,1.3-0.1c2.4,0,4.7-0.1,7.1,0
		c1.6,0.1,3.1,0.6,4.6,0.9c0.8,0.2,1.5,0.5,2.2,0.6c0.8,0.2,1.7,0.3,2.5,0.5c2.1,0.7,4.3,0.9,6.3,2c1.4,0.8,3.1,1,4.7,1.5
		c0.2,0.1,0.5,0,0.6,0.1c1.9,1.8,4.5,2,6.6,3.4c1.1,0.7,2.4,1.3,3.6,1.9c0.1,0.1,0.3,0.1,0.4,0.2c1.7,2.4,4.7,3.5,6.6,5.6
		c1.6,1.8,3.4,3.4,4.8,5.3c1.5,2,2.7,4.2,3.9,6.4c0.8,1.3,1.6,2.7,2.3,4.1c0.2,0.3,0.3,0.7,0.3,1c0.1,0.3-0.1,0.7,0,0.9
		c1.3,2.2,1.2,4.9,2.5,7.2c0.1,0.2,0.2,0.6,0.2,0.8c-0.2,3.8,1.2,7.5,0.8,11.3c-0.2,1.3,0,2.7,0,4c-0.1,1.4,0.3,2.7-0.6,4
		c-0.4,0.5-0.2,1.4-0.1,2.2c0.4,2.4-0.4,4.7-1.2,6.9c-0.5,1.4-0.1,2.5,0.5,3.5c1,1.9,2.3,3.8,3.5,5.6c0.1,0.1,0.2,0.2,0.3,0.3
		c2,2,3.9,3.9,5.9,5.8c0.3,0.3,0.7,0.4,1.2,0.7c0,3.1,0.3,6.2-0.1,9.3c-0.3,2.4-0.1,4.8-0.6,7.2c-0.6,3-0.5,6.1-1.3,9
		c-0.7,2.6-1.1,5.3-1.8,8c-0.8,3-1.8,6.1-1.7,9.3c0,1.4-0.5,2.8-0.7,4.2c-0.1,1.5,0,3.1-0.1,4.6c-0.1,0.8-0.6,1.7-0.5,2.5
		c0.4,3,0.1,6.1,1.2,9c0.1,0.3,0,0.7,0.1,1.1c0.2,1.1,0.2,2.3,0.6,3.4c1.4,3.7,2.2,7.6,4,11.2c1.6,3.3,2.9,6.8,4.7,10.1
		c-0.4,1.5,1,2.1,1.4,3.3c0.4,1.2,1.2,2.2,1.8,3.4c0.5,1.2,1,2.4,1.4,3.6c0.7,2.2,1.4,4.5,2,6.7c0.4,1.5,0.7,3,0.7,4.5
		c-0.1,2.3,0.1,4.6,0.9,6.6c1.2,2.9,2.1,5.8,3.9,8.5c2.1,3.1,4.9,5.3,7.6,7.5c1.2,1,3,1.4,4.5,2c3.1,1.2,6.3,0.8,9.5,0.7
		c1.2,0,2.5-0.5,3.7-1c3.5-1.4,6.2-3.5,7.6-7.2c1.6-4,3.6-7.8,5.1-11.8c0.8-2,1.8-3.8,2.9-5.6c1-1.6,1.5-3.5,2.2-5.3
		c1-2.5,2.6-4.6,4.1-6.8c2.2-3.1,5.2-5.5,7.7-8.3c0.7-0.8,1.2-1.7,1.6-2.6c1.3-0.8,2.4-1.8,3.3-3.3c0.9-1.5,2.3-2.8,3.3-4.3
		c1.2-1.9,2.4-3.9,3.1-6.1c0.7-1.8,1.6-3.4,2.7-4.9c0.7-1.1,1-2.3,1.6-3.4c0.7-1.3,1.5-2.6,2.2-3.9c2-3.6,3.5-7.3,4.9-11.1
		c0.6-1.6,1.6-3.2,2.2-4.8c0.6-1.5,0.9-3.2,1.3-4.8c1.8-6.9,1.3-13.9,1.3-20.9c0-2.6-0.7-5.1-1.6-7.6c-0.5-1.3-0.7-2.6-1.1-3.9
		c-0.1-0.2,0-0.5-0.1-0.6c-1.2-2.2-2.4-4.4-3.7-6.5c-1.3-2.1-2.8-4.2-4.5-6c-0.9-0.9-1.5-2.2-3.2-2.8c0.9-0.7,1.3-1.3,1.9-1.6
		c2.3-1.1,4.7-2,7.2-2.8c0.6-0.2,1.2-0.5,1.8-0.8c2.3-1.5,4.9-2.2,7.4-3.3c2.2-0.9,4.3-2,6.5-2.7c1.1-1.9,3.3-1.6,4.8-2.5
		c1.5-0.9,3.5-0.9,5-1.8c1.5-0.8,3.2-1,4.6-2.2c1-0.9,2.6-1.5,3.9-1.6c2-0.2,3.6-1.3,5.5-1.9c2.8-0.8,5.5-1.8,8.3-2.6
		c2.4-0.7,4.7-1.4,7.2-1.3c1.2,0,2.4-0.3,3.7-0.4c0.2,0,0.4,0.1,0.7,0.3c-1.1,1.9-1.4,4.2-3.2,5.8c-0.9,0.9-1.6,2.2-2.1,3.5
		c-1.1,2.8-3.3,5.1-4.5,7.9c-1,2.3-2.6,4.2-3.9,6.3c-1.3,2.1-2.7,4.2-4,6.3c-1.1,1.9-2,3.8-3,5.7c-0.5,0.9-1,1.9-1.5,2.9
		c1.7,1,3.3,1.9,5.3,1.9c2,0,3.9,0.5,5.8,0.5c2.5,0,5.1-0.3,7.6-0.6c1.1-0.1,2.1-0.5,3.1-0.7c1.2-0.2,2.4-0.3,3.6-0.5
		c0.8-0.1,1.7-0.4,2.5-0.5c1.4-0.1,2.7-0.2,4.1-0.3c-0.1,3-1.5,5.4-2.6,7.8c-1.1,2.5-2.1,5.2-3.2,7.7c-0.9,1.9-1.9,3.7-2.9,5.4
		c-1.1,1.8-2.4,3.6-3.6,5.3c-1,1.5-2.1,2.9-3.2,4.3c-2.4,3.1-4.7,6.3-7.6,9c-1,0.9-1.9,2-2.9,2.9c-1,0.9-2.1,1.5-3.1,2.4
		c-2.5,2.1-4.9,4.3-7.3,6.5c-1.2,1.1-2.3,2.2-3.7,3.1c-1.2,0.7-2.3,1.5-3.3,2.4c-1.2,1.1-1.4,2.4-0.8,3.8c1.2,2.7,1.9,5.6,3.7,8
		c1.2,1.6,2.2,3.3,3.1,5.1c1.6,2.9,4.1,4.8,6.4,7c1.7,1.7,4,2.7,6.1,3.9c0.5,0.3,1.1,0.7,1.6,0.9c1.4,0.7,2.7,1.4,4.1,2.1
		c0.6,0.3,1.2,0.3,1.9,0.5c3.1,1,6.1,2,9.4,2.2c1.4,0.1,3,0,4.3,1.2c0.3,0.3,1,0.2,1.5,0.2c7.9,0,15.7,0,23.6,0
		c0.6,0,1.2-0.3,1.8-0.5c0.3-0.1,0.7-0.3,1-0.3c3.2-0.2,6.4-0.3,9.6-0.6c2-0.2,4-0.7,5.9-1c0.4-0.1,0.7-0.3,1.1-0.2
		c3.2,0.2,6.3-0.7,9.4-1.3c0.3-0.1,0.6-0.1,0.9,0c2.9,0.2,5.7-0.7,8.5-1.2c0.5-0.1,1-0.1,1.5-0.1c2.7,0.2,5.2-0.6,7.7-1.5
		c0.2-0.1,0.4-0.1,0.7-0.1c2.6-0.1,5.2,0.1,7.8-0.5c1.1-0.3,2.3,0.1,3.4-0.7C507.6,592.6,508.4,592.8,509.4,592.8L509.4,592.8z
		 M176.3,453.2c0,0.2-0.1,0.3-0.1,0.5c0.2,0.3,0.4,0.6,0.7,0.8c4.7,3.7,14.1,1.5,16.7-4c0.8-1.8,0.9-3.5-0.2-5.2
		c-1.7-2.6-6.2-3.9-9.3-2.6c0.3,0.4,0.7,0.8,1,1.2c1.9,2.4,1.8,6-1.3,8c-1.4,0.9-2.9,1.3-4.6,1.3
		C178.2,453.2,177.3,453.2,176.3,453.2L176.3,453.2z"/>
	<path class="st1" d="M304,542.2c-0.9,0.6-2,1.3-3,1.9c-0.2,0.2-0.5,0.3-0.6,0.6c-1.1,2.7-2.7,5.3-2.1,8.4c0.2,1.3,0.5,2.4,1.2,3.4
		c0.2,0.3,0.6,0.5,0.7,0.8c0.7,2.3,2.6,2.8,4.5,3c1.9,0.2,3.6-0.5,5-1.9c1.8-1.7,2.9-3.6,3.2-6.2c0.1-1.1,0.4-2,0-3.2
		c-0.6-1.6,0.1-2.1,1.8-3.3c2.4-1.7,5.3-2.5,7.7-4.2c0.9-0.6,2.1-0.9,3.2-1.1c2.6-0.5,4.1-3.3,2.9-5.6c-0.2-0.4-0.7-0.6-1.1-0.9
		c-2.8,1-4.3,3.3-6.3,5.1c-2.7,2.4-5.7,4.5-9.1,5.9c-1.4-1.1-2.8-2-3.8-2.8c0.2-1.4,0.4-2.3,0.5-3.3c0.1-0.7-0.2-1.4,0.6-2
		c0.3-0.2,0.3-0.9,0.3-1.4c0-2.6,0.1-5.3,0-7.9c-0.1-1.4-0.7-2.9-1-4.3c-0.8-3.1-2-6-2.5-9.1c-0.3-2-1.2-3.9-1.8-5.9
		c-0.5-1.7-0.8-3.4-1.1-5.2c-0.3-1.5-0.3-3-0.7-4.5c-0.3-0.9,0-1.2,0.7-1.7c1.6-1.2,3.2-2.4,4.8-3.6c2.2-1.7,4.4-3.4,6.8-5.2
		c1.5,1.6,2.8,3.1,4.2,4.5c2.1,2.1,4.6,3.7,7.1,5.3c0.4,0.2,0.8,0.4,1.1,0.7c1.4,1.9,3.5,2.9,5.4,4.2c0.2,0.2,0.5,0.3,0.7,0.5
		c2.4,2.4,4.9,4.8,7.1,7.4c1.9,2.3,3.4,5,4.9,7.7c1.5,2.7,2.2,5.6,3.4,8.4c0.7,1.7,0.6,3.7,0.7,5.6c0.1,2,0.1,4,0,6
		c-0.1,2.7-0.3,5.4-0.6,8c-0.2,1.4-1,2.6-1.3,4c-0.3,1.2-0.3,2.6-1.4,3.6c1,2-1.1,2.9-1.6,4.4c-0.5,1.6-1.1,3.2-2.1,4.4
		c-0.7,0.9-1.5,1.7-1.6,2.9c0,0.3-0.5,0.7-0.8,1c-3.5,3.5-7,7-10.5,10.5c-0.4,0.4-0.9,0.8-1.4,1c-2.1,0.7-3.4,2-4.4,3.9
		c-0.6,1.1-1.5,2.1-2.2,3.1c-1.2,1.6-2.4,3.2-3.5,4.8c-1.1,1.7-2.1,3.4-2.9,5.2c-1.1,2.3-2.1,4.7-2.9,7.1c-1,3-1.5,6.1-3.4,8.7
		c-0.2,0.3-0.2,0.7-0.2,1.1c0,0.7-0.1,1.2-0.9,1.5c-0.4,0.1-1.4,0.7-0.8,1.7c0.1,0.1-0.2,0.5-0.3,0.7c-1,1.4-1.9,2.9-2.9,4.2
		c-1.2,1.7-3,3.4-4.9,4.1c-2.3,0.9-4.9,0.2-6.8-1.7c-1.8-1.7-3.1-3.6-4-6c-1.1-3-2-6.1-2.6-9.2c-0.5-2.5-1.4-4.9-2-7.4
		c-0.7-2.8-1.6-5.6-2.8-8.3c-1-2.1-1.9-4.3-2.9-6.4c-1.6-3.2-3.3-6.4-4.9-9.6c-1-2.1-1.9-4.3-2.6-6.5c-0.7-2.2-1-4.5-1.4-6.7
		c-0.9-4.8-0.5-9.5-0.4-14.2c0.1-2.4,0.1-5,1.1-7.4c0.5-1.4,0.5-3,0.7-4.5c0.3-1.6,0.6-3.2,1-4.8c0.4-1.5,0.9-2.9,1.3-4.3
		c0.5-1.8,0.9-3.6,1.3-5.4c0.3-1.3,0.6-2.5,0.8-3.8c0.3-2.5,0.4-5.1,0.6-7.6c0-0.7-0.1-1.3,0-2c0.1-0.9,0.6-1.6,1.7-1.6
		c2-0.1,4-0.4,6.1-0.6c0.4,0,0.7-0.1,1.1-0.2c1.7-0.6,3.3-1.7,5-1.8c3.1-0.2,5.4-1.9,8-3.1c1.1-0.5,1.5-0.3,2.1,0.5
		c1.2,1.6,1.5,3.7,2.6,5.3c0,0.1,0.1,0.1,0.1,0.2c0.3,1.8,0.6,3.7,0.8,5.5c0.8,6.1,0.5,12.3,0.6,18.4c0,0.1,0,0.3,0,0.4
		c1.6,2.8,0.6,5.8,0.9,8.8C303.8,540.6,303.9,541.3,304,542.2L304,542.2z M328.7,510.4c0.2-2.5-2.4-6.3-5-7.3
		c-1.8-0.7-4.2,0-4.6,1.7c-0.3,1.3-0.5,3,0,4.3c1.1,2.9,3.5,4.6,6.6,5.1c0.3,0,0.7-0.1,1-0.2C328.3,513.3,328.7,512,328.7,510.4
		L328.7,510.4z M277.8,530.6c2.2,0.8,4-0.2,5-2c0.9-1.6,1.8-3.4,0.2-5.2c-0.8-1-2.7-1.4-3.7-0.6
		C277.2,524.7,275.6,527.7,277.8,530.6L277.8,530.6z M338.2,529c-0.5,1.6,0.4,2.9,1.8,4c1.6,1.2,3.4,0.5,4-1.4
		c0.8-2.3-0.2-4-1.1-5.8c-0.5-1.1-1.6-1.2-2.5-1.2c-1.2,0-2.1,1.3-2.2,2.5C338.2,527.7,338.2,528.2,338.2,529L338.2,529z
		 M284.3,585.5c0,2.4,0.1,2.7,1.4,3.6c1,0.7,2.4,0.4,3-0.7c0.6-1.2-0.3-4.9-1.3-5.7c-1.1-0.8-2.8-0.2-3.1,1.2
		C284.3,584.4,284.3,585,284.3,585.5L284.3,585.5z M305.5,592.9c-1.2,1.4-1.1,2.8-1,4.3c0.1,1.4,0.7,2,2,2c1.4,0,2.1-0.6,2.2-2.1
		c0-0.5,0-1,0-1.5C308.7,593,308.3,592.6,305.5,592.9L305.5,592.9z M296.2,615.3c0.5-0.6,1.2-1,1.3-1.5c0.2-0.8,0.1-1.8,0-2.6
		c-0.1-0.8-1.7-1.9-2.3-1.8c-1.1,0.4-1.2,1.2-1.3,2.3C293.9,613.3,294.9,614.2,296.2,615.3z M277,555.3c0.1-2.5-0.1-3.1-1.3-3.4
		c-1.4-0.3-2.5,0.1-2.8,1c-0.5,1.2,0,2.1,1.9,3.4C275.5,556,276.2,555.7,277,555.3L277,555.3z M321.9,569.4c-0.3,2.4-0.1,3.1,1,3.4
		c1,0.3,2.6-0.1,3-0.9c0.7-1.8-0.9-2.3-1.6-3.2C323.4,569,322.6,569.2,321.9,569.4L321.9,569.4z"/>
	<path class="st1" d="M426,478.6c0.2-0.6,0.2-1.2,0.4-1.5c1.5-1.9,2.1-4.3,3.8-6c1.1-1.1,1.7-2.7,2.2-4.2c0.8-2.5,2.4-4,4.7-5.2
		c2.9-1.5,5.7-3.1,8.5-4.6c2-1,4-1.9,6-2.9c1.9-0.9,4.1-1.5,5.6-3.2c0.2-0.2,0.5-0.2,0.8-0.3c2.9-1,5.5-2.8,8.3-4
		c2.7-1.2,5.5-2.6,8.1-4.1c1.4-0.8,3-1.2,4.2-2.4c0.9-0.9,2.2-1.2,3.4-1.8c5.4-2.7,10.9-5.3,16.2-8c2.5-1.3,4.8-2.8,7.3-4.1
		c4.5-2.3,9.2-4.4,13.7-6.7c2.9-1.5,5.3-3.7,7.5-6.1c0.8-0.9,1.8-1.7,2.6-2.7c1.8-1.9,3.5-3.9,5.2-5.8c1.9-2.1,3.7-4.2,5.6-6.3
		c0.9-1.1,1.8-2.2,2.7-3.4c2.5-3.5,5.6-6.6,7.7-10.4c0.6-1,1.4-1.9,2.1-2.7c0.7-0.8,0.8-1.6,0.4-2.6c-1.4,0.4-2.7,0.6-3.8,1.8
		c-0.8,0.9-2.4,1.1-3.7,1.6c-1.7,0.8-3.4,1.5-5,2.4c-1.3,0.7-2.5,1.7-3.8,2.3c-1.7,0.8-3.6,1.4-5.4,2.1c-0.3,0.1-0.6,0.4-0.9,0.6
		c-2,1.3-4.2,2.3-6.4,3.3c-3.1,1.3-5.9,3.1-8.9,4.6c-2.5,1.3-4.8,2.9-7.4,3.9c-2.9,1.1-5.5,2.7-8.3,4c-2.9,1.4-5.7,3-8.7,4.2
		c-2.1,0.8-3.9,2.3-6,3.1c-2.4,0.9-4.3,2.9-7,3.3c-0.7,0.1-1.4,0.5-1.9,0.9c-1.9,1.7-4.3,2.4-6.6,3.5c-2.8,1.4-5.8,2.3-8.3,4.4
		c-0.9,0.8-2.4,1-3.5,1.5c-3.2,1.5-6.3,3.1-9.4,4.7c-2.4,1.2-4.7,2.8-7.3,3.7c-2.4,0.8-4.6,1.8-6.8,3.2c-0.9,0.6-2,0.7-3,1.2
		c-0.8,0.4-1.4,0.9-2.1,1.4c-0.3,0.2-0.6,0.5-0.9,0.6c-3.5,1.1-6.7,2.9-9.9,4.7c-1.9,1-3.9,1.9-5.8,2.8c-4,2-8,4.2-12.1,6.1
		c-4.4,2-8.6,4.3-13,6.1c-4.7,1.9-9.3,4.2-13.7,6.6c-4.2,2.3-8.5,4.4-12.5,7c-2.2,1.4-4.5,2.6-6.6,4c-2.4,1.5-4.5,3.3-7,4.5
		c-2.5,1.3-4.7,2.9-7.1,4.3c-0.4,0.2-0.8,0.2-0.9,0.3c-4-2.5-7.2-5.5-10-9c0.2-0.3,0.4-0.8,0.8-1c2.1-1.2,4.4-2.1,6.4-3.5
		c2.8-2.1,6-3.6,8.9-5.6c2.7-1.8,5.4-3.4,8.3-4.8c1.2-0.5,2.1-1.5,3.2-2.1c3.7-2.1,7.6-4,11.2-6.3c1.5-1,3.3-1.4,4.8-2.3
		c2.6-1.4,5.3-2.6,7.9-3.8c3-1.4,5.9-2.8,8.9-4.2c1.4-0.7,2.9-1.2,4.3-1.9c1.7-0.8,3.4-1.7,5.1-2.6c2.4-1.2,4.9-2.4,7.4-3.6
		c3.8-1.9,7.6-3.8,11.4-5.6c1.9-0.9,3.8-1.8,5.8-2.8c2.7-1.3,5.4-2.6,8.1-3.9c3.5-1.7,7.1-3.4,10.6-5.2c2.7-1.3,5.4-2.8,8.1-4.1
		c4.6-2.3,9.3-4.5,13.9-6.8c2.6-1.3,5.1-2.7,7.7-3.9c2.7-1.2,5-3,7.9-3.7c1.8-0.5,3.2-2,4.9-2.6c2.5-0.9,4.4-2.9,7-3.6
		c2.2-0.5,3.7-2.4,6.1-2.6c0.6,0,1.1-0.6,1.6-1c0.7-0.5,1.3-1.2,2.1-1.5c6-2.3,11.4-5.9,17.4-8.5c2.6-1.1,5.1-2.3,7.7-3.5
		c2.3-1,4.3-2.5,6.5-3.7c2.4-1.2,4.6-2.6,7.3-3.2c0.6-0.2,1.1-1,1.7-1.3c2.6-1.2,5.2-2.3,7.8-3.5c1.3-0.6,2.5-1.4,3.7-2.1
		c0.8-0.4,1.4-1,2.2-1.3c1.9-0.9,4-1.6,5.8-2.7c1.3-0.8,2.6-1.3,3.9-2c1.2-0.7,2.6-1.1,3.8-1.8c1.2-0.8,2.8-1,4.1-1.7
		c0.9-0.5,1.7-1.3,2.6-1.8c2.3-1.2,4.7-2.6,7.2-3.5c2.1-0.8,3.8-2.3,5.8-3.3c1.1-0.5,2.3-1.3,3.8-0.7c0,1.6-1.1,2.7-1.9,3.8
		c-1.8,2.6-3.5,5.2-4.9,8.1c-0.8,1.7-2.2,3.1-3.2,4.8c-2.3,3.8-5.1,7.3-7.2,11.2c-1.3,2.4-3.3,4.5-4.6,6.9c-1.3,2.3-3.4,4-4.5,6.5
		c-0.5,1.1-1.5,2-2.2,2.9c-1.5,2-3.3,3.8-4.5,6c-1.4,2.6-3.8,4.5-5.2,7.1c-0.9,1.6-2.5,2.8-3.6,4.3c-1.7,2.1-3.2,4.2-4.9,6.3
		c-0.7,0.9-1.6,1.7-2.4,2.5c-2.6,2.6-4.8,5.6-7.4,8.2c-2.8,2.9-5.9,5.1-9.3,7c-3.1,1.7-6.4,3.3-9.6,4.8c-3.5,1.6-7.1,3.1-10.6,4.7
		c-2.5,1.2-5,2.5-7.5,3.8c-1.1,0.5-2.4,0.6-3.4,1.3c-3.6,2.5-7.8,3.8-11.7,5.9c-2.5,1.3-5,2.5-7.5,3.8c-0.5,0.2-1,0.4-1.6,0.6
		c-0.6,0.2-1.4,0.3-1.8,0.7c-1.6,1.7-3.9,2-5.8,3c-1.9,1-3.9,1.9-5.8,2.9c-1.6,0.8-3.2,1.7-4.8,2.4c-2.4,1.1-4.8,2.2-7.2,3.3
		c-3.4,1.6-6.7,3.2-10,4.9c-2.1,1.2-4.4,1.9-6.5,3.3C431,477,428.6,477.6,426,478.6L426,478.6z"/>
	<path class="st1" d="M429.8,534.5c1.9-3.1,3.7-6.2,5.5-9.2c0.4-0.6,0.9-1.2,1.1-1.8c0.5-1.2,1.5-1.6,2.7-1.8
		c0.9-0.1,1.7-0.3,2.6-0.4c2.1-0.3,4.2-0.4,6.2-1c2.1-0.6,4.4,0,6.3-1.2c0.2-0.1,0.6-0.1,0.9-0.1c4.1-0.5,8.2-1.3,12.2-2.4
		c0.7-0.2,1.4-0.3,2.1-0.4c0.8-0.2,1.7-0.4,2.5-0.6c0.3-0.1,0.6-0.2,0.8-0.2c2.2-0.2,4.5-0.3,6.7-0.6c1.5-0.2,2.9-0.7,4.4-0.9
		c2.3-0.4,4.6-1.4,7-1.1c1.6,0.2,2.7-1,4.1-1.1c2.2-0.2,4.3-1.2,6.6-1.1c1.9,0.1,3.7-0.3,5.5-1.1c0.3-0.1,0.7-0.2,1.1-0.2
		c3.2-0.1,6.2-0.9,9.3-1.7c0.6-0.1,1.2-0.1,1.7-0.2c1.1-0.1,2.2,0,3.3-0.7c1.1-0.7,2.6-0.3,4-0.8c1.7-0.6,3.7-0.5,5.6-0.7
		c1.9-0.3,3.8-0.6,5.7-0.9c3.4-0.5,6.6-1.8,10.2-1.8c1.6,0,3.3-0.6,4.9-1.3c1.4-0.6,3.1-0.6,4.7-0.8c2.1-0.3,4.3-0.6,6.4-0.9
		c0.9-0.1,1.9-0.3,2.8-0.5c0.6-0.1,1.2-0.3,1.8-0.5c1-0.4,2-0.6,3,1.2c-2.1,1.9-4.3,3.7-6.4,5.7c-2,1.9-3.7,4.1-5.6,6
		c-1.7,1.7-3.7,3.3-5.4,5c-2.5,2.5-4.8,5.1-7.4,7.4c-1.5,1.4-3.3,2.5-4.8,4c-2,2.1-3.9,4.5-6.2,6.1c-2.2,1.5-3.6,3.9-6.2,5
		c-0.1,0.1-0.2,0.2-0.3,0.3c-2.2,1.9-4.2,4-6.6,5.7c-1.6,1.2-2.8,2.8-4.7,3.7c-1.2,0.5-2,1.8-3.5,2c-0.7,0.1-1.3,0.4-2,0.5
		c-1.1,0.2-2.3-0.2-3.4,0.6c-0.3,0.3-1,0.1-1.5,0.1c-2.5,0-5-0.1-7.5,0c-4.8,0.1-9.6-0.1-14.2,0.7c-4.1,0.7-8.2,0-12.2,0.7
		c-5.1,0.8-10.1,0.3-15.1,0.5c-0.2,0-0.5-0.1-0.7,0c-2.6,1.3-5.3,0.4-8,0.7c-5.3,0.7-10.5,0.5-15.8,0.6c-4.1,1.5-8.3,0.4-12.4,0.8
		c-0.7,0.1-1.4,0.4-2,0.5c-0.5,0.1-1,0.3-1.4,0.3c-0.8,0.1-1.6,0-2.7,0c0.8,1.1,1.6,1.5,2.5,1.6c0.7,0,1.5,0,2.2,0
		c1.1,0.1,2.3-0.3,3.4,0.6c0.3,0.3,1,0.1,1.5,0.2c1.7,0,3.4-0.2,5.1,0.1c3.8,0.6,7.6,0.3,11.4,0.6c1.9,0.1,3.8,0.9,5.7,1.1
		c1.5,0.2,3.1,0.1,4.6,0.1c1.7,0.1,3.4-0.3,5.1,0.6c0.8,0.4,2,0.1,3.1,0.1c1.7,0,3.4,0,5.1,0c0.8,0,1.8-0.2,2.4,0.6
		c0.1,0.2,0.5,0.2,0.8,0.2c3.2,0.2,6.4,0.4,9.6,0.6c1,0.1,2-0.2,2.9,0.5c0.4,0.3,1.1,0.2,1.7,0.2c2.4,0,4.9-0.1,7.3,0
		c1.6,0.1,3.2,0.2,4.4,1.8c-1.1,0.9-2.1,1.8-3.2,2.5c-2.2,1.4-4.5,2.5-6.7,3.9c-2.9,1.9-6,3.4-8.9,5.3c-2.2,1.5-4.7,2.5-6.9,3.9
		c-2.2,1.4-4.5,2.5-6.8,3.7c-3.1,1.6-6.2,3.5-9.5,4.8c-4.2,1.6-8.1,4-12.7,4.7c-0.4,0.1-0.7,0.4-0.8,0.5c-1.7-0.4-3.2-0.8-4.7-1.2
		c-2.2-0.5-4.5-0.6-6.5-1.5c-1.7-0.7-3.4-0.5-5.1-1.1c-2.2-0.9-4.8-0.7-6.9-2.1c-0.3-0.2-0.7-0.2-1.1-0.2c-3.1,0.1-5.8-1.6-8.7-2.3
		c-0.7-0.2-1.4-1.1-1.9-1.8c-2.1-3.1-4.1-6.2-5.6-9.6c-0.1-0.3-0.2-0.5-0.3-0.8c0-0.2,0.1-0.4,0.1-0.6c1.2,0.1,2.3,0.2,3.4,0.3
		c0.8,0.1,1.7,0.4,2.5,0.5c0.6,0.1,1.3,0.1,1.9,0.2c1.6,0.3,3.2,0.7,4.8,1.1c1.2,0.3,2.4,0.5,3.6,0.7c1.9,0.3,3.9,0.4,5.7,1
		c2.1,0.6,4.2,0.4,6.3,1.2c4.1,1.5,8.5,1.8,12.9,1.5c0.4,0,0.9-0.1,1.3-0.3c2.4-1.1,4.8-2.1,7.2-3.2c0.8-0.4,1.4-0.9,0.9-2.2
		c-0.9-0.2-2-0.3-2.9-0.7c-2-0.8-4.3-0.3-6.2-1.4c-0.2-0.1-0.6-0.2-0.8-0.2c-2.1-0.1-4.2-0.2-6.3-0.5c-2.5-0.3-4.9-0.9-7.4-1.3
		c-1.1-0.2-2.4-0.2-3.5-0.1c-2.5,0.3-4.7-0.8-7-1.1c-0.5-0.1-1-0.2-1.5-0.3c-1.1-0.1-2.2,0.2-3.1-0.6c-0.1-0.1-0.4-0.1-0.6-0.1
		c-2.8-0.2-5.5-0.4-8.3-0.6c-0.6-0.1-1.2-0.4-1.8-0.6c-0.7-0.2-1.3-0.3-2.3-0.5c0.6-0.7,1.1-1.3,1.7-1.8c2.2-1.8,4.4-3.5,6.5-5.3
		c2.7-2.2,5.4-4.4,8-6.6c1.4-1.2,2.6-2.6,3.9-3.9c0.5-0.5,1-1.1,1.5-1.6c1.8-1.8,3.9-2.5,6.6-2.6c3.3-0.2,6.6,0,9.8-0.6
		c4.2-0.7,8.4-0.7,12.5-1.4c3.9-0.6,7.8,0,11.5-0.7c2.2-0.4,4.5,0.1,6.6-1.1c1.1-0.5,2.6,0,3.9-0.2c4-0.4,8-0.7,12-0.6
		c2.2-1.2,4.8-0.3,7-1c2.7-0.8,5.4-0.2,8-0.7c2.6-0.5,5.2-0.3,7.9-0.6c2-0.2,4.1-0.8,6.1-1.3c0.6-0.1,1.2-0.4,1.7-0.8
		c1.8-1.5,3.4-3.1,5.2-4.6c0.9-0.8,2.1-1.3,3-2.1c0.8-0.7,1.4-1.7,2.2-2.4c0.8-0.7,1.8-1.2,2.6-2c1.6-1.5,3.1-3.1,4.6-4.6
		c0.1-0.2,0-0.6,0-0.9c-1.2-0.3-2.2-0.5-3.2,0.2c-0.4,0.2-1,0.3-1.5,0.3c-2.2,0-4.3,0.2-6.3,1.2c-0.4,0.2-0.9,0.1-1.3,0.1
		c-1.5,0.1-3,0.1-4.5,0.5c-2.6,0.6-5.3,0.6-8,0.9c-0.6,0.1-1.2,0.3-1.8,0.5c-0.3,0.1-0.5,0.3-0.8,0.3c-1.8,0.2-3.7,0.1-5.4,0.7
		c-3.1,1-6.4,0.3-9.4,1.3c-3.1,1-6.4,1.2-9.6,1.3c-1.7,0.1-3.4,0.6-5.1,0.9c-0.8,0.1-1.6,0.3-2.4,0.3c-1.3,0.1-2.5,0-3.8,0.7
		c-1.5,0.7-3.4,0.5-5,1c-2.7,0.7-5.5,0.2-8.1,1.2c-1.4,0.6-3.1,0.4-4.7,0.7c-1.6,0.2-3.1,0.6-4.7,0.7c-1.6,0.1-3.2,0.1-4.8,0.5
		c-1.8,0.5-3.8,0.5-5.7,0.9C432.4,534.1,431.3,535.1,429.8,534.5L429.8,534.5z"/>
	<path class="st1" d="M438.4,519.1c0.7-2.6,1.9-4.5,2.8-6.6c0.8-2.1,1.2-4.3,1.9-6.7c1.9-0.5,4.2-0.7,6.1-1.6
		c2.6-1.3,5.5-1.5,8.1-2.6c2.2-0.9,4.5-1.6,6.8-2.4c2.2-0.7,4.3-1.5,6.5-2.2c0.8-0.2,1.6-0.1,2.4-0.4c2.2-0.7,4.2-1.7,6.4-2.3
		c2.2-0.6,4.3-1.4,6.5-2.1c1.8-0.5,3.6-1,5.3-1.6c1.8-0.5,3.4-1.2,5.2-1.8c1.2-0.4,2.4-0.6,3.5-1c1.9-0.6,3.8-1.3,5.7-1.9
		c0.8-0.2,1.8-0.1,2.6-0.4c2.8-1,5.5-2.3,8.4-3.1c2.6-0.7,4.3-2.3,6.1-4.1c2.8-2.9,5.8-5.7,8.7-8.6c1.5-1.4,2.9-2.8,4.3-4.3
		c0.6-0.6,0.9-1.4,1.5-2.1c1.2-1.3,2.5-2.4,3.7-3.7c1-1.1,2.2-1.9,2.7-3.3c0.3-0.9,1.5-1.6,2.2-2.4c0.3-0.3,0.4-0.7,0.6-1.1
		c-1.2-0.5-2.2-0.5-3.1-0.1c-3.4,1.5-7,2.6-10.5,3.8c-2.6,0.9-5.1,2.2-7.6,3.3c-1.9,0.8-3.9,1.4-5.9,2.1c-1.1,0.4-2.3,0.7-3.4,1.2
		c-2.9,1.2-5.8,2.4-8.9,3.3c-1.4,0.4-2.6,1.3-4,1.9c-1.7,0.7-3.4,1.5-5.2,2c-3.5,1-6.8,2.6-10.2,3.8c-3.1,1.1-6.2,2.1-9.3,3.2
		c-1.3,0.5-2.6,1.1-4,1.6c-2,0.8-3.9,1.6-5.9,2.4c-1.5,0.6-2.9,1.1-4.4,1.7c-0.4,0.2-0.8,0.2-1.2,0.4c-1.2,0.5-2.4,1-3.6,1.4
		c-1.1,0.4-2.1,0.8-3.2,1.2c-2.9,1.1-5.9,2.3-8.8,3.4c-3.5,1.3-7.1,2.5-10.6,3.8c-2.5,0.9-4.9,2.1-7.3,3c-1.7,0.6-3.4,1.1-5.1,1.7
		c-0.4,0.1-0.8,0.2-1.2,0.3c-1.7,0.7-3.4,1.5-5.1,2.2c-1.8,0.7-3.5,1.4-5.3,2.1c-0.4,0.1-0.8,0.1-1.3,0.2c0.4-1.7,0.8-3.1,2.2-4.2
		c0.7-0.6,1-1.8,1.5-2.6c1.5-2.5,3.1-5,4.6-7.5c0.3-0.4,0.4-0.9,0.7-1.3c1.1-1.7,2.1-3.2,4.4-3.9c3.6-1.2,7.4-2.2,10.7-4.3
		c1.3-0.9,3.1-1,4.7-1.5c0.9-0.3,1.7-0.6,2.6-1c0.7-0.3,1.5-0.9,2.2-0.9c1.9,0,3.6-0.9,5.1-1.7c2.7-1.6,5.7-1.8,8.4-3.2
		c1.3-0.7,2.8-1.2,4.2-1.7c2.5-0.7,4.7-2.3,7.3-2.8c1.8-0.3,3.4-1.5,5.2-2c1.9-0.6,3.5-2,5.6-2.1c0.4,0,0.7-0.4,1.1-0.6
		c2.6-1.1,5.2-2,7.9-2.7c0.1,0,0.3-0.1,0.4-0.1c3.3-1.9,7-2.8,10.4-4.3c2-0.9,4.2-1.5,6.3-2.3c0.7-0.3,1.4-0.6,2.1-0.9
		c0.9-0.3,1.7-0.6,2.6-1c1.9-0.8,3.8-1.8,5.8-2.2c3.8-0.9,7-3.1,10.8-4c1.8-0.4,3.5-1.9,5.3-2.2c2.7-0.5,5.1-1.8,7.6-2.8
		c2.9-1.2,6-2,8.8-3.3c2.7-1.3,5.6-2,8.4-3c2.7-1,5.4-2.4,8.2-3.2c2.7-0.8,5.1-2.6,8-3c0.9-0.1,1.7-0.8,2.5-1.2c3-1.2,6-2.4,9.1-3.5
		c0.5-0.2,1.1,0,2.1,0c-0.2,0.7-0.2,1.2-0.4,1.7c-0.6,1.2-1.1,2.6-2,3.5c-1.5,1.3-2.5,3-3.7,4.5c-2.8,3.7-5.6,7.4-8.4,11.1
		c-0.2,0.2-0.4,0.4-0.6,0.6c-2,1.5-3,3.8-4.6,5.7c-0.8,0.9-1.6,1.9-2.4,2.8c-1.4,1.8-2.9,3.4-4.3,5.1c-1.8,2.1-3.8,4-5.4,6.2
		c-1.4,1.9-3.2,3.5-4.7,5.4c-1.7,2-3.4,4-5.1,5.9c-2.9,3.2-6,6.2-8.9,9.5c-1.7,2-4.2,3.1-5.9,5.1c-0.9,1-1.9,2-2.9,2.9
		c-2.2,2.1-4.8,3.4-7.8,3.7c-1.1,0.1-2.1,0.8-3.2,1.1c-1.3,0.4-2.6,0.7-3.9,1c-1.2,0.3-2.5,0.3-3.5,1c-2.1,1.4-4.7,1.3-6.9,2.2
		c-1.8,0.7-3.8,1.2-5.7,1.6c-3,0.7-6,1.2-9,2.2c-2.5,0.8-4.9,1.5-7.5,1.9c-0.2,0-0.4,0.1-0.6,0.3c-1.4,1.5-3.5,1.2-5.2,1.8
		c-2.3,0.8-4.6,1.4-7,2c-2,0.5-4.1,0.9-6.1,1.4c-0.8,0.2-1.5,0.6-2.3,0.9c-2.6,0.7-5.3,1.3-7.9,2c-1.2,0.3-2.5,0.8-3.7,1.3
		c-1.1,0.5-2.3,0.9-3.6,0.7c-0.3,0-0.6,0-0.8,0.2C442.5,518.1,440.5,518,438.4,519.1L438.4,519.1z"/>
	<path class="st2" d="M176.3,453.2c0.9,0,1.9,0,2.8,0c1.6,0,3.2-0.4,4.6-1.3c3.1-2,3.3-5.6,1.3-8c-0.3-0.4-0.6-0.8-1-1.2
		c3.1-1.3,7.7,0,9.3,2.6c1.1,1.7,1.1,3.4,0.2,5.2c-2.6,5.4-12,7.7-16.7,4c-0.3-0.2-0.5-0.5-0.7-0.8
		C176.2,453.5,176.3,453.3,176.3,453.2L176.3,453.2z"/>
	<path class="st2" d="M328.7,510.4c0,1.6-0.4,2.9-2,3.5c-0.3,0.1-0.7,0.3-1,0.2c-3.1-0.5-5.5-2.1-6.6-5.1c-0.5-1.3-0.4-2.9,0-4.3
		c0.4-1.6,2.8-2.4,4.6-1.7C326.3,504.2,328.9,507.9,328.7,510.4L328.7,510.4z"/>
	<path class="st2" d="M277.8,530.6c-2.2-2.9-0.6-5.9,1.6-7.8c1-0.9,2.9-0.4,3.7,0.6c1.5,1.9,0.7,3.7-0.2,5.2
		C281.8,530.4,280.1,531.3,277.8,530.6L277.8,530.6z"/>
	<path class="st2" d="M338.2,529c0-0.8,0-1.4,0-1.9c0.1-1.2,1-2.5,2.2-2.5c0.9,0,2,0.1,2.5,1.2c0.9,1.8,1.9,3.6,1.1,5.8
		c-0.7,1.9-2.4,2.6-4,1.4C338.6,532,337.7,530.6,338.2,529L338.2,529z"/>
	<path class="st2" d="M284.3,585.5c0-0.5-0.1-1,0-1.5c0.2-1.4,1.9-2.1,3.1-1.2c1,0.8,1.9,4.5,1.3,5.7c-0.5,1.1-1.9,1.4-3,0.7
		C284.4,588.2,284.3,587.9,284.3,585.5L284.3,585.5z"/>
	<path class="st2" d="M305.5,592.9c2.7-0.3,3.2,0.1,3.2,2.7c0,0.5,0,1,0,1.5c-0.1,1.4-0.8,2.1-2.2,2.1c-1.3,0-1.9-0.6-2-2
		C304.4,595.7,304.3,594.3,305.5,592.9L305.5,592.9z"/>
	<path class="st2" d="M296.2,615.3c-1.4-1.1-2.3-2-2.2-3.6c0.1-1,0.2-1.9,1.3-2.3c0.5-0.2,2.1,1,2.3,1.8c0.1,0.9,0.2,1.8,0,2.6
		C297.4,614.3,296.8,614.7,296.2,615.3z"/>
	<path class="st2" d="M276.9,555.3c-0.8,0.4-1.5,0.7-2.2,1c-2-1.3-2.5-2.1-1.9-3.4c0.4-0.9,1.5-1.3,2.8-1
		C276.8,552.2,277.1,552.8,276.9,555.3L276.9,555.3z"/>
	<path class="st2" d="M321.9,569.4c0.7-0.2,1.4-0.4,2.3-0.7c0.8,0.9,2.3,1.5,1.6,3.2c-0.3,0.8-1.9,1.2-3,0.9
		C321.8,572.5,321.6,571.8,321.9,569.4L321.9,569.4z"/>
	<g>
		<g transform="translate(467.454823, 456.218353)">
			<g>
				<path class="st1" d="M260.4,140.3c0-4-2.2-7.7-6.8-11c-4.5-3.3-10.1-6.8-16.8-10.2c-6.8-3.5-14.2-7.3-22-11.5
					c-8-4.2-15.4-9-22.2-14.5c-6.8-5.3-12.5-11.7-17-19c-4.5-7.2-6.8-15.7-6.8-25.5c0-4.8,1.2-10.3,3.8-16.5c2.5-6,6.4-11.7,11.7-17
					c5.3-5.3,12.2-9.8,20.5-13.5c8.2-3.5,18-5.2,29.5-5.2c15.3,0,29.2,2.9,41.7,8.8c12.5,6,24.7,16.2,36.7,30.5l-21.5,21.8
					c-2.3-3.5-5.2-7.3-8.8-11.5c-3.5-4-7.4-7.8-11.8-11.2c-4.3-3.3-9-6.1-14-8.5c-5.2-2.3-10.5-3.5-16-3.5c-6.5,0-11.4,1.3-14.8,4
					c-3.3,2.7-5,5.7-5,9c0,4,2.2,7.7,6.7,11c4.5,3.3,10.2,6.8,17,10.2c6.8,3.5,14.2,7.3,22.2,11.5c7.8,4.2,15.2,8.9,22,14.2
					c6.8,5.5,12.5,11.8,17,19c4.5,7.3,6.7,15.9,6.7,25.7c0,4.8-1.2,10.2-3.8,16.2c-2.5,6.2-6.4,11.9-11.7,17.2
					c-5.3,5.3-12.1,9.8-20.2,13.2c-8.3,3.7-18.2,5.5-29.7,5.5c-7.7,0-14.9-0.7-21.8-2c-7-1.3-13.6-3.6-20-6.8
					c-6.3-3.2-12.5-7.2-18.5-12.2c-6.2-4.8-12.2-10.9-18.2-18.2l21.5-21.8c2.3,3.5,5.2,7.2,8.8,11.2c3.5,4.2,7.4,7.9,11.8,11.2
					c4.3,3.5,9.1,6.4,14.2,8.8c5,2.3,10.2,3.5,15.8,3.5c6.5,0,11.4-1.3,14.8-4C258.8,146.6,260.4,143.6,260.4,140.3z"/>
			</g>
		</g>
	</g>
	<g>
		<g transform="translate(586.641864, 456.218353)">
			<g>
				<path class="st1" d="M292.4-9.7c14,0,26.2,2.7,36.7,8.2c10.3,5.7,19,13.1,26,22.3c7,9.2,12.2,19.6,15.8,31.2s5.2,23.6,5.2,35.7
					c0,12.3-1.8,24.3-5.2,36c-3.5,11.7-8.8,22.1-15.8,31.2c-7,9.2-15.6,16.5-26,22c-10.5,5.7-22.7,8.5-36.7,8.5
					c-14,0-26.2-2.8-36.5-8.5c-10.5-5.5-19.2-12.8-26.2-22c-7-9.2-12.2-19.6-15.7-31.2c-3.5-11.7-5.2-23.6-5.2-36
					c0-12.2,1.8-24.1,5.2-35.7s8.7-22.1,15.7-31.2c7-9.2,15.8-16.6,26.2-22.3C266.2-6.9,278.4-9.7,292.4-9.7z M292.4,157.5
					c3.5,0,6.9-1.3,10.2-4c3.3-2.7,6.3-6.8,9-12.5c2.7-5.7,4.8-12.9,6.5-21.8c1.5-8.7,2.2-19.1,2.2-31.5c0-12.2-0.8-22.6-2.2-31.5
					c-1.7-8.8-3.8-16.1-6.5-21.8c-2.7-5.7-5.7-9.8-9-12.5c-3.3-2.7-6.8-4-10.2-4s-6.9,1.3-10.2,4s-6.3,6.8-9,12.5
					c-2.7,5.7-4.8,12.9-6.2,21.8c-1.7,8.8-2.5,19.3-2.5,31.5c0,12.3,0.8,22.8,2.5,31.5c1.5,8.8,3.6,16.1,6.2,21.8
					c2.7,5.7,5.7,9.8,9,12.5S288.9,157.5,292.4,157.5z"/>
			</g>
		</g>
	</g>
	<g>
		<g transform="translate(723.44462, 456.218353)">
			<g>
				<path class="st1" d="M345.8,153.3c4.8,0,9.3-1,13.5-3c4-2,7.4-4.2,10.2-6.8c3.3-2.8,6.3-6.1,9-9.8l19.7,19.5
					c-4.2,5-9.1,9.4-14.7,13.2c-4.8,3.3-10.9,6.3-18.2,9c-7.5,2.7-16.2,4-26,4c-14.2,0-26.6-2.7-37.2-8c-10.7-5.2-19.5-12-26.5-20.5
					c-7.2-8.5-12.5-18.2-16-29.2c-3.5-10.8-5.3-22-5.3-33.5c0-11.5,1.8-22.7,5.5-33.7c3.5-11,8.8-20.8,16-29.5
					c7-8.7,15.8-15.7,26.5-21c10.5-5.2,22.8-7.8,37-7.8c9.8,0,18.5,1.3,26,4c7.3,2.8,13.4,5.9,18.2,9.3c5.7,3.8,10.6,8.2,14.7,13
					L378.5,42c-2.7-3.5-5.7-6.7-9-9.7c-2.8-2.3-6.2-4.6-10.2-6.8c-4.2-2-8.7-3-13.5-3c-6.5,0-12.2,1.8-17,5.5
					c-5,3.8-9.1,8.8-12.2,15c-3.3,6.2-5.8,13.1-7.5,20.8c-1.7,7.8-2.5,15.8-2.5,24s0.8,16.2,2.5,24c1.7,7.8,4.1,14.8,7.5,21
					c3.2,6.2,7.2,11.1,12.2,14.8C333.6,151.3,339.3,153.3,345.8,153.3z"/>
			</g>
		</g>
	</g>
	<g>
		<g transform="translate(842.631661, 456.218353)">
			<g>
				<path class="st1" d="M385.5,140.3c0-4-2.2-7.7-6.8-11c-4.5-3.3-10.1-6.8-16.8-10.2c-6.8-3.5-14.2-7.3-22-11.5
					c-8-4.2-15.4-9-22.2-14.5c-6.8-5.3-12.5-11.7-17-19c-4.5-7.2-6.8-15.7-6.8-25.5c0-4.8,1.2-10.3,3.8-16.5c2.5-6,6.4-11.7,11.7-17
					c5.3-5.3,12.2-9.8,20.5-13.5c8.2-3.5,18-5.2,29.5-5.2c15.3,0,29.2,2.9,41.7,8.8c12.5,6,24.7,16.2,36.7,30.5l-21.5,21.8
					c-2.3-3.5-5.2-7.3-8.8-11.5c-3.5-4-7.4-7.8-11.8-11.2c-4.3-3.3-9-6.1-14-8.5c-5.2-2.3-10.5-3.5-16-3.5c-6.5,0-11.4,1.3-14.8,4
					c-3.3,2.7-5,5.7-5,9c0,4,2.2,7.7,6.7,11c4.5,3.3,10.2,6.8,17,10.2c6.8,3.5,14.2,7.3,22.2,11.5c7.8,4.2,15.2,8.9,22,14.2
					c6.8,5.5,12.5,11.8,17,19c4.5,7.3,6.7,15.9,6.7,25.7c0,4.8-1.2,10.2-3.8,16.2c-2.5,6.2-6.4,11.9-11.7,17.2
					c-5.3,5.3-12.1,9.8-20.2,13.2c-8.3,3.7-18.2,5.5-29.7,5.5c-7.7,0-14.9-0.7-21.8-2c-7-1.3-13.6-3.6-20-6.8
					c-6.3-3.2-12.5-7.2-18.5-12.2c-6.2-4.8-12.2-10.9-18.2-18.2l21.5-21.8c2.3,3.5,5.2,7.2,8.8,11.2c3.5,4.2,7.4,7.9,11.8,11.2
					c4.3,3.5,9.1,6.4,14.2,8.8c5,2.3,10.3,3.5,15.8,3.5c6.5,0,11.4-1.3,14.8-4C383.9,146.6,385.5,143.6,385.5,140.3z"/>
			</g>
		</g>
	</g>
	<path class="st3" d="M1319.4,622.2c2.4,0,4.6-0.5,6.6-1.5c2-1,3.6-2.1,5-3.3c1.6-1.4,3.1-3,4.4-4.8l9.6,9.5c-2,2.4-4.4,4.6-7.2,6.5
		c-2.4,1.6-5.3,3.1-8.9,4.4c-3.7,1.3-7.9,2-12.7,2c-6.9,0-13-1.3-18.2-3.9c-5.2-2.5-9.5-5.9-13-10c-3.5-4.2-6.1-8.9-7.8-14.3
		c-1.7-5.3-2.6-10.8-2.6-16.4s0.9-11.1,2.7-16.5c1.7-5.4,4.3-10.2,7.8-14.4c3.4-4.2,7.7-7.7,12.9-10.3c5.1-2.5,11.2-3.8,18.1-3.8
		c4.8,0,9,0.6,12.7,1.9c3.6,1.4,6.6,2.9,8.9,4.5c2.8,1.9,5.2,4,7.2,6.4l-9.6,9.5c-1.3-1.7-2.8-3.3-4.4-4.8c-1.4-1.1-3-2.2-5-3.3
		c-2-1-4.2-1.5-6.6-1.5c-3.2,0-6,0.9-8.3,2.7c-2.4,1.9-4.4,4.3-6,7.3c-1.6,3-2.9,6.4-3.7,10.1c-0.8,3.8-1.2,7.7-1.2,11.7
		c0,4,0.4,7.9,1.2,11.7c0.8,3.8,2,7.2,3.7,10.3c1.6,3,3.5,5.4,6,7.2C1313.5,621.2,1316.3,622.2,1319.4,622.2z M1393.4,542.5
		c6.8,0,12.8,1.4,18,4.1c5.1,2.8,9.3,6.4,12.7,10.9c3.4,4.5,6,9.6,7.7,15.3c1.7,5.7,2.6,11.5,2.6,17.5c0,6-0.9,11.9-2.6,17.6
		c-1.7,5.7-4.3,10.8-7.7,15.3c-3.4,4.5-7.7,8.1-12.7,10.7c-5.1,2.8-11.1,4.2-18,4.2s-12.8-1.4-17.8-4.2c-5.1-2.7-9.4-6.3-12.8-10.7
		c-3.4-4.5-6-9.6-7.7-15.3c-1.7-5.7-2.6-11.6-2.6-17.6c0-5.9,0.9-11.8,2.6-17.5c1.7-5.7,4.3-10.8,7.7-15.3
		c3.4-4.5,7.7-8.1,12.8-10.9C1380.6,543.8,1386.5,542.5,1393.4,542.5z M1393.4,624.2c1.7,0,3.4-0.7,5-2c1.6-1.3,3.1-3.4,4.4-6.1
		c1.3-2.8,2.4-6.3,3.2-10.6c0.7-4.2,1.1-9.4,1.1-15.4c0-5.9-0.4-11.1-1.1-15.4c-0.8-4.3-1.9-7.9-3.2-10.7c-1.3-2.8-2.8-4.8-4.4-6.1
		c-1.6-1.3-3.3-2-5-2s-3.4,0.7-5,2c-1.6,1.3-3.1,3.3-4.4,6.1c-1.3,2.8-2.3,6.3-3.1,10.7c-0.8,4.3-1.2,9.4-1.2,15.4
		c0,6,0.4,11.2,1.2,15.4c0.7,4.3,1.8,7.9,3.1,10.6c1.3,2.8,2.8,4.8,4.4,6.1C1390,623.6,1391.7,624.2,1393.4,624.2z M1444.1,545.4
		h28.8l28.7,53.8v-53.8h19.2V635h-28.7l-28.8-53.8V635h-19.2V545.4z M1533,545.4h28.8l28.7,53.8v-53.8h19.2V635h-28.7l-28.8-53.8
		V635H1533V545.4z M1679.6,615.8l-3.2,19.2H1622v-89.6h51.2l3.2,19.2h-28.9v16h25.7v19.2h-25.7v16H1679.6z M1734.1,622.2
		c2.4,0,4.6-0.5,6.6-1.5c2-1,3.6-2.1,5-3.3c1.6-1.4,3.1-3,4.4-4.8l9.6,9.5c-2,2.4-4.4,4.6-7.2,6.5c-2.4,1.6-5.3,3.1-8.9,4.4
		c-3.7,1.3-7.9,2-12.7,2c-6.9,0-13-1.3-18.2-3.9c-5.2-2.5-9.5-5.9-12.9-10c-3.5-4.2-6.1-8.9-7.8-14.3c-1.7-5.3-2.6-10.8-2.6-16.4
		s0.9-11.1,2.7-16.5c1.7-5.4,4.3-10.2,7.8-14.4c3.4-4.2,7.7-7.7,12.9-10.3c5.1-2.5,11.2-3.8,18.1-3.8c4.8,0,9,0.6,12.7,1.9
		c3.6,1.4,6.6,2.9,8.9,4.5c2.8,1.9,5.2,4,7.2,6.4l-9.6,9.5c-1.3-1.7-2.8-3.3-4.4-4.8c-1.4-1.1-3-2.2-5-3.3c-2-1-4.2-1.5-6.6-1.5
		c-3.2,0-6,0.9-8.3,2.7c-2.4,1.9-4.4,4.3-6,7.3c-1.6,3-2.9,6.4-3.7,10.1c-0.8,3.8-1.2,7.7-1.2,11.7c0,4,0.4,7.9,1.2,11.7
		c0.8,3.8,2,7.2,3.7,10.3c1.6,3,3.5,5.4,6,7.2C1728.1,621.2,1730.9,622.2,1734.1,622.2z M1813.9,564.6V635h-25.7v-70.4h-22.3
		l3.2-19.2h64.1l3.2,19.2H1813.9z"/>
	<g>
		<g transform="translate(949.043831, 455.680895)">
			<g>
				<path class="st1" d="M370.4,166.5c2.4,0,4.6-0.5,6.6-1.5c1.9-1,3.6-2.1,5-3.3c1.6-1.4,3.1-3,4.4-4.8l9.7,9.5
					c-2,2.4-4.4,4.6-7.2,6.5c-2.4,1.6-5.3,3.1-8.9,4.4c-3.7,1.3-7.9,2-12.7,2c-6.9,0-13-1.3-18.2-3.9c-5.2-2.5-9.5-5.9-12.9-10
					c-3.5-4.2-6.1-8.9-7.8-14.3c-1.7-5.3-2.6-10.8-2.6-16.4s0.9-11.1,2.7-16.5c1.7-5.4,4.3-10.2,7.8-14.4c3.4-4.2,7.8-7.7,13-10.3
					c5.1-2.5,11.2-3.8,18.1-3.8c4.8,0,9.1,0.7,12.7,2c3.6,1.4,6.6,2.9,8.9,4.5c2.8,1.9,5.2,4,7.2,6.4l-9.7,9.5
					c-1.3-1.7-2.8-3.3-4.4-4.8c-1.4-1.1-3.1-2.2-5-3.3c-2-1-4.2-1.5-6.6-1.5c-3.2,0-6,0.9-8.3,2.7c-2.4,1.9-4.4,4.3-6,7.3
					c-1.6,3-2.9,6.4-3.7,10.1c-0.8,3.8-1.2,7.7-1.2,11.7c0,4,0.4,7.9,1.2,11.7c0.8,3.8,2,7.3,3.7,10.3c1.5,3,3.5,5.4,6,7.2
					C364.4,165.5,367.2,166.5,370.4,166.5z"/>
			</g>
		</g>
	</g>
	<g>
		<g transform="translate(1007.331626, 455.680895)">
			<g>
				<path class="st1" d="M386,86.8c6.8,0,12.8,1.3,18,4c5.1,2.8,9.3,6.4,12.7,10.9c3.4,4.5,6,9.6,7.7,15.3
					c1.7,5.7,2.6,11.5,2.6,17.5c0,6-0.9,11.9-2.6,17.6s-4.3,10.8-7.7,15.3c-3.4,4.5-7.7,8.1-12.7,10.8c-5.1,2.8-11.1,4.2-18,4.2
					c-6.8,0-12.8-1.4-17.8-4.2c-5.1-2.7-9.4-6.3-12.8-10.8c-3.4-4.5-6-9.6-7.7-15.3s-2.6-11.6-2.6-17.6c0-5.9,0.9-11.8,2.6-17.5
					c1.7-5.7,4.3-10.8,7.7-15.3c3.4-4.5,7.7-8.1,12.8-10.9C373.2,88.1,379.2,86.8,386,86.8z M386,168.6c1.7,0,3.4-0.7,5-2
					c1.6-1.3,3.1-3.3,4.4-6.1c1.3-2.8,2.4-6.3,3.2-10.6c0.7-4.2,1.1-9.4,1.1-15.4c0-5.9-0.4-11.1-1.1-15.4
					c-0.8-4.3-1.9-7.9-3.2-10.6c-1.3-2.8-2.8-4.8-4.4-6.1c-1.6-1.3-3.3-1.9-5-1.9s-3.4,0.6-5,1.9c-1.6,1.3-3.1,3.3-4.4,6.1
					c-1.3,2.8-2.3,6.3-3,10.6c-0.8,4.3-1.2,9.5-1.2,15.4c0,6,0.4,11.2,1.2,15.4c0.7,4.3,1.8,7.9,3,10.6c1.3,2.8,2.8,4.8,4.4,6.1
					C382.7,167.9,384.3,168.6,386,168.6z"/>
			</g>
		</g>
	</g>
	<g>
		<g transform="translate(1074.234304, 455.680895)">
			<g>
				<path class="st1" d="M369.8,89.7h28.9l28.7,53.8V89.7h19.2v89.6h-28.7L389,125.5v53.8h-19.2V89.7z"/>
			</g>
		</g>
	</g>
	<g>
		<g transform="translate(1140.953669, 455.680895)">
			<g>
				<path class="st1" d="M392.1,89.7h28.9l28.7,53.8V89.7h19.2v89.6h-28.7l-28.9-53.8v53.8h-19.2V89.7z"/>
			</g>
		</g>
	</g>
	<g>
		<g transform="translate(1207.673035, 455.680895)">
			<g>
				<path class="st1" d="M471.9,160.1l-3.2,19.2h-54.4V89.7h51.2l3.2,19.2h-28.9v16h25.7v19.2h-25.7v16H471.9z"/>
			</g>
		</g>
	</g>
	<g>
		<g transform="translate(1260.003746, 455.680895)">
			<g>
				<path class="st1" d="M474,166.5c2.4,0,4.6-0.5,6.6-1.5c1.9-1,3.6-2.1,5-3.3c1.6-1.4,3.1-3,4.4-4.8l9.7,9.5
					c-2,2.4-4.4,4.6-7.2,6.5c-2.4,1.6-5.3,3.1-8.9,4.4c-3.7,1.3-7.9,2-12.7,2c-6.9,0-13-1.3-18.2-3.9c-5.2-2.5-9.5-5.9-12.9-10
					c-3.5-4.2-6.1-8.9-7.8-14.3c-1.7-5.3-2.6-10.8-2.6-16.4s0.9-11.1,2.7-16.5c1.7-5.4,4.3-10.2,7.8-14.4c3.4-4.2,7.8-7.7,13-10.3
					c5.1-2.5,11.2-3.8,18.1-3.8c4.8,0,9.1,0.7,12.7,2c3.6,1.4,6.6,2.9,8.9,4.5c2.8,1.9,5.2,4,7.2,6.4l-9.7,9.5
					c-1.3-1.7-2.8-3.3-4.4-4.8c-1.4-1.1-3.1-2.2-5-3.3c-2-1-4.2-1.5-6.6-1.5c-3.2,0-6,0.9-8.3,2.7c-2.4,1.9-4.4,4.3-6,7.3
					c-1.6,3-2.9,6.4-3.7,10.1c-0.8,3.8-1.2,7.7-1.2,11.7c0,4,0.4,7.9,1.2,11.7c0.8,3.8,2,7.3,3.7,10.3c1.5,3,3.5,5.4,6,7.2
					C468.1,165.5,470.9,166.5,474,166.5z"/>
			</g>
		</g>
	</g>
	<g>
		<g transform="translate(1318.291541, 455.680895)">
			<g>
				<path class="st1" d="M495.6,108.9v70.4h-25.7v-70.4h-22.4l3.2-19.2h64l3.2,19.2H495.6z"/>
			</g>
		</g>
	</g>
</g>
</svg>
